<svg width="16" height="16" viewBox="0 0 16 16" fill="none" xmlns="http://www.w3.org/2000/svg">
<path d="M14.0146 1.24283H11.9452V0.787718C11.9452 0.350079 11.6087 0 11.1881 0C10.7675 0 10.4311 0.350079 10.4311 0.787718V1.24283H5.53517V0.787718C5.53517 0.350079 5.19871 0 4.7781 0C4.35749 0 4.02103 0.350079 4.02103 0.787718V1.24283H1.96845C0.891693 1.24283 0 2.15315 0 3.29098V13.9519C0 15.0722 0.874899 16 1.96845 16H14.0315C15.1083 16 16 15.0897 16 13.9519V3.29098C15.9832 2.15318 15.1083 1.24283 14.0148 1.24283H14.0146ZM1.9683 2.81827H4.03767V3.27347C4.03767 3.71111 4.37413 4.06119 4.79474 4.06119C5.21535 4.06119 5.55181 3.71111 5.55181 3.27347V2.81836H10.4477L10.4478 3.27347C10.4478 3.71111 10.7843 4.06119 11.2049 4.06119C11.6255 4.06119 11.962 3.71111 11.962 3.27347V2.81836H14.0313C14.2837 2.81836 14.4856 3.02839 14.4856 3.29104V5.37411H1.51401V3.29092C1.51401 3.02838 1.71599 2.81824 1.9683 2.81824L1.9683 2.81827ZM14.0146 14.4244H1.9683C1.71599 14.4244 1.51402 14.2144 1.51402 13.9518V6.93204H14.4856V13.9518C14.4688 14.2144 14.2669 14.4244 14.0145 14.4244H14.0146Z" fill="#10BAB2"/>
</svg>
