<svg width="30" height="30" viewBox="0 0 30 30" fill="none" xmlns="http://www.w3.org/2000/svg">
<rect width="30" height="30" rx="5" fill="#10BAB2"/>
<path d="M21.0146 8.24283H18.9452V7.78772C18.9452 7.35008 18.6087 7 18.1881 7C17.7675 7 17.4311 7.35008 17.4311 7.78772V8.24283H12.5352V7.78772C12.5352 7.35008 12.1987 7 11.7781 7C11.3575 7 11.021 7.35008 11.021 7.78772V8.24283H8.96845C7.89169 8.24283 7 9.15315 7 10.291V20.9519C7 22.0722 7.8749 23 8.96845 23H21.0315C22.1083 23 23 22.0897 23 20.9519V10.291C22.9832 9.15318 22.1083 8.24283 21.0148 8.24283H21.0146ZM8.9683 9.81827H11.0377V10.2735C11.0377 10.7111 11.3741 11.0612 11.7947 11.0612C12.2154 11.0612 12.5518 10.7111 12.5518 10.2735V9.81836H17.4477L17.4478 10.2735C17.4478 10.7111 17.7843 11.0612 18.2049 11.0612C18.6255 11.0612 18.962 10.7111 18.962 10.2735V9.81836H21.0313C21.2837 9.81836 21.4856 10.0284 21.4856 10.291V12.3741H8.51401V10.2909C8.51401 10.0284 8.71599 9.81824 8.9683 9.81824L8.9683 9.81827ZM21.0146 21.4244H8.9683C8.71599 21.4244 8.51402 21.2144 8.51402 20.9518V13.932H21.4856V20.9518C21.4688 21.2144 21.2669 21.4244 21.0145 21.4244H21.0146Z" fill="white"/>
</svg>
