<svg width="265" height="233" viewBox="0 0 265 233" fill="none" xmlns="http://www.w3.org/2000/svg">
<g opacity="0.6" clip-path="url(#clip0_218_10150)">
<path d="M265 55.3695H263.725V20.2982C263.725 14.9148 261.592 9.75186 257.796 5.94521C254 2.13855 248.852 2.6478e-09 243.483 2.64778e-09H169.384C166.726 -4.30502e-05 164.094 0.524943 161.638 1.54498C159.182 2.56502 156.951 4.06014 155.071 5.94497C153.192 7.8298 151.701 10.0674 150.683 12.5301C149.666 14.9928 149.142 17.6323 149.142 20.2979V212.702C149.142 218.085 151.275 223.248 155.071 227.055C158.867 230.861 164.016 233 169.384 233H243.482C248.851 233 253.999 230.861 257.795 227.055C261.591 223.248 263.724 218.085 263.724 212.702V80.3339H264.999L265 55.3695Z" fill="#3F3D56"/>
<path d="M259.597 18.9383V214.06C259.596 218.142 257.979 222.056 255.101 224.943C252.224 227.829 248.32 229.452 244.25 229.453H168.631C164.559 229.454 160.654 227.832 157.774 224.946C154.894 222.059 153.276 218.144 153.274 214.06V18.9383C153.276 14.8552 154.894 10.9398 157.774 8.05326C160.654 5.16669 164.559 3.54538 168.631 3.5459H177.804C177.353 4.65662 177.182 5.86127 177.304 7.05399C177.427 8.24671 177.84 9.39097 178.507 10.3862C179.174 11.3814 180.074 12.1971 181.129 12.7616C182.184 13.3262 183.361 13.6222 184.557 13.6237H227.668C228.864 13.6222 230.041 13.3262 231.096 12.7616C232.151 12.1971 233.051 11.3814 233.718 10.3862C234.385 9.39097 234.798 8.24671 234.921 7.05399C235.043 5.86127 234.872 4.65662 234.421 3.5459H244.247C248.317 3.54659 252.221 5.16811 255.099 8.05395C257.978 10.9398 259.595 14.8538 259.597 18.9354V18.9383Z" fill="white"/>
<path d="M207.246 96.9995C198.637 97.0027 190.379 93.5763 184.288 87.4741C178.198 81.3718 174.774 73.0935 174.77 64.46V64.4312C174.77 64.363 174.77 64.2912 174.774 64.223C174.872 46.3885 189.441 31.8652 207.246 31.8652C215.86 31.8648 224.12 35.2954 230.211 41.4025C236.302 47.5096 239.724 55.7928 239.724 64.4301C239.725 73.0673 236.304 81.3509 230.214 87.4587C224.124 93.5664 215.863 96.998 207.25 96.9985H207.246V96.9995ZM207.246 32.5504C198.853 32.5692 190.806 35.9088 184.854 41.8434C178.901 47.778 175.525 55.8283 175.458 64.245C175.455 64.3178 175.455 64.3761 175.455 64.4315C175.454 70.7378 177.318 76.9027 180.811 82.1466C184.304 87.3905 189.27 91.4779 195.079 93.8919C200.889 96.3059 207.282 96.9381 213.45 95.7086C219.618 94.4791 225.284 91.443 229.732 86.9844C234.179 82.5257 237.208 76.8447 238.436 70.6598C239.663 64.4748 239.035 58.0637 236.629 52.2372C234.223 46.4107 230.148 41.4304 224.92 37.9262C219.691 34.422 213.544 32.5512 207.255 32.5504H207.246V32.5504Z" fill="#E6E6E6"/>
<path d="M240.829 131.239H173.633C173.303 131.239 172.987 131.107 172.753 130.874C172.52 130.64 172.389 130.322 172.389 129.992V113.277C172.389 112.946 172.52 112.629 172.754 112.395C172.987 112.161 173.303 112.03 173.633 112.029H240.829C241.159 112.03 241.475 112.161 241.708 112.395C241.942 112.629 242.073 112.946 242.073 113.277V129.992C242.073 130.323 241.942 130.64 241.708 130.874C241.475 131.108 241.159 131.239 240.829 131.24V131.239ZM173.633 112.528C173.435 112.528 173.245 112.607 173.105 112.748C172.965 112.888 172.886 113.079 172.886 113.277V129.992C172.886 130.19 172.965 130.381 173.105 130.521C173.245 130.662 173.435 130.741 173.633 130.741H240.829C241.027 130.741 241.217 130.662 241.357 130.521C241.497 130.381 241.576 130.19 241.576 129.992V113.277C241.576 113.079 241.497 112.888 241.357 112.748C241.217 112.607 241.027 112.528 240.829 112.528H173.633Z" fill="#E6E6E6"/>
<path d="M194.414 118.141C194.183 118.141 193.961 118.233 193.798 118.396C193.634 118.56 193.543 118.782 193.543 119.014C193.543 119.246 193.634 119.468 193.798 119.632C193.961 119.796 194.183 119.888 194.414 119.888H235.478C235.592 119.892 235.706 119.874 235.814 119.834C235.921 119.794 236.019 119.734 236.103 119.656C236.187 119.578 236.255 119.484 236.303 119.38C236.351 119.275 236.377 119.163 236.382 119.048C236.386 118.933 236.368 118.819 236.328 118.711C236.289 118.604 236.228 118.505 236.15 118.421C236.073 118.337 235.979 118.269 235.875 118.221C235.771 118.173 235.659 118.146 235.545 118.142C235.532 118.141 235.519 118.141 235.506 118.141H194.414V118.141Z" fill="#E6E6E6"/>
<path d="M194.414 123.382C194.183 123.382 193.961 123.474 193.798 123.638C193.634 123.801 193.543 124.024 193.543 124.255C193.543 124.487 193.634 124.709 193.798 124.873C193.961 125.037 194.183 125.129 194.414 125.129H235.478C235.592 125.133 235.706 125.115 235.814 125.075C235.921 125.035 236.019 124.975 236.103 124.897C236.187 124.819 236.255 124.725 236.303 124.621C236.351 124.517 236.377 124.404 236.382 124.289C236.386 124.175 236.368 124.06 236.328 123.953C236.289 123.845 236.228 123.746 236.15 123.662C236.073 123.578 235.979 123.51 235.875 123.462C235.771 123.414 235.659 123.387 235.545 123.383C235.532 123.382 235.519 123.382 235.506 123.382H194.414V123.382Z" fill="#E6E6E6"/>
<path d="M240.829 159.192H173.633C173.303 159.191 172.987 159.06 172.753 158.826C172.52 158.592 172.389 158.275 172.389 157.944V141.229C172.389 140.898 172.52 140.581 172.754 140.347C172.987 140.113 173.303 139.982 173.633 139.981H240.829C241.159 139.982 241.475 140.113 241.708 140.347C241.942 140.581 242.073 140.898 242.073 141.229V157.944C242.073 158.275 241.942 158.592 241.708 158.826C241.475 159.06 241.159 159.191 240.829 159.192V159.192ZM173.633 140.48C173.435 140.481 173.245 140.56 173.105 140.7C172.965 140.84 172.886 141.031 172.886 141.229V157.944C172.886 158.143 172.965 158.333 173.105 158.473C173.245 158.614 173.435 158.693 173.633 158.693H240.829C241.027 158.693 241.217 158.614 241.357 158.473C241.497 158.333 241.576 158.143 241.576 157.944V141.229C241.576 141.031 241.497 140.84 241.357 140.7C241.217 140.56 241.027 140.481 240.829 140.48H173.633Z" fill="#E6E6E6"/>
<path d="M194.414 146.091C194.183 146.091 193.961 146.183 193.798 146.347C193.634 146.51 193.543 146.733 193.543 146.964C193.543 147.196 193.634 147.418 193.798 147.582C193.961 147.746 194.183 147.838 194.414 147.838H235.478C235.706 147.837 235.924 147.746 236.086 147.585C236.248 147.425 236.34 147.207 236.344 146.978C236.348 146.75 236.262 146.529 236.106 146.364C235.949 146.198 235.734 146.1 235.506 146.091H194.414V146.091Z" fill="#E6E6E6"/>
<path d="M194.414 151.333C194.183 151.333 193.961 151.425 193.798 151.589C193.634 151.753 193.543 151.975 193.543 152.207C193.543 152.438 193.634 152.66 193.798 152.824C193.961 152.988 194.183 153.08 194.414 153.08H235.478C235.706 153.079 235.924 152.988 236.086 152.827C236.248 152.667 236.34 152.449 236.344 152.221C236.348 151.992 236.262 151.772 236.106 151.606C235.949 151.44 235.734 151.342 235.506 151.333H194.414V151.333Z" fill="#E6E6E6"/>
<path d="M240.829 187.142H173.633C173.303 187.141 172.987 187.01 172.753 186.776C172.52 186.542 172.389 186.225 172.389 185.894V169.179C172.389 168.849 172.52 168.531 172.754 168.298C172.987 168.064 173.303 167.932 173.633 167.932H240.829C241.159 167.932 241.475 168.064 241.708 168.298C241.942 168.531 242.073 168.849 242.073 169.179V185.894C242.073 186.225 241.942 186.542 241.708 186.776C241.475 187.01 241.159 187.142 240.829 187.142V187.142ZM173.633 168.431C173.435 168.431 173.245 168.51 173.105 168.65C172.965 168.791 172.886 168.981 172.886 169.179V185.894C172.886 186.093 172.965 186.283 173.105 186.424C173.245 186.564 173.435 186.643 173.633 186.643H240.829C241.027 186.643 241.217 186.564 241.357 186.424C241.497 186.283 241.576 186.093 241.576 185.894V169.179C241.576 168.981 241.497 168.791 241.357 168.65C241.217 168.51 241.027 168.431 240.829 168.431H173.633Z" fill="#E6E6E6"/>
<path d="M194.414 174.043C194.183 174.043 193.961 174.135 193.798 174.299C193.634 174.463 193.543 174.685 193.543 174.916C193.543 175.148 193.634 175.37 193.798 175.534C193.961 175.698 194.183 175.79 194.414 175.79H235.478C235.592 175.794 235.706 175.776 235.814 175.736C235.921 175.697 236.019 175.636 236.103 175.558C236.187 175.48 236.255 175.386 236.303 175.282C236.351 175.178 236.377 175.065 236.382 174.95C236.386 174.836 236.368 174.721 236.328 174.614C236.289 174.506 236.228 174.407 236.15 174.323C236.073 174.239 235.979 174.171 235.875 174.123C235.771 174.075 235.659 174.048 235.545 174.044C235.532 174.043 235.519 174.043 235.506 174.043H194.414V174.043Z" fill="#E6E6E6"/>
<path d="M194.414 179.284C194.183 179.284 193.961 179.376 193.798 179.54C193.634 179.704 193.543 179.926 193.543 180.158C193.543 180.389 193.634 180.612 193.798 180.775C193.961 180.939 194.183 181.031 194.414 181.031H235.478C235.592 181.036 235.706 181.017 235.814 180.978C235.921 180.938 236.019 180.877 236.103 180.799C236.187 180.721 236.255 180.627 236.303 180.523C236.351 180.419 236.377 180.306 236.382 180.192C236.386 180.077 236.368 179.963 236.328 179.855C236.289 179.747 236.228 179.649 236.15 179.564C236.073 179.48 235.979 179.412 235.875 179.364C235.771 179.316 235.659 179.29 235.545 179.285C235.532 179.285 235.519 179.284 235.506 179.284H194.414V179.284Z" fill="#E6E6E6"/>
<path d="M217.509 63.6414H208.037V54.1436H206.459V63.6414H196.988V65.2242H206.459V74.7221H208.037V65.2242H217.509V63.6414Z" fill="#10BAB2"/>
<path d="M72.0631 183.077C72.0631 183.077 64.3187 191.583 63.2124 211.182C62.1061 230.781 61.7373 233 61.7373 233H89.3956L94.5558 219.689L100.458 232.999H126.64C126.64 232.999 129.591 192.321 126.64 191.212C123.69 190.102 72.0631 183.077 72.0631 183.077Z" fill="#2F2E41"/>
<path d="M109.124 83.0461C116.456 83.0461 122.399 77.0858 122.399 69.7335C122.399 62.3811 116.456 56.4209 109.124 56.4209C101.792 56.4209 95.8481 62.3811 95.8481 69.7335C95.8481 77.0858 101.792 83.0461 109.124 83.0461Z" fill="#FFB8B8"/>
<path d="M166.468 183.448L146.186 146.468L134.384 127.238L148.398 120.951L156.142 136.113C156.142 136.113 166.468 151.275 169.049 163.848C171.63 176.422 174.212 182.339 174.212 182.339L166.468 183.448Z" fill="#FFB8B8"/>
<path d="M54.7282 172.723L84.9676 146.097L83.4941 124.648H75.0122L72.4295 135.743L48.0906 167.915L54.7282 172.723Z" fill="#FFB8B8"/>
<path d="M93.8196 89.5183C93.8196 89.5183 104.772 94.1225 112.94 88.4922C112.94 88.4922 132.909 91.7378 134.016 92.8466C135.122 93.9553 132.909 127.237 132.909 127.237L128.485 146.098C128.485 146.098 134.754 174.942 125.534 182.338L127.378 192.323C127.378 192.323 86.4447 195.281 70.2185 185.296L73.1681 175.311L80.9124 143.878L76.1183 100.243C76.1183 100.243 79.8047 90.2579 93.8196 89.5183Z" fill="#E4E4E4"/>
<path d="M124.612 94.5101L134.2 93.0322C134.2 93.0322 138.994 93.7718 143.42 103.017C147.845 112.262 152.639 124.465 152.639 124.465L136.045 131.861L122.4 110.413L124.612 94.5101Z" fill="#E4E4E4"/>
<path d="M78.3316 98.3936L76.1189 100.243C76.1189 100.243 73.1687 110.967 73.1687 118.363V128.347L86.4447 129.827L78.3316 98.3936Z" fill="#E4E4E4"/>
<path d="M95.8516 73.3461C95.8516 73.3461 94.047 71.3919 94.2297 68.9455C94.3502 67.5539 94.2614 66.1521 93.9666 64.7869C93.9666 64.7869 94.5315 60.783 95.3655 58.4619C96.1995 56.1408 95.4963 55.3333 99.0814 54.0662C102.666 52.7991 100.384 48.2172 110.953 51.8697C111.355 52.2767 111.869 52.5552 112.428 52.6701C112.988 52.7849 113.569 52.7309 114.098 52.5149C116.05 51.7982 117.226 54.4865 117.226 54.4865C117.226 54.4865 118.443 53.4849 119.126 54.5262C119.809 55.5674 123.112 53.1945 124.324 60.7686C125.536 68.3426 121.377 75.0971 121.377 75.0971C121.377 75.0971 120.793 62.9769 113.929 62.7569C107.065 62.5369 99.3024 59.9299 98.3396 65.0338C97.3768 70.1376 95.8516 73.3461 95.8516 73.3461Z" fill="#2F2E41"/>
<path d="M49.8909 178.387C53.0507 178.387 55.6122 175.818 55.6122 172.649C55.6122 169.481 53.0507 166.912 49.8909 166.912C46.7312 166.912 44.1697 169.481 44.1697 172.649C44.1697 175.818 46.7312 178.387 49.8909 178.387Z" fill="#FFB8B8"/>
<path d="M8.64567 211.399L102.872 192.538L94.9976 152.98L0.77124 171.841L8.64567 211.399Z" fill="white"/>
<path d="M103.643 193.054L8.13139 212.174L0 171.325L95.5118 152.206L103.643 193.054ZM9.16056 210.626L102.101 192.022L94.483 153.752L1.54245 172.357L9.16056 210.626Z" fill="#E4E4E4"/>
<path d="M39.3684 198.825L39.3297 198.841C39.0224 198.968 38.711 199.088 38.3911 199.193C38.2835 199.23 38.1721 199.264 38.0641 199.297C37.956 199.329 37.8444 199.364 37.7326 199.395C37.5505 199.447 37.3642 199.494 37.1769 199.537C37.0967 199.557 37.0123 199.575 36.9314 199.593L36.8828 199.603C36.7824 199.624 36.682 199.646 36.5809 199.664L36.3195 199.71C36.2709 199.72 36.2229 199.727 36.1756 199.734C34.0976 200.061 31.9728 199.911 29.9609 199.296C27.9489 198.68 26.1023 197.616 24.5598 196.182C23.0173 194.748 21.8191 192.982 21.0552 191.017C20.2914 189.051 19.9819 186.938 20.1499 184.836C20.318 182.733 20.9592 180.696 22.0254 178.878C23.0916 177.06 24.5549 175.508 26.3055 174.338C28.0561 173.169 30.0482 172.413 32.1322 172.127C34.2161 171.841 36.3376 172.032 38.3371 172.687C36.5275 174.326 35.1793 176.414 34.4277 178.74C33.6762 181.067 33.5476 183.55 34.0549 185.942C34.5622 188.334 35.6876 190.55 37.3182 192.369C38.9488 194.187 41.0274 195.544 43.3457 196.303C42.1735 197.365 40.8286 198.219 39.3692 198.826L39.3684 198.825Z" fill="#10BAB2"/>
<path d="M59.2596 191.729C59.8677 192.035 60.4979 192.294 61.1447 192.506C59.3338 194.151 57.1207 195.286 54.7305 195.796L54.5556 195.833C52.4688 196.253 50.3138 196.188 48.2563 195.641C46.1988 195.095 44.2936 194.083 42.6875 192.682C41.0814 191.282 39.8171 189.531 38.9919 187.563C38.1667 185.596 37.8026 183.465 37.9276 181.334C38.0526 179.204 38.6634 177.13 39.7129 175.273C40.7625 173.417 42.2228 171.826 43.9816 170.624C45.7404 169.422 47.7508 168.641 49.8579 168.34C51.9651 168.04 54.113 168.228 56.1362 168.89C54.4494 170.41 53.1595 172.322 52.3792 174.457C51.5989 176.593 51.3521 178.887 51.6602 181.14C51.9684 183.393 52.8221 185.536 54.1468 187.382C55.4716 189.228 57.227 190.721 59.2596 191.729L59.2596 191.729Z" fill="#10BAB2"/>
<path d="M83.2404 175.453C83.8128 178.152 83.5742 180.961 82.5548 183.524C81.5354 186.087 79.781 188.29 77.5133 189.853C75.2457 191.416 72.5667 192.27 69.8151 192.306C67.0636 192.343 64.363 191.56 62.055 190.058C59.747 188.555 57.9351 186.4 56.8486 183.864C55.762 181.329 55.4495 178.528 55.9507 175.814C56.4519 173.101 57.7441 170.598 59.6641 168.621C61.584 166.644 64.0454 165.283 66.737 164.709C68.5242 164.327 70.3687 164.303 72.1653 164.637C73.9619 164.97 75.6753 165.656 77.2078 166.653C78.7402 167.651 80.0618 168.942 81.0968 170.452C82.1319 171.961 82.8603 173.661 83.2404 175.453Z" fill="#10BAB2"/>
<path d="M77.4139 187.903C77.5454 188.52 77.6142 189.15 77.6192 189.781C76.0871 190.857 74.3549 191.612 72.5257 192.002C70.6966 192.392 68.8078 192.409 66.9719 192.052C66.7202 191.473 66.5276 190.87 66.3971 190.252C65.7162 187.042 66.7715 183.981 68.8239 182.596C67.8472 182.41 66.9651 181.889 66.3273 181.125C65.6895 180.36 65.3354 179.397 65.3249 178.4C65.3145 177.403 65.6485 176.433 66.2701 175.655C66.8917 174.877 67.7627 174.338 68.7353 174.131C69.7078 173.923 70.722 174.06 71.6056 174.517C72.4893 174.974 73.1879 175.724 73.583 176.639C73.9781 177.554 74.0453 178.578 73.7731 179.537C73.501 180.496 72.9063 181.331 72.09 181.9C74.5276 182.327 76.7331 184.693 77.4139 187.903Z" fill="white"/>
<path d="M59.2598 191.731L59.2688 191.773C59.3858 192.549 59.4388 193.333 59.4273 194.117C57.986 195.131 56.3751 195.423 54.5558 195.835L54.3809 195.872C52.5519 196.265 50.6627 196.282 48.8271 195.922C48.8022 195.869 48.7805 195.815 48.7621 195.76C48.5404 195.232 48.3697 194.683 48.2525 194.123C47.5717 190.912 48.6269 187.852 50.6793 186.467C49.7026 186.28 48.8204 185.76 48.1825 184.995C47.5446 184.23 47.1904 183.268 47.1799 182.271C47.1695 181.274 47.5035 180.304 48.1253 179.526C48.747 178.747 49.6181 178.209 50.5908 178.002C50.9203 177.931 51.2573 177.9 51.5943 177.91C51.325 180.722 51.9139 183.549 53.2829 186.017C54.6519 188.485 56.7364 190.478 59.2602 191.731L59.2598 191.731Z" fill="white"/>
<path d="M41.8049 195.694C41.9154 196.251 41.9729 196.816 41.9768 197.383C40.8757 198.158 39.6679 198.768 38.3915 199.194C38.2839 199.23 38.1726 199.264 38.0645 199.297C37.9565 199.33 37.8449 199.364 37.733 199.395C37.551 199.447 37.3647 199.494 37.1774 199.537C37.139 199.548 37.0972 199.557 37.0581 199.566L36.8832 199.603C36.7829 199.624 36.6825 199.646 36.5814 199.664L36.32 199.71C36.2714 199.72 36.2234 199.727 36.1761 199.734C34.5685 199.994 32.9276 199.967 31.3295 199.653C31.3253 199.647 31.3226 199.639 31.3215 199.631C31.2992 199.586 31.2802 199.539 31.2646 199.491C31.0428 198.963 30.8721 198.414 30.755 197.854C30.0741 194.643 31.1294 191.583 33.1818 190.198C32.205 190.011 31.3228 189.491 30.6849 188.726C30.047 187.961 29.6928 186.999 29.6824 186.002C29.6719 185.005 30.0059 184.035 30.6277 183.257C31.2494 182.478 32.1206 181.94 33.0932 181.733C33.3266 181.683 33.5638 181.652 33.8023 181.643C33.5122 184.529 34.1274 187.433 35.5619 189.952C36.9964 192.471 39.1789 194.478 41.8051 195.694L41.8049 195.694Z" fill="white"/>
<path d="M185.159 124.142C185.16 124.458 185.128 124.773 185.065 125.082C184.204 125.448 183.278 125.637 182.343 125.637C181.408 125.637 180.483 125.448 179.622 125.082C179.559 124.773 179.527 124.458 179.527 124.142C179.527 122.501 180.36 121.114 181.508 120.65C181.05 120.457 180.672 120.11 180.44 119.67C180.207 119.229 180.134 118.721 180.232 118.232C180.33 117.744 180.594 117.304 180.979 116.988C181.364 116.673 181.846 116.5 182.343 116.5C182.84 116.5 183.322 116.673 183.707 116.988C184.092 117.304 184.356 117.744 184.454 118.232C184.552 118.721 184.479 119.229 184.246 119.67C184.014 120.11 183.636 120.457 183.178 120.65C184.326 121.114 185.159 122.501 185.159 124.142Z" fill="#10BAB2"/>
<path d="M185.159 152.66C185.16 152.975 185.128 153.29 185.065 153.6C184.204 153.966 183.278 154.155 182.343 154.155C181.408 154.155 180.483 153.966 179.622 153.6C179.559 153.29 179.527 152.975 179.527 152.66C179.527 151.018 180.36 149.631 181.508 149.168C181.05 148.974 180.672 148.628 180.44 148.187C180.207 147.747 180.134 147.239 180.232 146.75C180.33 146.261 180.594 145.822 180.979 145.506C181.364 145.19 181.846 145.018 182.343 145.018C182.84 145.018 183.322 145.19 183.707 145.506C184.092 145.822 184.356 146.261 184.454 146.75C184.552 147.239 184.479 147.747 184.246 148.187C184.014 148.628 183.636 148.974 183.178 149.168C184.326 149.631 185.159 151.018 185.159 152.66Z" fill="#10BAB2"/>
<path d="M185.159 180.611C185.16 180.926 185.128 181.242 185.065 181.551C184.204 181.917 183.278 182.106 182.343 182.106C181.408 182.106 180.483 181.917 179.622 181.551C179.559 181.242 179.527 180.926 179.527 180.611C179.527 178.97 180.36 177.582 181.508 177.119C181.05 176.926 180.672 176.579 180.44 176.138C180.207 175.698 180.134 175.19 180.232 174.701C180.33 174.212 180.594 173.773 180.979 173.457C181.364 173.141 181.846 172.969 182.343 172.969C182.84 172.969 183.322 173.141 183.707 173.457C184.092 173.773 184.356 174.212 184.454 174.701C184.552 175.19 184.479 175.698 184.246 176.138C184.014 176.579 183.636 176.926 183.178 177.119C184.326 177.582 185.159 178.969 185.159 180.611Z" fill="#10BAB2"/>
<path d="M170.692 190.189C173.581 190.189 175.922 187.841 175.922 184.944C175.922 182.047 173.581 179.698 170.692 179.698C167.803 179.698 165.461 182.047 165.461 184.944C165.461 187.841 167.803 190.189 170.692 190.189Z" fill="#FFB8B8"/>
</g>
<defs>
<clipPath id="clip0_218_10150">
<rect width="265" height="233" fill="white"/>
</clipPath>
</defs>
</svg>
