<svg width="54" height="54" viewBox="0 0 54 54" fill="none" xmlns="http://www.w3.org/2000/svg">
<path fill-rule="evenodd" clip-rule="evenodd" d="M43.5187 6.53393C43.8794 6.87465 44.0481 7.37836 43.9673 7.87379L43.0455 13.534C43.0504 13.5545 43.0553 13.576 43.0605 13.5984C43.1151 13.8336 43.1925 14.1743 43.2851 14.601C43.4703 15.4538 43.7169 16.6528 43.9636 18.0415C44.4536 20.8 44.9578 24.3814 44.9578 27.4972C44.9578 30.6129 44.4536 34.1944 43.9636 36.9529C43.7169 38.3415 43.4703 39.5406 43.2851 40.3933C43.1925 40.8201 43.1151 41.1606 43.0605 41.3959C43.0574 41.4096 43.0543 41.4229 43.0512 41.4358L43.9588 46.0798C44.0568 46.5807 43.897 47.0981 43.5359 47.4506C43.1746 47.803 42.6621 47.9417 42.1779 47.8177L38.7066 46.9296L36.1967 47.7858C35.8978 47.8877 35.5747 47.8877 35.2757 47.7858L32.8242 46.9495L30.3726 47.7858C30.0736 47.8877 29.7506 47.8877 29.4516 47.7858L27 46.9495L24.5484 47.7858C24.2706 47.8805 23.9714 47.8875 23.6897 47.8054L20.6759 46.9284L17.6949 47.8044C17.4122 47.8875 17.1116 47.8809 16.8326 47.7858L14.381 46.9495L11.9294 47.7858C11.437 47.9538 10.8944 47.8408 10.5053 47.4893C10.1162 47.1376 9.93936 46.6008 10.0411 46.0798L10.9487 41.4358C10.9457 41.4229 10.9427 41.4096 10.9395 41.3959C10.885 41.1606 10.8076 40.8201 10.7149 40.3933C10.5297 39.5406 10.2831 38.3415 10.0364 36.9529C9.54631 34.1944 9.04219 30.6129 9.04219 27.4972C9.04219 24.3814 9.54631 20.8 10.0364 18.0415C10.2831 16.6528 10.5297 15.4538 10.7149 14.601C10.8076 14.1743 10.885 13.8336 10.9395 13.5984C10.9447 13.576 10.9497 13.5545 10.9545 13.534L10.0327 7.87379C9.94874 7.35829 10.1348 6.83545 10.523 6.49594C10.9113 6.15645 11.4449 6.0499 11.9294 6.21516L14.381 7.0515L16.8326 6.21516C17.1116 6.11999 17.4122 6.1135 17.6949 6.19657L20.6759 7.07248L23.6897 6.19551C23.9714 6.11356 24.2706 6.12041 24.5484 6.21516L27 7.0515L29.4516 6.21516C29.7506 6.1132 30.0736 6.1132 30.3726 6.21516L32.8242 7.0515L35.2757 6.21516C35.5747 6.1132 35.8978 6.1132 36.1967 6.21516L38.7066 7.07137L42.1779 6.18319C42.6542 6.06136 43.1581 6.19323 43.5187 6.53393ZM13.6731 12.0992H40.327L40.7297 9.62569L39.0014 10.0679C38.7328 10.1366 38.4505 10.1255 38.1878 10.0359L35.7362 9.19955L33.2847 10.0359C32.9857 10.1379 32.6626 10.1379 32.3637 10.0359L29.9121 9.19955L27.4605 10.0359C27.1615 10.1379 26.8385 10.1379 26.5395 10.0359L24.0538 9.18793L21.0722 10.0556C20.8107 10.1317 20.5335 10.1313 20.2722 10.0545L17.3252 9.18858L14.8414 10.0359C14.5426 10.1379 14.2194 10.1379 13.9206 10.0359L13.3027 9.82513L13.6731 12.0992ZM13.5943 15.0795C13.5824 15.1338 13.5702 15.1898 13.5576 15.2475C13.3788 16.0711 13.1401 17.2315 12.9015 18.5746C12.4208 21.28 11.9543 24.6524 11.9543 27.4972C11.9543 30.3419 12.4208 33.7144 12.9015 36.4197C13.1401 37.763 13.3788 38.9233 13.5576 39.7468C13.5702 39.8046 13.5824 39.8607 13.5943 39.9149H40.4057C40.4177 39.8607 40.4299 39.8046 40.4423 39.7468C40.6211 38.9233 40.8599 37.763 41.0985 36.4197C41.5792 33.7144 42.0457 30.3419 42.0457 27.4972C42.0457 24.6524 41.5792 21.28 41.0985 18.5746C40.8599 17.2315 40.6211 16.0711 40.4423 15.2475C40.4299 15.1898 40.4177 15.1338 40.4057 15.0795H13.5943ZM13.6333 42.8951L13.3887 44.1465L13.9206 43.9651C14.2194 43.8631 14.5426 43.8631 14.8414 43.9651L17.3252 44.8125L20.2722 43.9464C20.5335 43.8697 20.8107 43.8693 21.0722 43.9454L24.0538 44.813L26.5395 43.9651C26.8385 43.8631 27.1615 43.8631 27.4605 43.9651L29.9121 44.8013L32.3637 43.9651C32.6626 43.8631 32.9857 43.8631 33.2847 43.9651L35.7362 44.8013L38.1878 43.9651C38.4505 43.8755 38.7328 43.8643 39.0014 43.9331L40.652 44.3555L40.3666 42.8951H13.6333Z" fill="#08908C"/>
<path d="M27.6011 31V29.376H23.4011V28.27L27.8671 21.382H29.2251V27.934H30.5551V29.376H29.2251V31H27.6011ZM25.2911 27.976H27.6571V24.126L25.2911 27.976Z" fill="#08908C"/>
</svg>
