<svg width="60" height="60" viewBox="0 0 60 60" fill="none" xmlns="http://www.w3.org/2000/svg">
<path d="M30 37.5C39.665 37.5 47.5 29.665 47.5 20C47.5 10.335 39.665 2.5 30 2.5C20.335 2.5 12.5 10.335 12.5 20C12.5 29.665 20.335 37.5 30 37.5Z" stroke="#08908C" stroke-width="4" stroke-linecap="round" stroke-linejoin="round"/>
<path d="M20.525 34.7252L17.5 57.5002L30 50.0002L42.5 57.5002L39.475 34.7002" stroke="#08908C" stroke-width="4" stroke-linecap="round" stroke-linejoin="round"/>
<path d="M30.74 13.1C32.18 13.1 33.3667 13.6133 34.3 14.64C35.2333 15.6533 35.7 16.98 35.7 18.62C35.7 20.86 35.02 22.8 33.66 24.44C32.3 26.0667 30.5333 27.0867 28.36 27.5L27.56 25.3C30.1333 24.5933 31.8067 23.3133 32.58 21.46L32.56 21.44C31.7867 21.8667 30.9333 22.08 30 22.08C28.8133 22.08 27.82 21.6867 27.02 20.9C26.22 20.1133 25.82 19.04 25.82 17.68C25.82 16.3333 26.2867 15.2333 27.22 14.38C28.1533 13.5267 29.3267 13.1 30.74 13.1ZM28.48 17.72C28.48 18.3333 28.68 18.8333 29.08 19.22C29.48 19.6067 30.0267 19.8 30.72 19.8C31.64 19.8 32.4333 19.3933 33.1 18.58V18.4C33.1 17.5467 32.88 16.86 32.44 16.34C32 15.82 31.4467 15.56 30.78 15.56C30.1 15.56 29.5467 15.7733 29.12 16.2C28.6933 16.6133 28.48 17.12 28.48 17.72Z" fill="#08908C"/>
</svg>
