<svg width="60" height="60" viewBox="0 0 60 60" fill="none" xmlns="http://www.w3.org/2000/svg">
<path d="M30 37.5C39.665 37.5 47.5 29.665 47.5 20C47.5 10.335 39.665 2.5 30 2.5C20.335 2.5 12.5 10.335 12.5 20C12.5 29.665 20.335 37.5 30 37.5Z" stroke="#08908C" stroke-width="4" stroke-linecap="round" stroke-linejoin="round"/>
<path d="M20.525 34.7252L17.5 57.5002L30 50.0002L42.5 57.5002L39.475 34.7002" stroke="#08908C" stroke-width="4" stroke-linecap="round" stroke-linejoin="round"/>
<path d="M30.62 18.2C31.82 18.2 32.82 18.5933 33.62 19.38C34.4333 20.1667 34.84 21.2467 34.84 22.62C34.84 23.9533 34.3667 25.0467 33.42 25.9C32.4867 26.74 31.3067 27.16 29.88 27.16C28.4533 27.16 27.2733 26.6533 26.34 25.64C25.4067 24.6133 24.94 23.2867 24.94 21.66C24.94 19.4333 25.6067 17.5 26.94 15.86C28.2867 14.22 30.04 13.2 32.2 12.8L32.98 14.98C30.4333 15.7 28.7933 16.98 28.06 18.82L28.08 18.84C28.8267 18.4133 29.6733 18.2 30.62 18.2ZM29.96 24.72C30.6 24.72 31.1267 24.5133 31.54 24.1C31.9667 23.6733 32.18 23.16 32.18 22.56C32.18 21.9467 31.9733 21.4467 31.56 21.06C31.1467 20.6733 30.6 20.48 29.92 20.48C29 20.48 28.2067 20.8867 27.54 21.7V21.9C27.54 22.74 27.7733 23.42 28.24 23.94C28.7067 24.46 29.28 24.72 29.96 24.72Z" fill="#08908C"/>
</svg>
