<svg width="60" height="60" viewBox="0 0 60 60" fill="none" xmlns="http://www.w3.org/2000/svg">
<path d="M30 37.5C39.665 37.5 47.5 29.665 47.5 20C47.5 10.335 39.665 2.5 30 2.5C20.335 2.5 12.5 10.335 12.5 20C12.5 29.665 20.335 37.5 30 37.5Z" stroke="#08908C" stroke-width="4" stroke-linecap="round" stroke-linejoin="round"/>
<path d="M20.525 34.7252L17.5 57.5002L30 50.0002L42.5 57.5002L39.475 34.7002" stroke="#08908C" stroke-width="4" stroke-linecap="round" stroke-linejoin="round"/>
<path d="M29.72 24.52H34.74V27H25.78L25.74 25.22L30.02 20.7C30.6467 20.02 31.1067 19.44 31.4 18.96C31.7067 18.48 31.86 17.9867 31.86 17.48C31.86 16.9467 31.6867 16.5067 31.34 16.16C30.9933 15.8 30.5533 15.62 30.02 15.62C29.02 15.62 28.2267 16.1133 27.64 17.1L25.68 15.7C26.6267 13.9667 28.1467 13.1 30.24 13.1C31.44 13.1 32.4667 13.4733 33.32 14.22C34.1733 14.9667 34.6 15.9533 34.6 17.18C34.6 17.9933 34.4333 18.7467 34.1 19.44C33.78 20.12 33.1867 20.9067 32.32 21.8L29.72 24.48V24.52Z" fill="#08908C"/>
</svg>
