<svg width="60" height="60" viewBox="0 0 60 60" fill="none" xmlns="http://www.w3.org/2000/svg">
<path d="M30 37.5C39.665 37.5 47.5 29.665 47.5 20C47.5 10.335 39.665 2.5 30 2.5C20.335 2.5 12.5 10.335 12.5 20C12.5 29.665 20.335 37.5 30 37.5Z" stroke="#08908C" stroke-width="4" stroke-linecap="round" stroke-linejoin="round"/>
<path d="M20.525 34.7252L17.5 57.5002L30 50.0002L42.5 57.5002L39.475 34.7002" stroke="#08908C" stroke-width="4" stroke-linecap="round" stroke-linejoin="round"/>
<path d="M29.9 18.14C31.1 18.14 32.1133 18.5467 32.94 19.36C33.7667 20.1733 34.18 21.24 34.18 22.56C34.18 23.9067 33.7067 25.0133 32.76 25.88C31.8267 26.7333 30.66 27.16 29.26 27.16C27.2467 27.16 25.6667 26.44 24.52 25L26.48 23.42C27.12 24.26 28 24.68 29.12 24.68C29.7733 24.68 30.32 24.4733 30.76 24.06C31.2 23.6467 31.42 23.1333 31.42 22.52C31.42 21.84 31.18 21.3133 30.7 20.94C30.22 20.5533 29.6733 20.36 29.06 20.36C28.2733 20.36 27.5867 20.5933 27 21.06L25.56 20.52L25.98 13.26H33.48V15.74H28.34L28.18 18.44C28.82 18.24 29.3933 18.14 29.9 18.14Z" fill="#08908C"/>
</svg>
