<svg width="60" height="60" viewBox="0 0 60 60" fill="none" xmlns="http://www.w3.org/2000/svg">
<path d="M30 37.5C39.665 37.5 47.5 29.665 47.5 20C47.5 10.335 39.665 2.5 30 2.5C20.335 2.5 12.5 10.335 12.5 20C12.5 29.665 20.335 37.5 30 37.5Z" stroke="#08908C" stroke-width="4" stroke-linecap="round" stroke-linejoin="round"/>
<path d="M20.525 34.7252L17.5 57.5002L30 50.0002L42.5 57.5002L39.475 34.7002" stroke="#08908C" stroke-width="4" stroke-linecap="round" stroke-linejoin="round"/>
<path d="M32.8 19.9C34.2533 20.58 34.98 21.7 34.98 23.26C34.98 24.4333 34.54 25.38 33.66 26.1C32.7933 26.8067 31.6867 27.16 30.34 27.16C29.1533 27.16 28.12 26.88 27.24 26.32C26.36 25.76 25.7533 25.0333 25.42 24.14L27.78 23.16C28.1667 24.2 28.9533 24.72 30.14 24.72C30.7133 24.72 31.1933 24.5533 31.58 24.22C31.98 23.8867 32.18 23.44 32.18 22.88C32.18 22.36 31.98 21.9267 31.58 21.58C31.1933 21.2333 30.64 21.06 29.92 21.06H28.92V18.84H30.14C30.7267 18.84 31.1667 18.6933 31.46 18.4C31.7667 18.0933 31.92 17.7 31.92 17.22C31.92 16.7267 31.7467 16.3267 31.4 16.02C31.0533 15.7133 30.62 15.56 30.1 15.56C29.2067 15.56 28.54 15.94 28.1 16.7L25.92 15.54C26.2533 14.8067 26.7933 14.22 27.54 13.78C28.3 13.3267 29.1733 13.1 30.16 13.1C31.4267 13.1 32.48 13.4267 33.32 14.08C34.16 14.7333 34.58 15.6333 34.58 16.78C34.58 18.14 33.9867 19.1667 32.8 19.86V19.9Z" fill="#08908C"/>
</svg>
