<svg width="60" height="60" viewBox="0 0 60 60" fill="none" xmlns="http://www.w3.org/2000/svg">
<path d="M30 37.5C39.665 37.5 47.5 29.665 47.5 20C47.5 10.335 39.665 2.5 30 2.5C20.335 2.5 12.5 10.335 12.5 20C12.5 29.665 20.335 37.5 30 37.5Z" stroke="#08908C" stroke-width="4" stroke-linecap="round" stroke-linejoin="round"/>
<path d="M20.525 34.7252L17.5 57.5002L30 50.0002L42.5 57.5002L39.475 34.7002" stroke="#08908C" stroke-width="4" stroke-linecap="round" stroke-linejoin="round"/>
<path d="M33.28 19.58C34 19.8467 34.5867 20.2933 35.04 20.92C35.4933 21.5467 35.72 22.3067 35.72 23.2C35.72 24.4 35.2467 25.36 34.3 26.08C33.3533 26.8 32.16 27.16 30.72 27.16C29.28 27.16 28.0933 26.7933 27.16 26.06C26.2267 25.3267 25.76 24.3733 25.76 23.2C25.76 22.3067 25.98 21.5467 26.42 20.92C26.8733 20.2933 27.46 19.8467 28.18 19.58V19.54C27.7267 19.3533 27.3267 19 26.98 18.48C26.6333 17.9467 26.46 17.3467 26.46 16.68C26.46 15.56 26.86 14.6867 27.66 14.06C28.46 13.42 29.48 13.1 30.72 13.1C31.9867 13.1 33.0133 13.42 33.8 14.06C34.6 14.7 35 15.5733 35 16.68C35 17.3467 34.8267 17.9467 34.48 18.48C34.1467 19 33.7467 19.3533 33.28 19.54V19.58ZM31.98 15.8C31.6467 15.4933 31.2267 15.34 30.72 15.34C30.2133 15.34 29.7933 15.5 29.46 15.82C29.14 16.1267 28.98 16.5 28.98 16.94C28.98 17.3933 29.14 17.7667 29.46 18.06C29.7933 18.34 30.2133 18.48 30.72 18.48C31.24 18.48 31.66 18.34 31.98 18.06C32.3133 17.7667 32.48 17.3933 32.48 16.94C32.48 16.4867 32.3133 16.1067 31.98 15.8ZM30.72 24.84C31.3733 24.84 31.9067 24.6467 32.32 24.26C32.7333 23.8733 32.94 23.4 32.94 22.84C32.94 22.2533 32.7333 21.7733 32.32 21.4C31.9067 21.0267 31.3733 20.84 30.72 20.84C30.0667 20.84 29.5333 21.0267 29.12 21.4C28.7067 21.7733 28.5 22.2533 28.5 22.84C28.5 23.4133 28.7133 23.8933 29.14 24.28C29.5667 24.6533 30.0933 24.84 30.72 24.84Z" fill="#08908C"/>
</svg>
