<svg width="24" height="24" viewBox="0 0 24 24" fill="none" xmlns="http://www.w3.org/2000/svg">
<g id="glass">
<path id="Vector" d="M18.397 2.00103C18.4875 2.01124 18.5751 2.04088 18.6545 2.08819C18.7339 2.1355 18.8035 2.19949 18.8592 2.2763C18.9148 2.35311 18.9553 2.44116 18.9783 2.53513C19.0012 2.6291 19.006 2.72706 18.9925 2.82309L16.7368 19.4054C16.5364 20.8755 15.3334 22 13.9457 22H10.0478C8.66008 22 7.46306 20.8755 7.26265 19.4054L5.00691 2.82309C4.99317 2.72147 4.99998 2.61788 5.02686 2.51929C5.05374 2.4207 5.10009 2.3294 5.16277 2.25152C5.22545 2.17364 5.30303 2.111 5.39027 2.06779C5.47752 2.02459 5.57242 2.00182 5.66859 2.00103H18.3248C18.3489 1.99966 18.373 1.99966 18.397 2.00103ZM17.5489 3.43963H6.45058L8.59204 19.1999C8.69 19.9185 9.38555 20.5614 10.0478 20.5614H13.9457C14.6079 20.5614 15.3095 19.9185 15.4074 19.1999L16.5684 10.6518H8.61009C8.52084 10.6531 8.43224 10.6355 8.34943 10.5999C8.26663 10.5644 8.19127 10.5116 8.12772 10.4447C8.06418 10.3778 8.01373 10.298 7.97929 10.2101C7.94485 10.1222 7.92712 10.0278 7.92712 9.93255C7.92712 9.83726 7.94485 9.74292 7.97929 9.655C8.01373 9.56709 8.06418 9.48735 8.12772 9.42042C8.19127 9.3535 8.26663 9.30073 8.34943 9.26517C8.43224 9.2296 8.52084 9.21195 8.61009 9.21324H16.7669L17.5489 3.43963Z" fill="#08908C"/>
</g>
</svg>
