<svg width="24" height="24" viewBox="0 0 24 24" fill="none" xmlns="http://www.w3.org/2000/svg">
<g id="ph:drop">
<path id="Vector" d="M16.7045 4.26719C15.4403 2.73866 14.0205 1.35926 12.4705 0.153504C12.3321 0.053537 12.1681 0 12 0C11.8319 0 11.6679 0.053537 11.5295 0.153504C9.97948 1.35926 8.55971 2.73866 7.29545 4.26719C4.48295 7.64169 3 11.209 3 14.5728C3 17.0731 3.94821 19.4709 5.63604 21.2388C7.32387 23.0068 9.61305 24 12 24C14.3869 24 16.6761 23.0068 18.364 21.2388C20.0518 19.4709 21 17.0731 21 14.5728C21 11.209 19.517 7.64169 16.7045 4.26719ZM12 22.286C10.0479 22.2831 8.17647 21.4696 6.79611 20.0237C5.41575 18.5778 4.63907 16.6176 4.63636 14.5728C4.63636 8.44514 10.3125 3.32447 12 1.93181C13.6875 3.32447 19.3636 8.44514 19.3636 14.5728C19.3609 16.6176 18.5843 18.5778 17.2039 20.0237C15.8235 21.4696 13.9521 22.2831 12 22.286Z" fill="#08908C"/>
<path id="L" d="M10 15.0832C10 15.7804 10.3633 16 10.9178 16H14.1874C14.6367 16 15 15.7708 15 15.3411C15 14.9113 14.6367 14.6821 14.1874 14.6821H11.5679V9.78308C11.5679 9.31514 11.262 9 10.7839 9C10.3059 9 10 9.31514 10 9.78308V15.0832Z" fill="#08908C"/>
</g>
</svg>
