<svg width="24" height="24" viewBox="0 0 24 24" fill="none" xmlns="http://www.w3.org/2000/svg">
<path fill-rule="evenodd" clip-rule="evenodd" d="M20.7587 1.19894C20.9445 1.37043 21.0314 1.62395 20.9898 1.87331L20.515 4.72216C20.5175 4.73248 20.52 4.74329 20.5227 4.75459C20.5508 4.87298 20.5907 5.04445 20.6384 5.25919C20.7338 5.68842 20.8608 6.29188 20.9879 6.99085C21.2403 8.37922 21.5 10.1818 21.5 11.75C21.5 13.3182 21.2403 15.1208 20.9879 16.5092C20.8608 17.2081 20.7338 17.8116 20.6384 18.2408C20.5907 18.4556 20.5508 18.627 20.5227 18.7454C20.5211 18.7523 20.5195 18.759 20.5179 18.7655L20.9854 21.1029C21.0359 21.355 20.9536 21.6154 20.7676 21.7928C20.5815 21.9702 20.3175 22.04 20.0681 21.9776L18.28 21.5306L16.9872 21.9615C16.8332 22.0128 16.6668 22.0128 16.5128 21.9615L15.25 21.5406L13.9872 21.9615C13.8332 22.0128 13.6668 22.0128 13.5128 21.9615L12.25 21.5406L10.9872 21.9615C10.8441 22.0092 10.69 22.0127 10.5449 21.9714L8.99249 21.53L7.45697 21.9709C7.31138 22.0127 7.15653 22.0094 7.01283 21.9615L5.75 21.5406L4.48717 21.9615C4.23354 22.0461 3.95408 21.9892 3.75365 21.8123C3.55322 21.6353 3.46213 21.3651 3.51456 21.1029L3.98206 18.7655C3.98051 18.759 3.97892 18.7523 3.97729 18.7454C3.9492 18.627 3.90933 18.4556 3.86161 18.2408C3.76622 17.8116 3.63918 17.2081 3.5121 16.5092C3.25967 15.1208 3 13.3182 3 11.75C3 10.1818 3.25967 8.37922 3.5121 6.99085C3.63918 6.29188 3.76622 5.68842 3.86161 5.25919C3.90933 5.04445 3.9492 4.87298 3.97729 4.75459C3.97997 4.74329 3.98255 4.73248 3.98501 4.72215L3.5102 1.87331C3.46696 1.61385 3.5628 1.3507 3.76278 1.17982C3.96275 1.00895 4.23763 0.955318 4.48717 1.0385L5.75 1.45944L7.01283 1.0385C7.15653 0.990598 7.31138 0.987329 7.45697 1.02914L8.99249 1.47L10.5449 1.02861C10.69 0.987359 10.8441 0.990808 10.9872 1.0385L12.25 1.45944L13.5128 1.0385C13.6668 0.987178 13.8332 0.987178 13.9872 1.0385L15.25 1.45944L16.5128 1.0385C16.6668 0.987178 16.8332 0.987178 16.9872 1.0385L18.28 1.46944L20.0681 1.02241C20.3134 0.961089 20.573 1.02746 20.7587 1.19894ZM5.38535 4.00001H19.1147L19.3221 2.75506L18.4319 2.97762C18.2935 3.01221 18.1481 3.00663 18.0128 2.96152L16.75 2.54058L15.4872 2.96152C15.3332 3.01284 15.1668 3.01284 15.0128 2.96152L13.75 2.54058L12.4872 2.96152C12.3332 3.01284 12.1668 3.01284 12.0128 2.96152L10.7324 2.53473L9.19661 2.97142C9.06189 3.00972 8.91914 3.00954 8.78452 2.97089L7.26655 2.53506L5.98717 2.96152C5.83322 3.01284 5.66678 3.01284 5.51283 2.96152L5.19458 2.85544L5.38535 4.00001ZM5.34478 5.50001C5.33864 5.52735 5.33234 5.55555 5.32589 5.58459C5.23378 5.9991 5.11082 6.58314 4.9879 7.25918C4.74033 8.6208 4.5 10.3182 4.5 11.75C4.5 13.1818 4.74033 14.8792 4.9879 16.2408C5.11082 16.9169 5.23378 17.5009 5.32589 17.9154C5.33234 17.9445 5.33864 17.9727 5.34478 18H19.1552C19.1614 17.9727 19.1677 17.9445 19.1741 17.9154C19.2662 17.5009 19.3892 16.9169 19.5121 16.2408C19.7597 14.8792 20 13.1818 20 11.75C20 10.3182 19.7597 8.6208 19.5121 7.25918C19.3892 6.58314 19.2662 5.9991 19.1741 5.58459C19.1677 5.55555 19.1614 5.52735 19.1552 5.50001H5.34478ZM5.36485 19.5L5.23889 20.1298L5.51283 20.0385C5.66678 19.9872 5.83322 19.9872 5.98717 20.0385L7.26655 20.465L8.78452 20.0291C8.91914 19.9905 9.06189 19.9903 9.19661 20.0286L10.7324 20.4653L12.0128 20.0385C12.1668 19.9872 12.3332 19.9872 12.4872 20.0385L13.75 20.4594L15.0128 20.0385C15.1668 19.9872 15.3332 19.9872 15.4872 20.0385L16.75 20.4594L18.0128 20.0385C18.1481 19.9934 18.2935 19.9878 18.4319 20.0224L19.2821 20.235L19.1351 19.5H5.36485Z" fill="#08908C"/>
<path d="M10.1219 10.5649C10.1219 10.3029 10.0524 10.116 9.91339 10.0044C9.77667 9.89274 9.58413 9.83691 9.33575 9.83691H8.3548V11.3203H9.33575C9.58413 11.3203 9.77667 11.2599 9.91339 11.1392C10.0524 11.0184 10.1219 10.827 10.1219 10.5649ZM11.1644 10.5581C11.1644 11.1528 11.014 11.5732 10.7132 11.8193C10.4124 12.0654 9.98289 12.1885 9.42462 12.1885H8.3548V14H7.3089V8.96191H9.50323C10.0091 8.96191 10.4124 9.0918 10.7132 9.35156C11.014 9.61133 11.1644 10.0135 11.1644 10.5581ZM11.8651 8.979H12.8221V11.6929L14.0355 10.2915H15.242L13.9398 11.7168L15.2933 14H14.1175L13.2254 12.4072L12.8221 12.8276V14H11.8651V8.979ZM15.389 11.0024V10.3086H15.9085V9.26953H16.8724V10.3086H17.4774V11.0024H16.8724V12.9712C16.8724 13.1239 16.8917 13.2196 16.9305 13.2583C16.9692 13.2948 17.0877 13.313 17.2859 13.313C17.3156 13.313 17.3463 13.313 17.3782 13.313C17.4124 13.3107 17.4455 13.3084 17.4774 13.3062V14.0342L17.0159 14.0513C16.5556 14.0672 16.2412 13.9875 16.0726 13.812C15.9632 13.7004 15.9085 13.5283 15.9085 13.2959V11.0024H15.389Z" fill="#08908C"/>
</svg>
