<svg width="24" height="24" viewBox="0 0 24 24" fill="none" xmlns="http://www.w3.org/2000/svg">
<g id="Pcs" clip-path="url(#clip0_398_2118)">
<g id="Group">
<path id="Vector" d="M12.0002 0C5.39733 0 0 5.39733 0 12.0002C0 18.6031 5.37003 24.0005 12.0002 24.0005C18.6027 24.0005 24 18.6031 24 12.0002C24 5.39733 18.6027 0 12.0002 0ZM12.0002 22.9041C6.00011 22.9041 1.09637 17.9999 1.09637 12.0002C1.09637 6.00055 5.97282 1.09637 12.0002 1.09637C18.0003 1.09637 22.9041 6.00055 22.9041 12.0002C22.9041 17.9999 17.9999 22.9041 12.0002 22.9041Z" fill="#08908C"/>
<path id="Vector_2" d="M12.0002 3.17773C7.12335 3.17773 3.17816 7.12301 3.17816 11.9998C3.17816 16.8766 7.15078 20.8219 12.0002 20.8219C16.8767 20.8219 20.8223 16.8766 20.8223 11.9998C20.8223 7.12301 16.877 3.17773 12.0002 3.17773ZM12.0002 19.9448C7.61672 19.9448 4.05482 16.3831 4.05482 11.9994C4.05482 7.61567 7.61654 4.05395 12.0002 4.05395C16.3837 4.05395 19.9456 7.61567 19.9456 11.9994C19.9455 16.3829 16.3839 19.9448 12.0002 19.9448Z" fill="#08908C"/>
<g id="Pcs_2">
<path d="M7.13354 13.8959C7.13354 14.1891 7.32505 14.3866 7.62427 14.3866C7.92349 14.3866 8.11499 14.1891 8.11499 13.8959V12.7289H9.20416C10.1557 12.7289 10.7003 12.1484 10.7003 11.3644C10.7003 10.4069 10.036 10 9.21014 10H7.70805C7.36095 10 7.13354 10.1376 7.13354 10.5745V13.8959ZM8.11499 10.754H8.92887C9.41361 10.754 9.71882 10.9336 9.71882 11.3644C9.71882 11.7355 9.42558 11.9749 9.03061 11.9749H8.11499V10.754Z" fill="#08908C"/>
<path d="M11.0719 12.8067C11.0719 13.7223 11.5806 14.3866 12.6578 14.3866C13.5554 14.3866 13.9863 13.86 13.9863 13.477C13.9863 13.3034 13.8427 13.1418 13.6213 13.1418C13.1605 13.1418 13.2921 13.7044 12.6817 13.7044C12.203 13.7044 11.9456 13.3513 11.9456 12.8067C11.9456 12.0168 12.3466 11.7834 12.6877 11.7834C13.3161 11.7834 13.1665 12.298 13.5794 12.298C13.8008 12.298 13.9863 12.1723 13.9863 11.921C13.9863 11.5141 13.4417 11.1011 12.7116 11.1011C11.6404 11.1011 11.0719 11.8013 11.0719 12.8067Z" fill="#08908C"/>
<path d="M14.3161 12.0766C14.3161 12.6631 14.7111 12.8725 15.2198 12.9982L15.7344 13.1239C16.0456 13.2017 16.2371 13.2376 16.2371 13.459C16.2371 13.6385 16.0396 13.7762 15.7284 13.7762C15.0821 13.7762 15.0462 13.2376 14.6692 13.2376C14.4238 13.2376 14.3161 13.4111 14.3161 13.6026C14.3161 14.0335 14.9744 14.3866 15.7643 14.3866C16.4226 14.3866 17.1108 14.0574 17.1108 13.3453C17.1108 12.7349 16.5184 12.5254 16.0217 12.4117L15.6566 12.3279C15.3873 12.2681 15.1898 12.2202 15.1898 12.0168C15.1898 11.8312 15.3873 11.7475 15.6925 11.7475C16.2431 11.7475 16.2551 12.1484 16.5962 12.1484C16.8236 12.1484 16.9612 11.9689 16.9612 11.7654C16.9612 11.3644 16.291 11.1011 15.6267 11.1011C15.0223 11.1011 14.3161 11.3644 14.3161 12.0766Z" fill="#08908C"/>
</g>
</g>
</g>
<defs>
<clipPath id="clip0_398_2118">
<rect width="24" height="24" fill="white"/>
</clipPath>
</defs>
</svg>
