<svg width="24" height="24" viewBox="0 0 24 24" fill="none" xmlns="http://www.w3.org/2000/svg">
<g clip-path="url(#clip0_398_2118)">
<path d="M12.0002 0C5.39733 0 0 5.39733 0 12.0002C0 18.6031 5.37003 24.0005 12.0002 24.0005C18.6027 24.0005 24 18.6031 24 12.0002C24 5.39733 18.6027 0 12.0002 0ZM12.0002 22.9041C6.00011 22.9041 1.09637 17.9999 1.09637 12.0002C1.09637 6.00055 5.97282 1.09637 12.0002 1.09637C18.0003 1.09637 22.9041 6.00055 22.9041 12.0002C22.9041 17.9999 17.9999 22.9041 12.0002 22.9041Z" fill="#08908C"/>
<path d="M12.0002 3.17773C7.12335 3.17773 3.17816 7.12301 3.17816 11.9998C3.17816 16.8766 7.15078 20.8219 12.0002 20.8219C16.8767 20.8219 20.8223 16.8766 20.8223 11.9998C20.8223 7.12301 16.877 3.17773 12.0002 3.17773ZM12.0002 19.9448C7.61672 19.9448 4.05482 16.3831 4.05482 11.9994C4.05482 7.61567 7.61654 4.05395 12.0002 4.05395C16.3837 4.05395 19.9456 7.61567 19.9456 11.9994C19.9455 16.3829 16.3839 19.9448 12.0002 19.9448Z" fill="#08908C"/>
<path d="M7.95947 14.5V9.53H9.80047C10.3791 9.53 10.8108 9.68167 11.0955 9.985C11.3848 10.2837 11.5295 10.6827 11.5295 11.182C11.5295 11.714 11.3661 12.1177 11.0395 12.393C10.7175 12.6637 10.2741 12.799 9.70947 12.799H8.93247V14.5H7.95947ZM8.93247 11.924H9.58347C9.8868 11.924 10.1155 11.8563 10.2695 11.721C10.4281 11.5857 10.5075 11.399 10.5075 11.161C10.5075 10.9277 10.4305 10.7433 10.2765 10.608C10.1225 10.4727 9.90547 10.405 9.62547 10.405H8.93247V11.924ZM12.4256 14.5V9.348H13.3426V14.5H12.4256ZM15.5017 14.556C15.1984 14.556 14.9604 14.4603 14.7877 14.269C14.615 14.0777 14.5287 13.7953 14.5287 13.422V11.84H14.1227V11.084H14.5287V9.964L15.4387 9.866V11.084H16.3697V11.84H15.4387V13.296C15.4387 13.5853 15.539 13.73 15.7397 13.73C15.8704 13.73 16.015 13.6903 16.1737 13.611L16.4117 14.346C16.1504 14.486 15.847 14.556 15.5017 14.556Z" fill="#08908C"/>
</g>
<defs>
<clipPath id="clip0_398_2118">
<rect width="24" height="24" fill="white"/>
</clipPath>
</defs>
</svg>
