<svg width="48" height="48" viewBox="0 0 48 48" fill="none" xmlns="http://www.w3.org/2000/svg">
<rect width="48" height="48" rx="24" fill="white"/>
<rect width="48" height="48" rx="24" fill="#10BAB2" fill-opacity="0.2"/>
<g clip-path="url(#clip0_36_60)">
<path d="M33 18H30C30 16.4087 29.3679 14.8826 28.2426 13.7574C27.1174 12.6321 25.5913 12 24 12C22.4087 12 20.8826 12.6321 19.7574 13.7574C18.6321 14.8826 18 16.4087 18 18H15C14.2044 18 13.4413 18.3161 12.8787 18.8787C12.3161 19.4413 12 20.2044 12 21V31C12.0016 32.3256 12.5289 33.5964 13.4662 34.5338C14.4036 35.4711 15.6744 35.9984 17 36H31C32.3256 35.9984 33.5964 35.4711 34.5338 34.5338C35.4711 33.5964 35.9984 32.3256 36 31V21C36 20.2044 35.6839 19.4413 35.1213 18.8787C34.5587 18.3161 33.7956 18 33 18ZM24 14C25.0609 14 26.0783 14.4214 26.8284 15.1716C27.5786 15.9217 28 16.9391 28 18H20C20 16.9391 20.4214 15.9217 21.1716 15.1716C21.9217 14.4214 22.9391 14 24 14ZM34 31C34 31.7956 33.6839 32.5587 33.1213 33.1213C32.5587 33.6839 31.7956 34 31 34H17C16.2044 34 15.4413 33.6839 14.8787 33.1213C14.3161 32.5587 14 31.7956 14 31V21C14 20.7348 14.1054 20.4804 14.2929 20.2929C14.4804 20.1054 14.7348 20 15 20H18V22C18 22.2652 18.1054 22.5196 18.2929 22.7071C18.4804 22.8946 18.7348 23 19 23C19.2652 23 19.5196 22.8946 19.7071 22.7071C19.8946 22.5196 20 22.2652 20 22V20H28V22C28 22.2652 28.1054 22.5196 28.2929 22.7071C28.4804 22.8946 28.7348 23 29 23C29.2652 23 29.5196 22.8946 29.7071 22.7071C29.8946 22.5196 30 22.2652 30 22V20H33C33.2652 20 33.5196 20.1054 33.7071 20.2929C33.8946 20.4804 34 20.7348 34 21V31Z" fill="#10BAB2"/>
</g>
<defs>
<clipPath id="clip0_36_60">
<rect width="24" height="24" fill="white" transform="translate(12 12)"/>
</clipPath>
</defs>
</svg>
