<svg width="48" height="48" viewBox="0 0 48 48" fill="none" xmlns="http://www.w3.org/2000/svg">
<rect width="48" height="48" rx="24" fill="white"/>
<rect width="48" height="48" rx="24" fill="#10BAB2" fill-opacity="0.2"/>
<g clip-path="url(#clip0_36_73)">
<path d="M23.5312 12.0281C22.4062 12.2344 21.5063 12.8906 21.0234 13.8656C20.7891 14.3438 20.7 14.7188 20.7 15.2578C20.6953 15.9 20.7844 16.2844 21.0422 16.8047L21.2625 17.2453L19.6219 17.2594C17.9906 17.2781 17.9719 17.2781 17.5641 17.4047C15.9422 17.9062 14.85 19.1109 14.4891 20.7891C14.4609 20.9156 14.0438 23.25 13.5609 25.9688L12.6844 30.9141L12.6797 31.6641C12.6797 32.3109 12.6938 32.4656 12.7875 32.7891C13.0031 33.5344 13.4016 34.2047 13.9734 34.7766C14.4609 35.2594 15.1828 35.6625 15.9375 35.8687L16.3359 35.9766H24H31.6641L32.0625 35.8687C32.8172 35.6625 33.5391 35.2594 34.0266 34.7766C34.5984 34.2047 34.9969 33.5344 35.2125 32.7891C35.3063 32.4656 35.3203 32.3109 35.3203 31.6641L35.3156 30.9141L34.4391 25.9688C33.9563 23.25 33.5391 20.9156 33.5109 20.7891C33.15 19.1109 32.0578 17.9062 30.4359 17.4047C30.0281 17.2781 30.0094 17.2781 28.3969 17.2594C27.4969 17.25 26.7656 17.2312 26.7656 17.2125C26.7656 17.1937 26.8594 16.9969 26.9719 16.7719C27.2156 16.2797 27.3047 15.8859 27.3 15.2578C27.2953 13.8187 26.3531 12.5812 24.9141 12.1312C24.6375 12.0469 23.7844 11.9812 23.5312 12.0281ZM24.6281 13.5328C26.0859 14.0437 26.3438 16.0406 25.0594 16.8937C23.6813 17.8078 21.8766 16.6594 22.1297 15.0328C22.2516 14.2547 22.8938 13.5891 23.6578 13.4531C23.9297 13.4062 24.375 13.4391 24.6281 13.5328ZM29.8734 18.7312C30.5297 18.8766 31.2469 19.35 31.6031 19.8656C31.7906 20.1375 31.9922 20.5547 32.0625 20.8078C32.0906 20.9156 32.5266 23.3297 33.0281 26.1703C33.9844 31.5984 34.0078 31.7672 33.8672 32.3203C33.5719 33.4922 32.6344 34.35 31.4484 34.5422C31.0312 34.6125 16.9688 34.6125 16.5516 34.5422C15.8859 34.4391 15.3938 34.1812 14.9016 33.6937C14.3813 33.1734 14.0625 32.4187 14.0625 31.6875C14.0625 31.4391 14.325 29.8359 14.9719 26.1703C15.4734 23.3297 15.9094 20.9156 15.9375 20.8078C16.1391 20.0625 16.6969 19.3781 17.3953 19.0078C18.0844 18.6422 17.7234 18.6656 23.9672 18.6609C28.9266 18.6562 29.5734 18.6656 29.8734 18.7312Z" fill="#10BAB2"/>
<path d="M19.4063 23.6859C19.0172 23.8922 19.0313 23.7797 19.0313 26.6297V29.1422L19.1391 29.2969C19.3078 29.55 19.4578 29.6344 19.7344 29.6344C19.9969 29.6344 20.1422 29.5594 20.3156 29.325C20.4047 29.2078 20.4141 29.1094 20.4375 28.3031L20.4609 27.4078L21.4688 28.4484C22.0219 29.025 22.5375 29.5266 22.6172 29.5641C22.9406 29.7328 23.4 29.5922 23.55 29.2781C23.6484 29.0672 23.6438 28.7438 23.5406 28.5891C23.4984 28.5234 23.0719 28.0641 22.5938 27.5672C22.1156 27.075 21.7219 26.6484 21.7125 26.625C21.7031 26.6016 22.0922 26.1797 22.5703 25.6875C23.0484 25.1906 23.4844 24.7219 23.5359 24.6422C23.7797 24.2391 23.5313 23.6813 23.0766 23.5969C22.7203 23.5313 22.6219 23.6016 21.4969 24.7641L20.4375 25.8516V24.9938C20.4375 23.9813 20.3953 23.8453 20.0484 23.6766C19.7906 23.55 19.6547 23.5547 19.4063 23.6859Z" fill="#10BAB2"/>
<path d="M26.1844 23.6528C25.4203 23.8356 24.8203 24.3935 24.5531 25.1669C24.4547 25.4575 24.4453 25.5513 24.4453 26.6013C24.4453 27.5481 24.4594 27.7685 24.5297 27.9935C24.975 29.4372 26.5875 30.0747 27.8766 29.32C28.1719 29.1419 28.5281 28.7622 28.6828 28.4575C28.9219 27.9888 28.9781 27.7122 28.9594 27.1028C28.9453 26.6247 28.9312 26.5356 28.8422 26.4091C28.65 26.1419 28.4906 26.0997 27.6797 26.1185C27.0375 26.1325 26.9437 26.1419 26.8312 26.231C26.5031 26.4747 26.4141 26.7794 26.5734 27.1028C26.7141 27.3888 26.8687 27.4872 27.2203 27.506C27.5437 27.5294 27.5672 27.5575 27.4453 27.7966C27.1641 28.3403 26.3016 28.3544 25.9922 27.8247C25.875 27.6278 25.875 27.6044 25.875 26.6294C25.875 25.5138 25.8984 25.406 26.1844 25.1856C26.5547 24.9091 26.9391 24.9513 27.3562 25.3122C27.6375 25.5606 27.825 25.6263 28.1016 25.5747C28.3172 25.5325 28.5797 25.27 28.6219 25.0544C28.6781 24.7403 28.6078 24.5669 28.2937 24.2575C27.7219 23.681 26.9625 23.4653 26.1844 23.6528Z" fill="#10BAB2"/>
</g>
<defs>
<clipPath id="clip0_36_73">
<rect width="24" height="24" fill="white" transform="translate(12 12)"/>
</clipPath>
</defs>
</svg>
