<svg width="16" height="21" viewBox="0 0 16 21" fill="none" xmlns="http://www.w3.org/2000/svg">
<path d="M15.2689 16.4614L14.434 12.6558C14.323 12.278 14.1358 11.9272 13.884 11.6253C13.6322 11.3234 13.3213 11.0769 12.9707 10.9011L10.8957 9.83802C10.8924 9.83308 10.8913 9.82739 10.8877 9.82244L10.1078 8.77069C10.077 8.73009 10.0383 8.69632 9.99394 8.6715C9.9496 8.64669 9.90064 8.63136 9.85013 8.62649C9.79962 8.62162 9.74865 8.62731 9.70043 8.6432C9.65221 8.65909 9.60778 8.68483 9.56993 8.71882L9.55899 8.7289L9.54332 8.62607C10.1765 8.20557 10.6818 7.61721 11.0034 6.926C11.2746 6.92934 11.5405 6.85091 11.767 6.70082C11.9934 6.55074 12.17 6.33587 12.2739 6.08393C12.4813 5.60993 12.4744 5.15737 12.252 4.80966C12.0918 4.56623 11.8454 4.39333 11.5629 4.32612C11.5604 4.23905 11.5609 4.15107 11.556 4.06419C11.4208 1.70113 10.7956 0.333008 8.00033 0.333008C5.20504 0.333008 4.57989 1.70113 4.44466 4.06437C4.43956 4.15144 4.44028 4.23924 4.43773 4.32649C4.15527 4.39362 3.90885 4.56646 3.74862 4.80984C3.52699 5.1581 3.51934 5.60993 3.72674 6.08411C3.83078 6.33585 4.00737 6.55051 4.23378 6.70042C4.46018 6.85033 4.72603 6.92864 4.99708 6.92526C5.31864 7.61648 5.82394 8.20484 6.45715 8.62534L6.44147 8.72816L6.43054 8.71808C6.39237 8.68478 6.34787 8.65962 6.29974 8.64414C6.25161 8.62866 6.20086 8.62318 6.15056 8.62803C6.10026 8.63288 6.05146 8.64797 6.00714 8.67236C5.96281 8.69676 5.92387 8.72996 5.8927 8.76996L5.11282 9.82171C5.10935 9.82648 5.10808 9.83234 5.1048 9.83711L3.02979 10.9002C2.67689 11.0777 2.36433 11.3266 2.1118 11.6315C1.85926 11.9363 1.67221 12.2905 1.56243 12.6716L0.731703 16.4614C0.626648 16.9436 0.649827 17.4451 0.798903 17.9154C0.947979 18.3858 1.21768 18.8082 1.58084 19.1403L3.51514 20.9045C3.58258 20.9651 3.66966 20.999 3.7601 20.9997H12.2407C12.3309 20.9976 12.4174 20.964 12.4855 20.9045L14.4198 19.1403C14.783 18.8082 15.0527 18.3858 15.2017 17.9154C15.3508 17.4451 15.374 16.9436 15.2689 16.4614ZM11.5265 5.10128C11.5708 5.12762 11.609 5.16325 11.6384 5.20576C11.68 5.29836 11.6989 5.3997 11.6934 5.50119C11.6879 5.60268 11.6581 5.70134 11.6067 5.78882C11.5531 5.9278 11.4513 6.04259 11.3202 6.11198C11.4187 5.78193 11.4877 5.44368 11.5265 5.10128ZM4.39399 5.78882C4.34253 5.70134 4.31277 5.60268 4.30725 5.50119C4.30173 5.3997 4.32061 5.29836 4.36228 5.20576C4.39167 5.16334 4.42985 5.12782 4.47418 5.10165C4.51292 5.44399 4.58197 5.78217 4.6805 6.11216C4.54928 6.04274 4.44751 5.92788 4.39399 5.78882ZM3.3954 19.8057L2.07057 18.5972C1.80241 18.352 1.60326 18.0401 1.49319 17.6928C1.38311 17.3456 1.36601 16.9753 1.4436 16.6193L1.58157 15.9893C2.17693 15.8435 2.79776 15.8385 3.3954 15.9744V19.8057ZM10.9126 13.0613L11.4942 13.8115H9.0771L8.97285 13.0613H10.9126ZM9.7644 9.53265L10.1428 10.0431L9.27613 11.2402L8.83561 10.3844L9.7644 9.53265ZM5.21051 5.10073L5.99203 5.99503C6.04259 6.05287 6.10998 6.09322 6.18464 6.11036C6.2593 6.12751 6.33743 6.12057 6.40794 6.09053C6.50855 6.04782 6.76298 5.93253 7.04821 5.80202C7.34728 5.66516 7.67203 5.59435 8.0006 5.59435C8.32917 5.59435 8.65392 5.66516 8.95299 5.80202C9.09387 5.86654 9.2353 5.93033 9.37528 5.9965C9.58232 6.09511 9.826 6.20399 10.009 5.99485L10.7905 5.10055C10.5543 6.94542 9.39441 8.35332 8.00033 8.35332C6.60624 8.35332 5.44635 6.94542 5.21051 5.10073ZM8.39546 14.5447V15.7741H7.60519V14.5447H8.39546ZM7.65969 13.8115L7.76394 13.0613H8.23726L8.34151 13.8115H7.65969ZM6.23662 9.53265L7.16613 10.3844L6.72452 11.2402L5.85788 10.0431L6.23662 9.53265ZM5.08839 13.0613H7.02762L6.92336 13.8115H4.50626L5.08839 13.0613ZM11.8766 20.2665H4.12443V14.5447H6.87652V16.1407C6.87652 16.2379 6.91493 16.3311 6.98329 16.3999C7.05165 16.4686 7.14436 16.5073 7.24104 16.5073H8.76034C8.85702 16.5073 8.94973 16.4686 9.01809 16.3999C9.08645 16.3311 9.12486 16.2379 9.12486 16.1407V14.5447H11.8769L11.8766 20.2665ZM13.9304 18.5972L12.6056 19.8057V15.9746C13.2032 15.8387 13.824 15.8438 14.4193 15.9895L14.5574 16.6193C14.635 16.9753 14.6178 17.3456 14.5077 17.6929C14.3975 18.0402 14.1983 18.3521 13.9301 18.5972H13.9304Z" fill="#10BAB2"/>
</svg>
