<svg width="48" height="49" viewBox="0 0 48 49" fill="none" xmlns="http://www.w3.org/2000/svg">
<circle cx="24" cy="24.5" r="23.5" fill="white" stroke="#10BAB2"/>
<path d="M25.25 19.5C26.2446 19.5 27.1984 19.8951 27.9017 20.5983C28.6049 21.3016 29 22.2554 29 23.25C29 23.5815 29.1317 23.8995 29.3661 24.1339C29.6005 24.3683 29.9185 24.5 30.25 24.5C30.5815 24.5 30.8995 24.3683 31.1339 24.1339C31.3683 23.8995 31.5 23.5815 31.5 23.25C31.5 21.5924 30.8415 20.0027 29.6694 18.8306C28.4973 17.6585 26.9076 17 25.25 17C24.9185 17 24.6005 17.1317 24.3661 17.3661C24.1317 17.6005 24 17.9185 24 18.25C24 18.5815 24.1317 18.8995 24.3661 19.1339C24.6005 19.3683 24.9185 19.5 25.25 19.5Z" fill="#10BAB2"/>
<path d="M25.25 14.5001C27.5706 14.5001 29.7962 15.422 31.4372 17.0629C33.0781 18.7039 34 20.9295 34 23.2501C34 23.5816 34.1317 23.8996 34.3661 24.134C34.6005 24.3684 34.9185 24.5001 35.25 24.5001C35.5815 24.5001 35.8995 24.3684 36.1339 24.134C36.3683 23.8996 36.5 23.5816 36.5 23.2501C36.5 20.2664 35.3147 17.405 33.205 15.2952C31.0952 13.1854 28.2337 12.0001 25.25 12.0001C24.9185 12.0001 24.6005 12.1318 24.3661 12.3662C24.1317 12.6007 24 12.9186 24 13.2501C24 13.5816 24.1317 13.8996 24.3661 14.134C24.6005 14.3684 24.9185 14.5001 25.25 14.5001ZM36.1875 29.3876C36.1187 29.187 36.0001 29.0071 35.8426 28.8649C35.6852 28.7228 35.4941 28.6231 35.2875 28.5751L27.7875 26.8626C27.5839 26.8165 27.372 26.822 27.1711 26.8788C26.9703 26.9356 26.7868 27.0417 26.6375 27.1876C26.4625 27.3501 26.45 27.3626 25.6375 28.9126C22.9415 27.6703 20.7812 25.5012 19.55 22.8001C21.1375 22.0001 21.15 22.0001 21.3125 21.8126C21.4584 21.6633 21.5646 21.4799 21.6213 21.279C21.6781 21.0781 21.6837 20.8662 21.6375 20.6626L19.925 13.2501C19.8771 13.0435 19.7773 12.8525 19.6352 12.695C19.493 12.5376 19.3132 12.4189 19.1125 12.3501C18.8206 12.2459 18.5191 12.1705 18.2125 12.1251C17.8966 12.0519 17.5742 12.01 17.25 12.0001C15.725 12.0001 14.2625 12.6059 13.1841 13.6843C12.1058 14.7626 11.5 16.2251 11.5 17.7501C11.5066 22.8535 13.5369 27.746 17.1455 31.3546C20.7541 34.9633 25.6466 36.9935 30.75 37.0001C31.5051 37.0001 32.2528 36.8514 32.9504 36.5624C33.6481 36.2735 34.2819 35.8499 34.8159 35.316C35.3498 34.782 35.7733 34.1482 36.0623 33.4506C36.3513 32.7529 36.5 32.0052 36.5 31.2501C36.5004 30.932 36.4753 30.6143 36.425 30.3001C36.3725 29.9896 36.293 29.6843 36.1875 29.3876ZM30.75 34.5001C26.3086 34.4968 22.0501 32.731 18.9096 29.5905C15.7691 26.45 14.0033 22.1915 14 17.7501C14.0033 16.8892 14.3468 16.0644 14.9555 15.4557C15.5643 14.8469 16.3891 14.5034 17.25 14.5001H17.6625L19 20.3001L18.325 20.6501C17.25 21.2126 16.4 21.6626 16.85 22.6376C17.5828 24.7121 18.7685 26.5973 20.3209 28.1562C21.8734 29.7152 23.7536 30.9087 25.825 31.6501C26.875 32.0751 27.2875 31.2876 27.85 30.2001L28.2125 29.5126L34 30.8376V31.2501C33.9967 32.1111 33.6532 32.9358 33.0445 33.5446C32.4357 34.1534 31.6109 34.4968 30.75 34.5001Z" fill="#10BAB2"/>
</svg>
