<svg width="48" height="48" viewBox="0 0 48 48" fill="none" xmlns="http://www.w3.org/2000/svg">
<rect width="48" height="48" rx="24" fill="white"/>
<rect width="48" height="48" rx="24" fill="#10BAB2" fill-opacity="0.2"/>
<path d="M28.7045 16.2672C27.4403 14.7387 26.0205 13.3593 24.4705 12.1535C24.3321 12.0535 24.1681 12 24 12C23.8319 12 23.6679 12.0535 23.5295 12.1535C21.9795 13.3593 20.5597 14.7387 19.2955 16.2672C16.483 19.6417 15 23.209 15 26.5728C15 29.0731 15.9482 31.4709 17.636 33.2388C19.3239 35.0068 21.6131 36 24 36C26.3869 36 28.6761 35.0068 30.364 33.2388C32.0518 31.4709 33 29.0731 33 26.5728C33 23.209 31.517 19.6417 28.7045 16.2672ZM24 34.286C22.0479 34.2831 20.1765 33.4696 18.7961 32.0237C17.4157 30.5778 16.6391 28.6176 16.6364 26.5728C16.6364 20.4451 22.3125 15.3245 24 13.9318C25.6875 15.3245 31.3636 20.4451 31.3636 26.5728C31.3609 28.6176 30.5843 30.5778 29.2039 32.0237C27.8235 33.4696 25.9521 34.2831 24 34.286Z" fill="#10BAB2"/>
<path d="M22 27.0832C22 27.7804 22.3633 28 22.9178 28H26.1874C26.6367 28 27 27.7708 27 27.3411C27 26.9113 26.6367 26.6821 26.1874 26.6821H23.5679V21.7831C23.5679 21.3151 23.262 21 22.7839 21C22.3059 21 22 21.3151 22 21.7831V27.0832Z" fill="#10BAB2"/>
</svg>
