<svg width="48" height="48" viewBox="0 0 48 48" fill="none" xmlns="http://www.w3.org/2000/svg">
<rect width="48" height="48" rx="24" fill="white"/>
<rect width="48" height="48" rx="24" fill="#10BAB2" fill-opacity="0.2"/>
<g clip-path="url(#clip0_162_64)">
<path d="M24.0002 12C17.3973 12 12 17.3973 12 24.0002C12 30.6031 17.37 36.0005 24.0002 36.0005C30.6027 36.0005 36 30.6031 36 24.0002C36 17.3973 30.6027 12 24.0002 12ZM24.0002 34.9041C18.0001 34.9041 13.0964 29.9999 13.0964 24.0002C13.0964 18.0006 17.9728 13.0964 24.0002 13.0964C30.0003 13.0964 34.9041 18.0006 34.9041 24.0002C34.9041 29.9999 29.9999 34.9041 24.0002 34.9041Z" fill="#10BAB2"/>
<path d="M24.0002 15.1779C19.1233 15.1779 15.1782 19.1232 15.1782 24C15.1782 28.8767 19.1508 32.822 24.0002 32.822C28.8767 32.822 32.8223 28.8767 32.8223 24C32.8223 19.1232 28.877 15.1779 24.0002 15.1779ZM24.0002 31.9449C19.6167 31.9449 16.0548 28.3832 16.0548 23.9995C16.0548 19.6158 19.6165 16.0541 24.0002 16.0541C28.3837 16.0541 31.9456 19.6158 31.9456 23.9995C31.9455 28.383 28.3839 31.9449 24.0002 31.9449Z" fill="#10BAB2"/>
<path d="M19.1336 25.4572C19.1336 25.7504 19.3251 25.9479 19.6243 25.9479C19.9235 25.9479 20.115 25.7504 20.115 25.4572V24.2902H21.2042C22.1557 24.2902 22.7003 23.7097 22.7003 22.9258C22.7003 21.9683 22.036 21.5613 21.2102 21.5613H19.7081C19.361 21.5613 19.1336 21.699 19.1336 22.1358V25.4572ZM20.115 22.3153H20.9289C21.4136 22.3153 21.7188 22.4949 21.7188 22.9258C21.7188 23.2968 21.4256 23.5362 21.0306 23.5362H20.115V22.3153Z" fill="#10BAB2"/>
<path d="M23.0719 24.368C23.0719 25.2836 23.5806 25.9479 24.6578 25.9479C25.5555 25.9479 25.9863 25.4213 25.9863 25.0383C25.9863 24.8647 25.8427 24.7031 25.6213 24.7031C25.1605 24.7031 25.2921 25.2657 24.6817 25.2657C24.203 25.2657 23.9456 24.9126 23.9456 24.368C23.9456 23.5781 24.3466 23.3447 24.6877 23.3447C25.3161 23.3447 25.1665 23.8593 25.5794 23.8593C25.8008 23.8593 25.9863 23.7337 25.9863 23.4823C25.9863 23.0754 25.4418 22.6624 24.7117 22.6624C23.6404 22.6624 23.0719 23.3626 23.0719 24.368Z" fill="#10BAB2"/>
<path d="M26.3161 23.6379C26.3161 24.2244 26.7111 24.4338 27.2198 24.5595L27.7344 24.6852C28.0456 24.763 28.2371 24.7989 28.2371 25.0203C28.2371 25.1998 28.0396 25.3375 27.7285 25.3375C27.0821 25.3375 27.0462 24.7989 26.6692 24.7989C26.4239 24.7989 26.3161 24.9724 26.3161 25.1639C26.3161 25.5948 26.9744 25.9479 27.7644 25.9479C28.4227 25.9479 29.1109 25.6188 29.1109 24.9066C29.1109 24.2962 28.5184 24.0867 28.0217 23.973L27.6566 23.8893C27.3873 23.8294 27.1899 23.7815 27.1899 23.5781C27.1899 23.3925 27.3873 23.3088 27.6926 23.3088C28.2431 23.3088 28.2551 23.7097 28.5962 23.7097C28.8236 23.7097 28.9612 23.5302 28.9612 23.3267C28.9612 22.9258 28.291 22.6624 27.6267 22.6624C27.0223 22.6624 26.3161 22.9258 26.3161 23.6379Z" fill="#10BAB2"/>
</g>
<defs>
<clipPath id="clip0_162_64">
<rect width="24" height="24" fill="white" transform="translate(12 12)"/>
</clipPath>
</defs>
</svg>
