<svg width="48" height="48" viewBox="0 0 48 48" fill="none" xmlns="http://www.w3.org/2000/svg">
<rect width="48" height="48" rx="24" fill="white"/>
<rect width="48" height="48" rx="24" fill="#10BAB2" fill-opacity="0.2"/>
<g clip-path="url(#clip0_228_33)">
<path d="M24.0002 12C17.3973 12 12 17.3973 12 24.0002C12 30.6031 17.37 36.0005 24.0002 36.0005C30.6027 36.0005 36 30.6031 36 24.0002C36 17.3973 30.6027 12 24.0002 12ZM24.0002 34.9041C18.0001 34.9041 13.0964 29.9999 13.0964 24.0002C13.0964 18.0006 17.9728 13.0964 24.0002 13.0964C30.0003 13.0964 34.9041 18.0006 34.9041 24.0002C34.9041 29.9999 29.9999 34.9041 24.0002 34.9041Z" fill="#10BAB2"/>
<path d="M24.0002 15.1779C19.1233 15.1779 15.1782 19.1232 15.1782 24C15.1782 28.8767 19.1508 32.822 24.0002 32.822C28.8767 32.822 32.8223 28.8767 32.8223 24C32.8223 19.1232 28.877 15.1779 24.0002 15.1779ZM24.0002 31.9449C19.6167 31.9449 16.0548 28.3832 16.0548 23.9995C16.0548 19.6158 19.6165 16.0541 24.0002 16.0541C28.3837 16.0541 31.9456 19.6158 31.9456 23.9995C31.9455 28.383 28.3839 31.9449 24.0002 31.9449Z" fill="#10BAB2"/>
<path d="M20.456 25.984C20.456 26.278 20.648 26.476 20.948 26.476C21.248 26.476 21.44 26.278 21.44 25.984V24.814H22.532C23.486 24.814 24.032 24.232 24.032 23.446C24.032 22.486 23.366 22.078 22.538 22.078H21.032C20.684 22.078 20.456 22.216 20.456 22.654V25.984ZM21.44 22.834H22.256C22.742 22.834 23.048 23.014 23.048 23.446C23.048 23.818 22.754 24.058 22.358 24.058H21.44V22.834Z" fill="#10BAB2"/>
<path d="M24.6206 26.038C24.6206 26.326 24.7946 26.476 25.0586 26.476C25.3226 26.476 25.4966 26.326 25.4966 26.038V22.438C25.4966 22.15 25.3226 22 25.0586 22C24.7946 22 24.6206 22.15 24.6206 22.438V26.038Z" fill="#10BAB2"/>
<path d="M26.4705 25.696C26.4705 26.212 26.7345 26.476 27.3705 26.476C27.7905 26.476 28.0065 26.338 28.0065 26.086C28.0065 25.9 27.8925 25.792 27.7005 25.792H27.5745C27.4185 25.792 27.3465 25.72 27.3465 25.588V23.836H27.6105C27.8685 23.836 28.0065 23.758 28.0065 23.548C28.0065 23.338 27.8685 23.26 27.6105 23.26H27.3465V22.726C27.3465 22.438 27.1725 22.288 26.9085 22.288C26.6445 22.288 26.4705 22.438 26.4705 22.726V23.26H26.3205C26.0745 23.26 25.9725 23.356 25.9725 23.548C25.9725 23.74 26.0745 23.836 26.3205 23.836H26.4705V25.696Z" fill="#10BAB2"/>
</g>
<defs>
<clipPath id="clip0_228_33">
<rect width="24" height="24" fill="white" transform="translate(12 12)"/>
</clipPath>
</defs>
</svg>
