<svg width="40" height="40" viewBox="0 0 40 40" fill="none" xmlns="http://www.w3.org/2000/svg">
<g clip-path="url(#clip0_12_373)">
<path fill-rule="evenodd" clip-rule="evenodd" d="M33.3334 11.567H36.6667V3.23364H28.3334V6.56698H33.3334V11.567ZM36.6667 28.2336V36.567H28.3334V33.2336H33.3334V28.2336H36.6667ZM11.6667 36.567H3.33337V28.2336H6.66671V33.2336H11.6667V36.567ZM3.33337 11.567V3.23364H11.6667V6.56698H6.66671V11.567H3.33337Z" fill="#10BAB2"/>
<path d="M10.7266 11.0932C10.5867 11.1652 10.5105 11.2415 10.4384 11.3813C10.3876 11.4873 10.0359 12.8008 9.66306 14.3049C9.00208 16.9616 8.98089 17.0463 9.00631 17.3599C9.04021 17.792 9.1758 18.2835 9.35375 18.6437C9.5529 19.042 9.62916 19.1437 10.0147 19.542L10.3452 19.8809L10.3537 24.7154C10.3664 29.5245 10.3664 29.5542 10.4554 29.6686C10.502 29.7321 10.5952 29.8254 10.6588 29.872C10.7732 29.9609 10.8028 29.9609 14.4128 29.9609C18.0228 29.9609 18.0525 29.9609 18.1669 29.872C18.2304 29.8254 18.3237 29.7321 18.3703 29.6686C18.4592 29.5542 18.4592 29.5033 18.472 27.0543L18.4804 24.5587H19.8363H21.1922L21.2006 27.0543C21.2133 29.5033 21.2133 29.5542 21.3023 29.6686C21.3489 29.7321 21.4421 29.8254 21.5057 29.872C21.6201 29.9609 21.6498 29.9609 25.2598 29.9609C28.8697 29.9609 28.8994 29.9609 29.0138 29.872C29.0774 29.8254 29.1706 29.7321 29.2172 29.6686C29.3062 29.5542 29.3062 29.5245 29.3189 24.7154L29.3274 19.8809L29.6578 19.542C30.0434 19.1437 30.1197 19.042 30.3188 18.6437C30.4968 18.2835 30.6324 17.792 30.6663 17.3599C30.6917 17.0463 30.6705 16.9616 30.0095 14.3049C29.6367 12.8008 29.285 11.4873 29.2341 11.3813C29.1621 11.2415 29.0858 11.1652 28.946 11.0932L28.7596 11H19.8363H10.913L10.7266 11.0932ZM28.7257 14.7837C29.3062 17.1099 29.3316 17.2243 29.2935 17.4446C29.1282 18.3344 28.5477 18.9488 27.73 19.1013C27.1876 19.203 26.586 18.9827 26.175 18.5378C25.8063 18.1437 25.6792 17.8386 25.603 17.1692C25.5436 16.6565 25.3445 16.4446 24.9208 16.4446C24.4971 16.4446 24.2979 16.6565 24.2386 17.1692C24.1624 17.8386 24.0352 18.1437 23.6666 18.5378C23.2556 18.9827 22.6539 19.203 22.1158 19.1013C21.7133 19.025 21.3659 18.8344 21.0905 18.5378C20.7218 18.1437 20.5947 17.8386 20.5185 17.1692C20.4591 16.6565 20.26 16.4446 19.8363 16.4446C19.4126 16.4446 19.2134 16.6565 19.1541 17.1692C19.0779 17.8386 18.9507 18.1437 18.5821 18.5378C18.3067 18.8344 17.9593 19.025 17.5567 19.1013C17.0186 19.203 16.417 18.9827 16.006 18.5378C15.6373 18.1437 15.5102 17.8386 15.434 17.1692C15.3746 16.6565 15.1755 16.4446 14.7518 16.4446C14.3281 16.4446 14.1289 16.6565 14.0696 17.1692C13.9934 17.8386 13.8662 18.1437 13.4976 18.5378C13.0866 18.9827 12.485 19.203 11.9468 19.1013C11.1249 18.9488 10.5444 18.3344 10.3791 17.4446C10.341 17.2243 10.3664 17.1099 10.9469 14.7837L11.5528 12.3559H19.8363H28.1198L28.7257 14.7837ZM15.0442 19.5081C16.3153 20.8131 18.277 20.8131 19.5524 19.4996L19.8363 19.2072L20.1244 19.4996C21.3998 20.8131 23.3573 20.8131 24.6369 19.4996L24.9208 19.2072L25.2089 19.5038C25.8657 20.1818 26.7724 20.5419 27.641 20.4784L27.9715 20.4529V24.5375V28.6263H25.2598H22.548L22.5395 26.1306C22.5268 23.6816 22.5268 23.6307 22.4379 23.5163C22.3913 23.4528 22.298 23.3596 22.2345 23.313C22.1201 23.224 22.0735 23.224 19.8363 23.224C17.5991 23.224 17.5525 23.224 17.4381 23.313C17.3745 23.3596 17.2813 23.4528 17.2347 23.5163C17.1457 23.6307 17.1457 23.6816 17.133 26.1306L17.1246 28.6263H14.4128H11.7011V24.5375V20.4529L12.0316 20.4784C12.896 20.5419 13.8154 20.1775 14.4552 19.5081C14.6077 19.3513 14.7391 19.2199 14.7476 19.2199C14.756 19.2199 14.8916 19.3513 15.0442 19.5081Z" fill="#10BAB2"/>
</g>
<defs>
<clipPath id="clip0_12_373">
<rect width="40" height="40" fill="white"/>
</clipPath>
</defs>
</svg>
