<svg width="33" height="31" viewBox="0 0 33 31" fill="none" xmlns="http://www.w3.org/2000/svg">
<path d="M21.6014 15.0048L24.1297 22.8194C24.6085 22.3598 25.9585 21.4634 27.1996 21.5553C28.7511 21.6702 28.866 21.3829 30.8196 23.4515C32.2126 24.9264 31.9375 23.1142 31.4395 22.4246C31.0756 21.3903 28.772 19.9256 26.3816 20.0175C26.0943 18.6959 25.6582 16.5332 23.2678 16.6712L22.9805 15.9816H24.1297C24.168 16.5179 24.8187 17.0389 26.3816 16.6712C26.6881 16.0199 26.9338 14.8784 26.1983 13.6832C25.8929 13.1869 23.2103 14.66 24.1297 15.0048C24.8652 15.2806 23.67 15.1197 22.9805 15.0048L22.2335 13.6832" stroke="#10BAB2" stroke-width="1.5"/>
<mask id="path-2-outside-1_220_2731" maskUnits="userSpaceOnUse" x="5.27393" y="20.9868" width="10" height="10" fill="black">
<rect fill="white" x="5.27393" y="20.9868" width="10" height="10"/>
<path d="M13.5108 25.6053C13.5108 27.6037 11.8908 29.2237 9.89237 29.2237C7.89396 29.2237 6.27393 27.6037 6.27393 25.6053C6.27393 23.6068 7.89396 21.9868 9.89237 21.9868C11.8908 21.9868 13.5108 23.6068 13.5108 25.6053ZM8.45711 25.6053C8.45711 26.3979 9.0997 27.0405 9.89237 27.0405C10.685 27.0405 11.3276 26.3979 11.3276 25.6053C11.3276 24.8126 10.685 24.17 9.89237 24.17C9.0997 24.17 8.45711 24.8126 8.45711 25.6053Z"/>
</mask>
<path d="M13.5108 25.6053C13.5108 27.6037 11.8908 29.2237 9.89237 29.2237C7.89396 29.2237 6.27393 27.6037 6.27393 25.6053C6.27393 23.6068 7.89396 21.9868 9.89237 21.9868C11.8908 21.9868 13.5108 23.6068 13.5108 25.6053ZM8.45711 25.6053C8.45711 26.3979 9.0997 27.0405 9.89237 27.0405C10.685 27.0405 11.3276 26.3979 11.3276 25.6053C11.3276 24.8126 10.685 24.17 9.89237 24.17C9.0997 24.17 8.45711 24.8126 8.45711 25.6053Z" fill="white"/>
<path d="M13.5108 25.6053C13.5108 27.6037 11.8908 29.2237 9.89237 29.2237C7.89396 29.2237 6.27393 27.6037 6.27393 25.6053C6.27393 23.6068 7.89396 21.9868 9.89237 21.9868C11.8908 21.9868 13.5108 23.6068 13.5108 25.6053ZM8.45711 25.6053C8.45711 26.3979 9.0997 27.0405 9.89237 27.0405C10.685 27.0405 11.3276 26.3979 11.3276 25.6053C11.3276 24.8126 10.685 24.17 9.89237 24.17C9.0997 24.17 8.45711 24.8126 8.45711 25.6053Z" stroke="#10BAB2" stroke-width="2" mask="url(#path-2-outside-1_220_2731)"/>
<mask id="path-3-outside-2_220_2731" maskUnits="userSpaceOnUse" x="22.9937" y="20.9868" width="10" height="10" fill="black">
<rect fill="white" x="22.9937" y="20.9868" width="10" height="10"/>
<path d="M31.2305 25.6053C31.2305 27.6037 29.6105 29.2237 27.6121 29.2237C25.6137 29.2237 23.9937 27.6037 23.9937 25.6053C23.9937 23.6068 25.6137 21.9868 27.6121 21.9868C29.6105 21.9868 31.2305 23.6068 31.2305 25.6053ZM26.1768 25.6053C26.1768 26.3979 26.8194 27.0405 27.6121 27.0405C28.4048 27.0405 29.0473 26.3979 29.0473 25.6053C29.0473 24.8126 28.4048 24.17 27.6121 24.17C26.8194 24.17 26.1768 24.8126 26.1768 25.6053Z"/>
</mask>
<path d="M31.2305 25.6053C31.2305 27.6037 29.6105 29.2237 27.6121 29.2237C25.6137 29.2237 23.9937 27.6037 23.9937 25.6053C23.9937 23.6068 25.6137 21.9868 27.6121 21.9868C29.6105 21.9868 31.2305 23.6068 31.2305 25.6053ZM26.1768 25.6053C26.1768 26.3979 26.8194 27.0405 27.6121 27.0405C28.4048 27.0405 29.0473 26.3979 29.0473 25.6053C29.0473 24.8126 28.4048 24.17 27.6121 24.17C26.8194 24.17 26.1768 24.8126 26.1768 25.6053Z" fill="white"/>
<path d="M31.2305 25.6053C31.2305 27.6037 29.6105 29.2237 27.6121 29.2237C25.6137 29.2237 23.9937 27.6037 23.9937 25.6053C23.9937 23.6068 25.6137 21.9868 27.6121 21.9868C29.6105 21.9868 31.2305 23.6068 31.2305 25.6053ZM26.1768 25.6053C26.1768 26.3979 26.8194 27.0405 27.6121 27.0405C28.4048 27.0405 29.0473 26.3979 29.0473 25.6053C29.0473 24.8126 28.4048 24.17 27.6121 24.17C26.8194 24.17 26.1768 24.8126 26.1768 25.6053Z" stroke="#10BAB2" stroke-width="2" mask="url(#path-3-outside-2_220_2731)"/>
<circle cx="9.89235" cy="25.6056" r="3.73256" stroke="#10BAB2"/>
<circle cx="27.6121" cy="25.6056" r="3.73256" stroke="#10BAB2"/>
<circle cx="9.8923" cy="25.6054" r="2.20846" stroke="#10BAB2"/>
<circle cx="27.6121" cy="25.6054" r="2.20846" stroke="#10BAB2"/>
<path d="M5.52028 26.3535V26.3535C4.54204 26.3535 3.77119 25.5119 3.94355 24.549C4.17637 23.2484 4.55367 21.8946 5.07865 21.6613C5.18375 21.6146 5.26299 21.5732 5.32034 21.5365C5.74753 21.2632 4.74744 20.8522 4.74744 20.3451V20.3451C4.74744 19.8525 5.14674 19.4532 5.63931 19.4532H14.2587C15.0692 19.4532 15.7262 20.1103 15.7262 20.9208V20.9208C15.7262 21.1535 15.6599 21.3763 15.5474 21.5801C15.3378 21.96 15.1048 22.602 15.4832 23.8196C15.7096 24.5478 16.4367 24.9734 17.1993 24.9734H23.3505M16.2847 13.4914L16.1715 14.3777C16.0462 15.3596 15.2197 16.0952 14.2303 16.1256C14.1009 16.1295 14.5696 16.121 16.2847 16.0859C19.8762 16.0125 20.9829 16.7545 21.0872 17.1348L23.1153 22.2792C23.2683 22.6672 23.3137 23.1017 23.1505 23.4854C22.613 24.7489 21.6818 24.668 21.0189 24.3213C20.7188 24.1643 20.5267 23.8694 20.4044 23.5535C19.7825 21.9458 18.8086 19.4532 18.7688 19.4532C18.7265 19.4532 15.4173 18.713 13.5509 18.2943C13.3861 18.2573 13.216 18.2485 13.052 18.2081C12.3769 18.0418 11.2079 17.1749 11.324 14.8149C11.4896 11.4476 12.3101 10.2345 13.3038 8.68885C13.9065 7.75126 14.6954 7.60076 15.2422 7.67906C15.5388 7.72153 15.8494 7.78306 16.109 7.93271C16.5503 8.1872 17.0348 8.87148 17.0023 10.4001" stroke="#10BAB2" stroke-width="1.5"/>
<rect x="1.01404" y="8.94238" width="10.5197" height="10.5197" rx="3.75" stroke="#10BAB2" stroke-width="1.5"/>
<circle cx="17.5193" cy="4.98448" r="3.57286" stroke="#10BAB2" stroke-width="1.5"/>
<mask id="path-11-outside-3_220_2731" maskUnits="userSpaceOnUse" x="12.0625" y="7.16162" width="12" height="10" fill="black">
<rect fill="white" x="12.0625" y="7.16162" width="12" height="10"/>
<path d="M22.0641 13.4668C22.2373 13.9721 21.9681 14.5301 21.4422 14.6236C20.8225 14.7339 20.1879 14.7507 19.5597 14.6718C18.6106 14.5527 17.7012 14.2182 16.901 13.694C16.1009 13.1698 15.431 12.4698 14.9426 11.6473C14.6194 11.1029 14.3813 10.5144 14.2348 9.9022C14.1106 9.38274 14.5146 8.91309 15.047 8.86998C15.5793 8.82686 16.0356 9.22956 16.1952 9.7393C16.2955 10.06 16.4331 10.3689 16.6058 10.6597C16.9437 11.2289 17.4072 11.7133 17.961 12.076C18.5147 12.4388 19.1439 12.6702 19.8007 12.7527C20.1363 12.7948 20.4745 12.7975 20.8085 12.7614C21.3396 12.7041 21.891 12.9615 22.0641 13.4668Z"/>
</mask>
<path d="M22.0641 13.4668C22.2373 13.9721 21.9681 14.5301 21.4422 14.6236C20.8225 14.7339 20.1879 14.7507 19.5597 14.6718C18.6106 14.5527 17.7012 14.2182 16.901 13.694C16.1009 13.1698 15.431 12.4698 14.9426 11.6473C14.6194 11.1029 14.3813 10.5144 14.2348 9.9022C14.1106 9.38274 14.5146 8.91309 15.047 8.86998C15.5793 8.82686 16.0356 9.22956 16.1952 9.7393C16.2955 10.06 16.4331 10.3689 16.6058 10.6597C16.9437 11.2289 17.4072 11.7133 17.961 12.076C18.5147 12.4388 19.1439 12.6702 19.8007 12.7527C20.1363 12.7948 20.4745 12.7975 20.8085 12.7614C21.3396 12.7041 21.891 12.9615 22.0641 13.4668Z" stroke="#10BAB2" stroke-width="3" mask="url(#path-11-outside-3_220_2731)"/>
<path d="M19.8086 14.6914V14.6914C20.1661 15.1803 20.7734 15.4237 21.3479 15.232C21.6564 15.129 21.9221 15.0207 21.9958 14.9509C22.2467 14.7132 22.3357 14.5531 22.2837 14.1714C22.2425 13.8694 22.4523 13.582 22.7571 13.582V13.582" stroke="#10BAB2"/>
</svg>
