<svg width="38" height="28" viewBox="0 0 38 28" fill="none" xmlns="http://www.w3.org/2000/svg">
<path d="M0.25 6.50008H16.5L17.75 9.00008H1.5L0.25 6.50008ZM1.91667 11.5001H18.1667L19.4167 14.0001H3.16667L1.91667 11.5001ZM29 24.8334C30.3833 24.8334 31.5 23.7167 31.5 22.3334C31.5 20.9501 30.3833 19.8334 29 19.8334C27.6167 19.8334 26.5 20.9501 26.5 22.3334C26.5 23.7167 27.6167 24.8334 29 24.8334ZM31.5 9.83341H27.3333V14.0001H34.7667L31.5 9.83341ZM12.3333 24.8334C13.7167 24.8334 14.8333 23.7167 14.8333 22.3334C14.8333 20.9501 13.7167 19.8334 12.3333 19.8334C10.95 19.8334 9.83333 20.9501 9.83333 22.3334C9.83333 23.7167 10.95 24.8334 12.3333 24.8334ZM32.3333 7.33341L37.3333 14.0001V22.3334H34C34 25.1001 31.7667 27.3334 29 27.3334C26.2333 27.3334 24 25.1001 24 22.3334H17.3333C17.3333 25.1001 15.0833 27.3334 12.3333 27.3334C9.56667 27.3334 7.33333 25.1001 7.33333 22.3334H4V16.5001H7.33333V19.0001H8.6C9.51667 17.9834 10.85 17.3334 12.3333 17.3334C13.8167 17.3334 15.15 17.9834 16.0667 19.0001H24V4.00008H4C4 2.15008 5.48333 0.666748 7.33333 0.666748H27.3333V7.33341H32.3333Z" fill="#10BAB2"/>
</svg>
