<svg width="40" height="40" viewBox="0 0 40 40" fill="none" xmlns="http://www.w3.org/2000/svg">
<g clip-path="url(#clip0_304_172)">
<mask id="path-1-inside-1_304_172" fill="white">
<path d="M32.6623 34.9095C32.6623 34.9095 32.2904 21.1063 39.6998 18.3813C39.6998 18.3813 37.2092 20.6345 35.281 24.4938C33.4092 28.2376 33.1341 30.2813 32.6623 34.9095Z"/>
</mask>
<path d="M32.6623 34.9095L31.6626 34.9364L33.6571 35.0109L32.6623 34.9095ZM39.6998 18.3813L40.3706 19.1229L39.3546 17.4428L39.6998 18.3813ZM35.281 24.4938L36.1755 24.9411L36.1756 24.9408L35.281 24.4938ZM32.6623 34.9095C33.6619 34.8825 33.6619 34.8828 33.6619 34.8829C33.6619 34.8829 33.6619 34.883 33.6619 34.883C33.6619 34.8829 33.6619 34.8826 33.6619 34.8822C33.6619 34.8812 33.6618 34.8794 33.6618 34.8768C33.6617 34.8716 33.6615 34.8632 33.6613 34.8516C33.6608 34.8284 33.6603 34.7925 33.6599 34.7448C33.659 34.6494 33.6586 34.5065 33.6607 34.3223C33.6648 33.9537 33.6788 33.4204 33.7181 32.7706C33.797 31.4679 33.9771 29.7119 34.3792 27.8819C35.2058 24.1207 36.8706 20.4873 40.0449 19.3199L39.3546 17.4428C35.1196 19.0004 33.2657 23.631 32.4258 27.4526C31.9948 29.4141 31.8047 31.2792 31.7218 32.6497C31.6802 33.3365 31.6653 33.9029 31.6608 34.2998C31.6586 34.4983 31.659 34.6547 31.6599 34.7628C31.6604 34.8168 31.6611 34.8588 31.6616 34.888C31.6619 34.9026 31.6621 34.914 31.6623 34.9221C31.6624 34.9261 31.6625 34.9294 31.6625 34.9318C31.6625 34.933 31.6626 34.9339 31.6626 34.9347C31.6626 34.9351 31.6626 34.9355 31.6626 34.9357C31.6626 34.9361 31.6626 34.9364 32.6623 34.9095ZM39.6998 18.3813C39.0289 17.6398 39.0287 17.6399 39.0285 17.6401C39.0285 17.6402 39.0283 17.6403 39.0281 17.6405C39.0278 17.6408 39.0275 17.6411 39.0271 17.6414C39.0263 17.6421 39.0254 17.6429 39.0244 17.6439C39.0223 17.6458 39.0196 17.6483 39.0162 17.6513C39.0096 17.6574 39.0007 17.6657 38.9894 17.6761C38.967 17.6971 38.9355 17.7268 38.8957 17.7651C38.816 17.8417 38.7031 17.9528 38.563 18.0971C38.2829 18.3857 37.8931 18.8078 37.4424 19.3535C36.5423 20.4434 35.3917 22.0347 34.3865 24.0469L36.1756 24.9408C37.0984 23.0936 38.1573 21.6287 38.9845 20.6271C39.3974 20.1271 39.7509 19.7448 39.998 19.4903C40.1215 19.3631 40.2182 19.268 40.2823 19.2063C40.3144 19.1755 40.3383 19.153 40.3532 19.139C40.3607 19.1321 40.366 19.1272 40.3689 19.1245C40.3704 19.1232 40.3713 19.1224 40.3715 19.1221C40.3717 19.122 40.3717 19.122 40.3715 19.1221C40.3715 19.1222 40.3714 19.1223 40.3712 19.1224C40.3711 19.1225 40.371 19.1226 40.371 19.1226C40.3708 19.1228 40.3706 19.1229 39.6998 18.3813ZM34.3866 24.0466C32.4325 27.9548 32.143 30.1438 31.6674 34.808L33.6571 35.0109C34.1253 30.4189 34.3858 28.5204 36.1755 24.9411L34.3866 24.0466Z" fill="#10BAB2" mask="url(#path-1-inside-1_304_172)"/>
<mask id="path-3-inside-2_304_172" fill="white">
<path d="M32.3685 35.9876C32.3685 35.9876 29.6373 17.75 39.6967 14.05C39.6967 14.05 35.7998 16.6688 34.3717 20.9532C32.6279 26.1907 32.3592 30.2782 32.3685 35.9876Z"/>
</mask>
<path d="M39.6967 14.05L40.2544 14.88L39.3515 13.1115L39.6967 14.05ZM34.3717 20.9532L33.423 20.6369L33.4229 20.6373L34.3717 20.9532ZM32.3685 35.9876C33.3575 35.8394 33.3575 35.8396 33.3576 35.8398C33.3576 35.8397 33.3576 35.8398 33.3575 35.8397C33.3575 35.8395 33.3575 35.8391 33.3573 35.8383C33.3571 35.8369 33.3568 35.8343 33.3562 35.8307C33.3552 35.8234 33.3535 35.8118 33.3513 35.7961C33.3469 35.7646 33.3403 35.7164 33.3319 35.6524C33.3152 35.5246 33.2917 35.334 33.265 35.0885C33.2115 34.5975 33.1457 33.8882 33.0974 33.0243C33.0005 31.2927 32.975 28.9573 33.2539 26.52C33.8237 21.5401 35.5984 16.6229 40.0419 14.9886L39.3515 13.1115C33.7355 15.1771 31.8462 21.2287 31.2668 26.2926C30.9711 28.8771 30.9996 31.3324 31.1005 33.136C31.1511 34.0396 31.22 34.784 31.2767 35.3048C31.305 35.5653 31.3303 35.7701 31.3487 35.9112C31.3579 35.9818 31.3654 36.0364 31.3707 36.0742C31.3734 36.093 31.3755 36.1077 31.377 36.118C31.3777 36.1231 31.3783 36.1272 31.3787 36.1301C31.379 36.1316 31.3791 36.1328 31.3793 36.1337C31.3793 36.1342 31.3794 36.1347 31.3795 36.1349C31.3795 36.1353 31.3796 36.1357 32.3685 35.9876ZM39.6967 14.05C39.1389 13.2201 39.1386 13.2202 39.1384 13.2204C39.1383 13.2205 39.138 13.2207 39.1378 13.2208C39.1373 13.2211 39.1368 13.2214 39.1363 13.2218C39.1352 13.2226 39.1338 13.2235 39.1322 13.2246C39.1291 13.2267 39.1249 13.2295 39.1199 13.233C39.1099 13.2398 39.0962 13.2493 39.079 13.2613C39.0447 13.2853 38.9965 13.3196 38.9361 13.3638C38.8152 13.4522 38.6449 13.5807 38.4379 13.7476C38.0245 14.0808 37.4613 14.5695 36.8514 15.1993C35.6393 16.4508 34.2013 18.302 33.423 20.6369L35.3203 21.2694C35.9702 19.32 37.1947 17.7196 38.288 16.5907C38.8309 16.0302 39.3312 15.5964 39.693 15.3047C39.8736 15.1592 40.019 15.0496 40.1168 14.9781C40.1657 14.9423 40.2026 14.9161 40.2261 14.8997C40.2378 14.8915 40.2462 14.8857 40.251 14.8824C40.2534 14.8808 40.2549 14.8798 40.2554 14.8794C40.2557 14.8792 40.2558 14.8791 40.2556 14.8792C40.2555 14.8793 40.2554 14.8794 40.2552 14.8795C40.2551 14.8796 40.2549 14.8797 40.2549 14.8798C40.2547 14.8799 40.2544 14.88 39.6967 14.05ZM33.4229 20.6373C31.6295 26.0237 31.3591 30.2353 31.3685 35.9892L33.3685 35.9859C33.3592 30.3211 33.6263 26.3577 35.3205 21.2691L33.4229 20.6373Z" fill="#10BAB2" mask="url(#path-3-inside-2_304_172)"/>
<path d="M28.7684 39.9313H3.53711V37.8407C3.53711 35.9002 4.84582 34.387 7.25986 33.3061C9.66797 32.2277 12.9444 31.7077 16.2572 31.7032C19.5734 31.6986 22.7938 32.2836 25.1454 33.3948C27.513 34.5136 28.7684 36.0324 28.7684 37.8407V39.9313Z" stroke="#10BAB2" stroke-width="2"/>
<path d="M13.9375 31.9969V29.3281H16.275H18.6156V31.9969C18.6156 33.1543 17.6809 34.0906 16.5344 34.0906H16.0187C14.8719 34.0906 13.9375 33.1571 13.9375 31.9969Z" stroke="#10BAB2"/>
<path d="M19.4381 31.3872L18.4881 35.666L16.8338 34.483L19.2012 31.3603L19.4381 31.3872ZM13.0691 31.3728L15.4122 34.4839L13.7792 35.6627L12.8305 31.3998L13.0691 31.3728Z" stroke="#10BAB2"/>
<path d="M32.0687 32.1406C32.1437 32.1406 32.2094 32.2 32.2156 32.275L32.3969 34.6438C32.4031 34.725 32.3437 34.7938 32.2625 34.8H32.25C32.175 34.8 32.1094 34.7406 32.1031 34.6656L31.9219 32.2969C31.9156 32.2156 31.975 32.1469 32.0562 32.1406H32.0687ZM32.0687 31.8281H32.0344C31.7812 31.8469 31.5937 32.0688 31.6125 32.3219L31.7937 34.6906C31.8125 34.9281 32.0125 35.1125 32.25 35.1125H32.2844C32.5375 35.0938 32.725 34.8719 32.7062 34.6188L32.525 32.25C32.5156 32.1353 32.4635 32.0283 32.379 31.9502C32.2945 31.8721 32.1838 31.8285 32.0687 31.8281Z" fill="#10BAB2"/>
<path d="M35.9745 14.2905C36.1526 14.6312 36.0401 15.1187 35.8901 15.5093C35.6995 15.9999 35.262 16.453 34.8276 16.8499C34.5808 17.0718 33.8839 17.4468 33.8839 17.4468C33.8808 17.4468 33.6933 16.7874 33.7339 16.4468C33.7714 16.0749 33.9995 15.6062 34.2808 15.2843C34.6526 14.853 35.3558 14.3624 35.9745 14.2905ZM35.9776 13.978C35.9651 13.978 35.9526 13.978 35.9401 13.9812C35.212 14.0687 34.4495 14.6124 34.0495 15.0843C33.7183 15.4655 33.4745 15.9874 33.4308 16.4155C33.3933 16.7187 33.5401 17.5218 33.6558 17.653C33.6935 17.696 33.7423 17.7278 33.7969 17.7449C33.8514 17.762 33.9097 17.7637 33.9651 17.7499C33.9964 17.7405 34.0276 17.728 34.0526 17.7124L34.087 17.6937C34.5714 17.4218 34.8808 17.2218 35.0401 17.0843C35.4839 16.678 35.9651 16.1905 36.187 15.6249C36.4245 15.0093 36.4464 14.5124 36.2558 14.1468C36.1995 14.0405 36.0901 13.978 35.9776 13.978Z" fill="#10BAB2"/>
<path d="M29.9466 25.6406C30.4091 25.7719 30.8372 26.1969 31.1341 26.5719C31.506 27.0437 31.6841 27.6375 31.8091 28.1812C31.8747 28.4875 31.8247 29.1719 31.8278 29.1719C31.8247 29.1719 31.0685 28.8281 30.756 28.5687C30.4122 28.2875 30.0778 27.8187 29.9216 27.4187C29.7091 26.8844 29.6372 26.0875 29.9466 25.6406ZM29.9466 25.3281C29.8466 25.3281 29.7497 25.375 29.6903 25.4625C29.3028 26.0187 29.3872 26.925 29.631 27.5344C29.8091 27.9906 30.181 28.5031 30.556 28.8125C30.7841 29 31.6466 29.4875 31.8247 29.4875C31.9903 29.4875 32.1278 29.3594 32.1372 29.1937V29.1719L32.1403 29.1281C32.156 28.7937 32.1685 28.3781 32.1122 28.1187C31.981 27.55 31.7935 26.9062 31.3778 26.3812C31.0716 25.9937 30.5872 25.5031 30.031 25.3437C30.0044 25.332 29.9755 25.3266 29.9466 25.3281Z" fill="#10BAB2"/>
<path d="M33.6969 25.9751C33.9969 26.4376 33.9938 27.1376 33.8906 27.6063C33.8094 27.9595 33.6094 28.3688 33.3594 28.622C33.1313 28.8501 32.5125 29.1751 32.5125 29.1751C32.5094 29.1751 32.1906 28.4938 32.1781 28.1876C32.1438 27.6501 32.2156 27.0688 32.55 26.6626C32.8125 26.3376 33.2344 26.0126 33.6969 25.9751ZM33.6969 25.6626H33.6719C33.1938 25.7001 32.6813 26.0032 32.3063 26.4657C31.9719 26.8751 31.8188 27.4782 31.8656 28.2063C31.8719 28.3626 31.9344 28.597 32.0563 28.9063C32.225 29.3376 32.2813 29.4845 32.5125 29.4845C32.5688 29.4845 32.6219 29.4688 32.6656 29.4438C32.9781 29.2751 33.3813 29.0376 33.5813 28.8407C33.8594 28.5595 34.1 28.1001 34.1969 27.672C34.3156 27.122 34.3125 26.347 33.9594 25.8001C33.9031 25.7157 33.8031 25.6626 33.6969 25.6626Z" fill="#10BAB2"/>
<path d="M30.2467 28.7688C30.653 28.8844 31.028 29.2563 31.2874 29.5844C31.6155 30 31.7686 30.5188 31.878 30.9969C31.9342 31.2657 31.8905 31.8657 31.8936 31.8657C31.8905 31.8657 31.2249 31.5625 30.953 31.3375C30.6499 31.0907 30.3592 30.6813 30.2217 30.3282C30.0374 29.8594 29.9717 29.1594 30.2467 28.7688ZM30.2467 28.4563C30.1467 28.4563 30.0499 28.5032 29.9905 28.5907C29.6405 29.0907 29.7155 29.9 29.9342 30.4438C30.0936 30.8532 30.4186 31.3001 30.7592 31.5782C30.9467 31.7344 31.7217 32.1782 31.8967 32.1782C31.977 32.1783 32.0542 32.1475 32.1124 32.0922C32.1705 32.037 32.2052 31.9614 32.2092 31.8813V31.8594L32.2124 31.8219C32.2249 31.5251 32.2374 31.1594 32.1874 30.9282C32.0717 30.4251 31.903 29.8563 31.5342 29.3875C31.2624 29.0438 30.8311 28.6063 30.3342 28.4657C30.303 28.4594 30.2749 28.4563 30.2467 28.4563Z" fill="#10BAB2"/>
<path d="M33.5501 29.0625C33.8126 29.4656 33.8095 30.0813 33.722 30.4938C33.6533 30.8031 33.4751 31.1625 33.2564 31.3844C33.0564 31.5844 32.5126 31.8688 32.5126 31.8688C32.5095 31.8688 32.2314 31.2719 32.2189 31.0031C32.1876 30.5313 32.2533 30.0219 32.5439 29.6656C32.7751 29.3813 33.147 29.0938 33.5501 29.0625ZM33.5501 28.75H33.5251C33.0939 28.7844 32.6376 29.0531 32.3001 29.4688C32.0001 29.8375 31.8626 30.375 31.9064 31.0219C31.9064 31.0281 32.0876 32.1813 32.5126 32.1813C32.5689 32.1813 32.622 32.1656 32.6658 32.1406C32.9439 31.9906 33.3001 31.7813 33.4751 31.6063C33.722 31.3531 33.9376 30.9438 34.0251 30.5625C34.1314 30.0719 34.1283 29.3781 33.8095 28.8906C33.7818 28.8471 33.7435 28.8113 33.6981 28.7866C33.6527 28.762 33.6018 28.7494 33.5501 28.75Z" fill="#10BAB2"/>
<path d="M30.2715 22.4031C30.7121 22.5687 31.0621 23.0218 31.2902 23.4125C31.5746 23.9093 31.6402 24.5093 31.659 25.0593C31.6652 25.3687 31.4778 26.0468 31.484 26.0468C31.4809 26.0468 30.7871 25.6437 30.5278 25.3625C30.2371 25.0562 29.9934 24.5656 29.9121 24.1531C29.7996 23.6093 29.8746 22.8156 30.2715 22.4031ZM30.2715 22.0906C30.1871 22.0906 30.1059 22.125 30.0465 22.1875C29.559 22.6968 29.4777 23.5968 29.6059 24.2187C29.6996 24.6968 29.9715 25.2312 30.2996 25.5781C30.4653 25.7562 31.2809 26.3625 31.484 26.3625C31.634 26.3625 31.7653 26.2531 31.7903 26.1062L31.7996 26.0656C31.8746 25.7593 31.9746 25.3187 31.9715 25.0562C31.9496 24.4812 31.884 23.8218 31.5621 23.2593C31.3215 22.8468 30.9246 22.3156 30.384 22.1125C30.3483 22.0977 30.3101 22.0903 30.2715 22.0906Z" fill="#10BAB2"/>
<path d="M33.9785 23.0156C34.1942 23.4938 34.0567 24.1844 33.8629 24.6438C33.7129 24.9875 33.4317 25.3781 33.1285 25.6125C32.8535 25.8219 32.166 26.0969 32.1692 26.0969C32.166 26.0969 31.9817 25.3906 32.0285 25.0875C32.0973 24.55 32.2848 23.9844 32.6973 23.6063C33.0192 23.3031 33.5067 23.0156 33.9785 23.0156ZM33.9785 22.7031C33.4973 22.7031 32.9379 22.9563 32.4817 23.375C32.0754 23.7469 31.8098 24.325 31.716 25.0438C31.6723 25.3281 31.816 26.1625 31.9317 26.2969C31.991 26.3656 32.0785 26.4063 32.1692 26.4063C32.1879 26.4063 32.2098 26.4031 32.2317 26.4C32.2535 26.3969 32.2754 26.3875 32.2942 26.3813C32.641 26.2375 33.0879 26.0375 33.3192 25.8594C33.6473 25.6063 33.9723 25.1781 34.1504 24.7656C34.3754 24.2313 34.5223 23.4594 34.2629 22.8875C34.2387 22.8324 34.1989 22.7855 34.1483 22.7528C34.0978 22.72 34.0388 22.7027 33.9785 22.7031Z" fill="#10BAB2"/>
<path d="M31.1405 19.3999C31.5561 19.5968 31.828 20.0624 31.9874 20.4624C32.1874 20.9687 32.1467 21.5593 32.0686 22.103C32.0186 22.4062 31.7124 23.0593 31.7155 23.0624C31.7124 23.0624 31.0874 22.6124 30.8749 22.3155C30.6374 21.9905 30.478 21.4905 30.4717 21.0843C30.453 20.5405 30.6686 19.7718 31.1405 19.3999ZM31.1405 19.0874C31.0717 19.0874 31.003 19.1093 30.9467 19.1562C30.378 19.6062 30.1405 20.4749 30.1592 21.0937C30.1686 21.5749 30.3499 22.128 30.6249 22.4999C30.7311 22.6499 31.4842 23.3749 31.7155 23.3749C31.8467 23.3749 31.9624 23.2937 32.0092 23.1718L32.0249 23.1343C32.1561 22.8374 32.3342 22.4155 32.378 22.153C32.4592 21.5843 32.5092 20.9312 32.278 20.3468C32.1061 19.9218 31.7936 19.3624 31.2717 19.1155C31.2306 19.0967 31.1858 19.0871 31.1405 19.0874Z" fill="#10BAB2"/>
<path d="M34.8411 20.2656C34.8723 20.2656 34.9036 20.2656 34.9348 20.2688C35.0661 20.75 34.8067 21.4156 34.5317 21.85C34.3223 22.175 33.9661 22.5406 33.6223 22.7469C33.3067 22.9313 32.5692 23.15 32.5692 23.1531C32.5661 23.1531 32.5067 22.4437 32.6067 22.15C32.7723 21.6281 33.0598 21.0844 33.5379 20.75C33.8942 20.4938 34.3911 20.2656 34.8411 20.2656ZM34.8411 19.9531C34.1911 19.9531 33.5879 20.3281 33.3598 20.4906C32.8879 20.8219 32.5317 21.3469 32.3098 22.0531C32.2348 22.275 32.1911 23.1594 32.3161 23.3344C32.3545 23.3884 32.4092 23.4288 32.4721 23.4496C32.5351 23.4704 32.603 23.4705 32.6661 23.45C32.9723 23.3563 33.5036 23.1813 33.7817 23.0188C34.1504 22.7969 34.5473 22.4063 34.7942 22.025C35.1129 21.5188 35.3942 20.775 35.2348 20.1906C35.2179 20.1284 35.182 20.073 35.1322 20.0322C35.0823 19.9913 35.021 19.9669 34.9567 19.9625C34.9192 19.9531 34.8817 19.9531 34.8411 19.9531Z" fill="#10BAB2"/>
<path d="M32.5809 16.4844C32.9622 16.7063 33.1528 17.1781 33.2434 17.575C33.3559 18.0781 33.2059 18.65 33.0309 19.1688C32.9278 19.4594 32.4997 20.0719 32.5028 20.0719C32.4997 20.0719 31.9528 19.5844 31.7934 19.2781C31.6122 18.9437 31.5434 18.4469 31.6059 18.05C31.6872 17.5281 32.0403 16.8031 32.5809 16.4844ZM32.5809 16.1719C32.5247 16.1719 32.4716 16.1875 32.4216 16.2156C31.7778 16.5969 31.3903 17.4125 31.2997 18.0062C31.2216 18.4781 31.3091 19.0406 31.5216 19.4281C31.5778 19.5375 32.2341 20.3844 32.5059 20.3844C32.6184 20.3844 32.7216 20.325 32.7747 20.2312L32.7997 20.1938C32.9841 19.9156 33.2403 19.5187 33.3278 19.2719C33.5122 18.725 33.6778 18.0938 33.5497 17.5063C33.4528 17.0719 33.2309 16.4969 32.7403 16.2125C32.6903 16.1844 32.6341 16.1719 32.5809 16.1719Z" fill="#10BAB2"/>
<path d="M36.0278 17.5813C36.0997 17.5813 36.1715 17.5875 36.2403 17.5969C36.2872 18.0688 35.909 18.6907 35.5559 19.0907C35.2872 19.3907 34.8653 19.7157 34.4809 19.8875C34.1309 20.0438 33.3497 20.2 33.3497 20.2C33.3465 20.2 33.4153 19.5063 33.5684 19.225C33.8278 18.7313 34.2122 18.2282 34.7559 17.9438C35.1184 17.75 35.5997 17.5813 36.0278 17.5813ZM36.0278 17.2688C35.4247 17.2688 34.8309 17.55 34.6059 17.6688C34.0778 17.9469 33.634 18.4219 33.2903 19.0813C33.1965 19.25 32.959 20.1532 33.0809 20.3594C33.1372 20.4563 33.2403 20.5125 33.3497 20.5125C33.3715 20.5125 33.3965 20.5094 33.4184 20.5032C33.7434 20.4344 34.3059 20.3063 34.609 20.1719C35.0122 19.9876 35.4747 19.6469 35.7872 19.2969C36.1965 18.8344 36.609 18.1375 36.5528 17.5625C36.5372 17.4219 36.4309 17.3063 36.2903 17.2844C36.2028 17.275 36.1153 17.2688 36.0278 17.2688Z" fill="#10BAB2"/>
<path d="M6.6377 17.1499V20.8555C6.23774 20.7926 5.8764 20.6519 5.59675 20.4347C5.22261 20.1441 4.9502 19.6838 4.9502 18.953C4.9502 18.1468 5.31105 17.7135 5.66057 17.4646C5.84332 17.3344 6.02882 17.2519 6.1696 17.2022C6.23929 17.1776 6.29599 17.1618 6.33308 17.1525C6.33685 17.1516 6.34041 17.1507 6.34375 17.1499H6.6377ZM26.3254 17.1499C26.3287 17.1507 26.3323 17.1516 26.3361 17.1525C26.3732 17.1618 26.4299 17.1776 26.4995 17.2022C26.6403 17.2519 26.8258 17.3344 27.0086 17.4646C27.3581 17.7135 27.7189 18.1468 27.7189 18.953C27.7189 19.6838 27.4465 20.1441 27.0724 20.4347C26.7927 20.6519 26.4314 20.7926 26.0314 20.8555V17.1499H26.3254Z" stroke="#10BAB2"/>
<path d="M7.32227 18.4595C7.32227 14.1759 7.84448 10.7002 9.21812 8.31938C9.89288 7.14989 10.7694 6.25134 11.899 5.63783C13.0336 5.02155 14.4798 4.6626 16.3348 4.6626C18.1897 4.6626 19.6359 5.02155 20.7706 5.63783C21.9001 6.25134 22.7766 7.14989 23.4514 8.31938C24.8251 10.7002 25.3473 14.1759 25.3473 18.4595C25.3473 22.7445 23.9767 25.262 22.2628 26.7266C20.5176 28.218 18.2723 28.7407 16.3348 28.7407C14.3697 28.7407 12.125 28.2027 10.3866 26.7037C8.67813 25.2305 7.32227 22.7114 7.32227 18.4595Z" stroke="#10BAB2" stroke-width="2"/>
<path d="M12.5375 19.2594C12.5375 19.9697 12.0801 20.375 11.7 20.375C11.3216 20.375 10.8594 19.9648 10.8594 19.2594C10.8594 18.55 11.3188 18.1414 11.6989 18.1406C12.0811 18.143 12.5375 18.5505 12.5375 19.2594ZM20.9687 20.375C20.5849 20.375 20.1281 19.9689 20.1281 19.2594C20.1281 18.5521 20.5863 18.143 20.9698 18.1406C21.3461 18.1414 21.8062 18.5491 21.8062 19.2594C21.8062 19.9665 21.3458 20.375 20.9687 20.375ZM14.4674 25.6993C14.164 25.539 13.9374 25.3651 13.7873 25.2219H18.8815C18.7313 25.3651 18.5048 25.539 18.2013 25.6993C17.7285 25.9489 17.0963 26.15 16.3344 26.15C15.5724 26.15 14.9402 25.9489 14.4674 25.6993Z" stroke="#10BAB2"/>
<path d="M17.8514 22.6682C17.8953 22.6171 17.9295 22.5695 17.9529 22.5282C18.0279 22.397 17.9435 22.197 17.7342 22.2564M17.8514 22.6682L17.8511 22.6686C17.8299 22.6932 17.8065 22.7186 17.7809 22.7445C17.758 22.7425 17.7323 22.7377 17.7045 22.7281C17.627 22.7014 17.567 22.6494 17.5295 22.591C17.4719 22.5013 17.4673 22.4011 17.501 22.317C17.5197 22.3126 17.5385 22.3081 17.5572 22.3034C17.5578 22.3033 17.5583 22.3032 17.5588 22.303C17.6174 22.2885 17.6759 22.2729 17.7342 22.2564M17.8514 22.6682L17.7843 22.4324L17.7841 22.4318L17.7342 22.2564M17.8514 22.6682L17.7342 22.2564M17.4913 22.3193C17.0762 22.4167 16.6636 22.4626 16.3342 22.4626C16.0044 22.4626 15.5915 22.4144 15.1759 22.318C15.2279 22.3839 15.3465 22.5057 15.5341 22.6214C15.7551 22.7576 16.0309 22.8595 16.3342 22.8595C16.6374 22.8595 16.9133 22.7576 17.1342 22.6214C17.3206 22.5065 17.4389 22.3855 17.4913 22.3193Z" stroke="#10BAB2"/>
<path d="M16.5721 2.53427C16.5721 2.53427 16.4158 2.52802 16.3502 2.53115C16.2846 2.53115 16.1283 2.53427 16.1283 2.53427C7.56582 2.69677 4.98145 7.8499 4.98145 11.4249C4.98145 14.8968 4.98457 17.4499 4.98457 17.4499C4.98457 17.4499 5.12207 17.3093 5.37207 17.1124C5.64082 16.903 5.9377 16.7874 5.9377 16.7874L6.36895 19.6874L9.22207 13.7249C9.24082 13.6874 9.27832 13.6655 9.31895 13.6718L11.0096 13.8593C12.7096 14.0468 14.4189 14.1405 16.1252 14.1436V14.1468C16.2002 14.1468 16.2721 14.1436 16.3471 14.1436C16.4221 14.1436 16.4939 14.1468 16.5689 14.1468V14.1436C18.2752 14.1374 19.9846 14.0468 21.6846 13.8593L23.3752 13.6718C23.4158 13.6686 23.4533 13.6905 23.4721 13.7249L26.3252 19.6874L26.7564 16.7874C26.7564 16.7874 27.0533 16.9061 27.3221 17.1124C27.5752 17.3093 27.7096 17.4499 27.7096 17.4499C27.7096 17.4499 27.7127 14.8999 27.7127 11.4249C27.7189 7.8499 25.1377 2.69677 16.5721 2.53427Z" fill="#10BAB2"/>
<path d="M31.71 34.1132L31.71 34.1132C31.4629 34.0514 31.0742 34.0306 30.8098 34.0565C30.1936 34.1286 29.9067 34.3234 29.6765 34.4796C29.653 34.4956 29.6301 34.5112 29.6074 34.5262L31.71 34.1132ZM31.71 34.1132L31.7115 34.1136M31.71 34.1132L31.7115 34.1136M31.7115 34.1136C31.988 34.1818 32.1917 34.3753 32.3635 34.7138L32.5318 35.0454M31.7115 34.1136L32.5318 35.0454M32.5318 35.0454L32.8978 34.9796M32.5318 35.0454L32.8978 34.9796M32.8978 34.9796C33.4073 34.8881 34.2658 34.8014 34.4804 34.8061C34.554 34.8083 34.6068 34.8117 34.6518 34.8195C34.6955 34.8271 34.715 34.8364 34.722 34.8406C34.7221 34.8406 34.7223 34.8407 34.7224 34.8408C34.7252 34.8424 34.7301 34.8453 34.7385 34.8601C34.7497 34.8796 34.7725 34.9307 34.7841 35.0376C34.7988 35.177 34.7706 35.2283 34.7652 35.236L34.7651 35.2361C34.7634 35.2385 34.7589 35.2451 34.7409 35.2543C34.7202 35.265 34.6756 35.2819 34.5935 35.2897L34.5932 35.2897C34.4072 35.3075 34.2128 35.3195 34.0172 35.3287L33.3712 35.3589L33.5632 35.9765L33.635 36.2078L33.7463 36.5656L34.121 36.5593C34.206 36.5579 34.2806 36.556 34.3477 36.5543C34.4401 36.552 34.5185 36.55 34.5906 36.55V36.55L34.5965 36.55C34.7777 36.5478 34.8399 36.5948 34.8582 36.6129C34.8764 36.6309 34.9281 36.6965 34.9281 36.8937C34.9281 36.981 34.8972 37.0283 34.8529 37.0656C34.7959 37.1136 34.716 37.1409 34.6583 37.1446M32.8978 34.9796L34.6583 37.1446M34.6583 37.1446C34.5347 37.1514 34.1093 37.1306 33.6509 37.0866L33.3046 37.0534L33.153 37.3666L33.1212 37.4325L32.6858 38.0855L33.4623 38.2037C33.7443 38.2466 34.0148 38.2927 34.2058 38.3266C34.3757 38.3572 34.4494 38.4186 34.4779 38.4542C34.5032 38.4857 34.5233 38.533 34.5114 38.6163L34.5113 38.6163C34.5036 38.6701 34.4885 38.6994 34.4774 38.7155C34.4658 38.7325 34.4492 38.7487 34.4239 38.7639C34.3662 38.7986 34.2778 38.8184 34.1933 38.8158L34.1916 38.8158C34.011 38.8109 33.2386 38.6922 32.6946 38.5765L32.3694 38.5074L32.1798 38.7806L32.0736 38.9337L31.6236 39.5822L32.4022 39.7119C32.442 39.7186 32.4842 39.7251 32.5286 39.7315C32.5376 39.7331 32.5487 39.7349 32.5617 39.7365L32.653 39.7522L32.695 39.7594H32.7041C32.7134 39.7609 32.7245 39.7628 32.7402 39.7656L32.7428 39.7661C32.7631 39.7697 32.7924 39.775 32.823 39.7793L32.8582 39.7844H32.8625C32.8839 39.788 32.9089 39.7929 32.9426 39.7997L32.9911 39.8094H33.0049L33.0826 39.8227C33.0836 39.8229 33.085 39.8232 33.0869 39.8236C33.0926 39.8247 33.1027 39.8267 33.1147 39.8287C33.1252 39.8305 33.1372 39.8322 33.1507 39.8337C33.1724 39.8379 33.1998 39.8429 33.2286 39.8469L33.2582 39.8528C33.2582 39.8528 33.2582 39.8528 33.2582 39.8528C33.2602 39.8532 33.2628 39.8537 33.2661 39.8544C33.2839 39.8581 33.3197 39.8655 33.3581 39.8711L33.3795 39.8757C33.4073 39.882 33.4347 39.8872 33.4518 39.8904C33.4536 39.8907 33.4553 39.891 33.4569 39.8913L33.4799 39.8958L33.4861 39.8971C33.4875 39.8974 33.4881 39.8976 33.4881 39.8976L33.4975 39.8999L33.507 39.9019C33.5994 39.9212 33.6592 39.9425 33.6959 39.9602C33.7066 39.9654 33.7145 39.9698 33.7203 39.9734C33.7204 39.9848 33.7195 40.0028 33.7154 40.0287L33.7151 40.0306C33.7073 40.0819 33.6916 40.1093 33.6788 40.1258C33.6644 40.1444 33.6419 40.1642 33.6062 40.1827C33.5253 40.2244 33.4199 40.2366 33.3586 40.2305L33.3586 40.2305L33.3532 40.23C33.2459 40.2206 32.963 40.1715 32.6516 40.1025C32.3415 40.0337 32.0777 39.9614 31.967 39.9151L31.9236 39.8934L31.5378 39.7005L31.3475 39.9723C30.8214 39.9096 30.3669 39.7773 30.0292 39.6522C29.8321 39.5792 29.6768 39.5094 29.5729 39.459C29.5209 39.4338 29.482 39.4135 29.4571 39.4002C29.4447 39.3936 29.4359 39.3887 29.4307 39.3858L29.4265 39.3835L29.4266 39.3834L29.4195 39.3795C29.0414 39.1675 28.8702 39.0068 28.7747 38.8724C28.6791 38.7379 28.6277 38.5881 28.5609 38.3133L34.6583 37.1446ZM31.5906 40.4969C30.1844 40.4031 29.175 39.8156 29.175 39.8156L34.1986 39.816C34.2236 39.8997 34.2267 39.9961 34.2094 40.1062C34.1281 40.6375 33.5938 40.7562 33.3094 40.7281C33.025 40.7031 32.0688 40.5062 31.7563 40.3687L31.7 40.3406L31.5906 40.4969Z" stroke="#10BAB2"/>
<path d="M30.4953 35.0762C30.4236 35.1838 30.3404 35.3577 30.5033 35.3625M30.4953 35.0762L30.7701 35.2061C30.7326 35.2303 30.6966 35.2571 30.6627 35.2843M30.4953 35.0762L30.5033 35.0862V35.3625M30.5033 35.3625C30.5627 35.3625 30.6158 35.3218 30.6627 35.2843M30.5033 35.3625L30.5111 35.0959L30.6627 35.2843M30.6627 35.2843L30.5112 35.0949" stroke="#10BAB2"/>
<path d="M31.4906 8.56885C31.4906 9.20442 31.1943 9.91018 30.489 10.6531C29.7818 11.3979 28.7123 12.1236 27.318 12.7599C24.5325 14.0311 20.618 14.8688 16.2469 14.8688C11.8759 14.8688 7.96058 14.0303 5.17415 12.7587C3.77943 12.1222 2.70944 11.3964 2.00194 10.6516C1.2962 9.90862 1 9.2033 1 8.56885C1 7.94449 1.28674 7.29145 1.97427 6.62156C2.66996 5.94372 3.73006 5.29937 5.127 4.74375C7.9169 3.63409 11.8447 2.95947 16.2437 2.95947C20.6429 2.95947 24.5716 3.63335 27.3622 4.74265C28.7596 5.2981 29.82 5.94236 30.5159 6.6203C31.2036 7.29024 31.4906 7.94364 31.4906 8.56885Z" stroke="#10BAB2" stroke-width="2"/>
<path d="M9.37304 7.98844C9.37109 7.98556 9.36925 7.98278 9.36752 7.98009L11.316 1.54834C11.316 1.54829 11.316 1.54824 11.316 1.54819C11.4789 1.01149 12.0105 0.615723 12.6438 0.615723H19.8219C20.4554 0.615723 20.9849 1.00896 21.1503 1.54414C21.1503 1.54424 21.1503 1.54433 21.1504 1.54443L23.1226 7.98016C23.121 7.98268 23.1192 7.98528 23.1174 7.98795C23.0613 8.07069 22.9051 8.24655 22.501 8.44509C21.679 8.84898 19.9204 9.30322 16.2438 9.30322C12.567 9.30322 10.8094 8.84897 9.98822 8.44516C9.58461 8.24669 9.42887 8.07095 9.37304 7.98844Z" stroke="#10BAB2"/>
</g>
<defs>
<clipPath id="clip0_304_172">
<rect width="40" height="40" fill="white"/>
</clipPath>
</defs>
</svg>
