<svg width="22" height="22" viewBox="0 0 22 22" fill="none" xmlns="http://www.w3.org/2000/svg">
<path d="M7.63446 2.21743L7.63436 2.21753C6.71419 3.15138 6.24994 4.27055 6.24994 5.5625C6.24994 6.87805 6.71325 8.00436 7.63566 8.92678C8.55808 9.84919 9.68439 10.3125 10.9999 10.3125C12.3155 10.3125 13.4418 9.84919 14.3642 8.92678C15.2866 8.00436 15.7499 6.87805 15.7499 5.5625C15.7499 4.27055 15.2857 3.15138 14.3655 2.21753L14.3654 2.21743C13.4433 1.28263 12.3166 0.8125 10.9999 0.8125C9.68329 0.8125 8.55661 1.28263 7.63446 2.21743ZM0.249939 20.9375V21.1875H0.499939H21.4999H21.7499V20.9375V18.4625C21.7499 17.7858 21.553 17.156 21.1644 16.5784L21.1641 16.578C20.7761 16.0041 20.2613 15.5574 19.6242 15.2389L19.6243 15.2388L19.6195 15.2366C18.1802 14.5548 16.7453 14.0422 15.3151 13.6999L15.3149 13.6998C13.8833 13.3584 12.4448 13.1875 10.9999 13.1875C9.55503 13.1875 8.11706 13.3584 6.6864 13.6998L6.68628 13.6999C5.25508 14.0422 3.81975 14.5548 2.38042 15.2366L2.38039 15.2365L2.37564 15.2389C1.73858 15.5574 1.22415 16.0042 0.8372 16.5782C0.447464 17.1558 0.249939 17.7857 0.249939 18.4625V20.9375ZM14.899 15.6502L14.8991 15.6502C16.1915 15.9576 17.4541 16.4067 18.6869 16.998C19.0328 17.1832 19.2945 17.4031 19.4808 17.654C19.6618 17.8999 19.7499 18.1672 19.7499 18.4625V19.1875H2.24994V18.4625C2.24994 18.1674 2.33846 17.9002 2.52044 17.6542L2.52053 17.654C2.70577 17.4033 2.9669 17.1833 3.31298 16.998C4.54577 16.4067 5.80879 15.9576 7.10223 15.6502L7.10245 15.6502C8.39579 15.3416 9.69483 15.1875 10.9999 15.1875C12.305 15.1875 13.6046 15.3416 14.899 15.6502ZM9.05857 3.62143L9.05887 3.62113C9.59934 3.07973 10.2418 2.8125 10.9999 2.8125C11.758 2.8125 12.4011 3.07974 12.9427 3.62128C13.4831 4.16172 13.7499 4.80427 13.7499 5.5625C13.7499 6.32073 13.4831 6.96328 12.9427 7.50372C12.4011 8.04526 11.758 8.3125 10.9999 8.3125C10.2418 8.3125 9.59934 8.04527 9.05887 7.50387L9.05857 7.50357C8.51717 6.96309 8.24994 6.32059 8.24994 5.5625C8.24994 4.80441 8.51717 4.1619 9.05857 3.62143Z" fill="#10BAB2" stroke="#10BAB2" stroke-width="0.5"/>
</svg>
