<svg width="27" height="26" viewBox="0 0 27 26" fill="none" xmlns="http://www.w3.org/2000/svg">
<path d="M7.33333 11.6668V22.3335C7.33333 22.6871 7.19286 23.0263 6.94281 23.2763C6.69276 23.5264 6.35362 23.6668 6 23.6668H3.33333C2.97971 23.6668 2.64057 23.5264 2.39052 23.2763C2.14048 23.0263 2 22.6871 2 22.3335V13.0002C2 12.6465 2.14048 12.3074 2.39052 12.0574C2.64057 11.8073 2.97971 11.6668 3.33333 11.6668H7.33333ZM7.33333 11.6668C8.74782 11.6668 10.1044 11.1049 11.1046 10.1047C12.1048 9.10454 12.6667 7.74798 12.6667 6.3335V5.00016C12.6667 4.29292 12.9476 3.61464 13.4477 3.11454C13.9478 2.61445 14.6261 2.3335 15.3333 2.3335C16.0406 2.3335 16.7189 2.61445 17.219 3.11454C17.719 3.61464 18 4.29292 18 5.00016V11.6668H22C22.7072 11.6668 23.3855 11.9478 23.8856 12.4479C24.3857 12.948 24.6667 13.6263 24.6667 14.3335L23.3333 21.0002C23.1416 21.8181 22.7778 22.5205 22.2969 23.0014C21.8159 23.4824 21.2438 23.7159 20.6667 23.6668H11.3333C10.2725 23.6668 9.25505 23.2454 8.50491 22.4953C7.75476 21.7451 7.33333 20.7277 7.33333 19.6668" stroke="#40916C" stroke-width="3" stroke-linecap="round" stroke-linejoin="round"/>
</svg>
