<svg width="24" height="18" viewBox="0 0 24 18" fill="none" xmlns="http://www.w3.org/2000/svg">
<path d="M18.9618 2.70404C18.9512 2.80415 18.9449 2.91835 18.9421 3.04218L17.4363 3.72107C17.2253 3.68844 16.1794 3.74591 14.6193 3.0192C14.2238 2.83492 13.8374 2.73704 13.4662 2.73704C13.1303 2.73748 12.7993 2.81309 12.5004 2.95765C12.1064 2.87719 11.5389 2.67104 11.207 2.67178C10.456 2.67549 8.74869 3.25278 8.2758 3.30209C7.81313 3.34992 7.3367 3.47005 6.85714 3.66137C5.98559 3.42185 4.89292 3.03069 4.3077 2.81453L0.217056 0V9.05054L3.22328 10.4009C3.26688 10.3527 3.31676 10.2785 3.37096 10.1866L3.46404 10.2274C3.5096 10.3386 3.55988 10.4495 3.61486 10.5596C3.28494 11.0839 3.24567 11.6745 3.50921 12.188C3.73505 12.6274 4.1557 12.9359 4.62427 13.0223C4.6498 13.2959 4.74721 13.5606 4.91138 13.7901C5.20595 14.2006 5.67413 14.4456 6.16469 14.4456C6.20908 14.4456 6.25346 14.4438 6.29745 14.439C6.36736 14.6173 6.46987 14.7834 6.60302 14.9273C6.89916 15.2487 7.31392 15.433 7.74047 15.433C7.77189 15.433 7.80252 15.4323 7.83355 15.43C7.88775 15.6243 7.98005 15.8082 8.10888 15.9721C8.40542 16.3503 8.86299 16.5754 9.33352 16.5754C9.62574 16.5754 9.90499 16.4908 10.1513 16.3325C10.6273 16.621 11.0413 16.8238 11.4085 16.9484C11.5927 17.0192 11.7844 17.0555 11.98 17.0555C12.4426 17.0555 12.8916 16.8516 13.2121 16.4949C13.3311 16.3622 13.4277 16.2139 13.4984 16.0552C13.6369 16.0947 13.7807 16.115 13.9253 16.1152C14.4171 16.1152 14.8833 15.8879 15.2057 15.4905C15.3589 15.3021 15.4698 15.0863 15.5317 14.8561C15.5655 14.8583 15.5989 14.8594 15.6323 14.8594C16.2006 14.8594 16.7446 14.5446 17.0506 14.0378C17.211 13.7742 17.2961 13.4757 17.2976 13.1717C17.8593 13.0927 18.3538 12.7156 18.5945 12.1658C18.8318 11.6241 18.7673 11.0264 18.4362 10.5281L19.9661 9.71422C20.0053 9.84103 20.0438 9.95782 20.0811 10.0527L23.7829 8.19332V0.608808L18.9618 2.70404ZM18.9614 3.83007C18.9857 4.23125 19.0301 4.6847 19.0874 5.15818C18.7732 4.65986 18.3765 4.43258 17.884 4.31949L18.9614 3.83007ZM16.908 12.6381C16.0643 12.3641 14.3083 10.4154 14.3083 10.4154H14.3428C14.5216 10.4035 14.9076 10.2259 15.3409 10.3108C14.6606 9.75909 13.9124 10.2259 13.403 9.94002C13.5212 10.2978 14.0895 10.4105 14.2352 10.415L15.9178 12.2622C16.6798 13.0983 16.1492 14.1327 15.3852 14.2973C14.8727 14.0619 13.4253 12.4368 13.4253 12.4368C13.4748 12.4283 13.7682 12.3415 14.0671 12.3786C13.377 11.8914 12.5946 12.3141 12.1304 12.0082C12.3936 12.6218 13.2604 12.4646 13.3511 12.4498L14.2513 13.5347C14.9717 14.4023 14.4057 15.4045 13.6406 15.5402C12.9623 15.3151 12.522 14.5142 12.522 14.5142C12.5903 14.5039 12.8189 14.4078 13.1441 14.4523C12.5656 13.9737 11.892 14.4078 11.487 14.1353C11.7372 14.6499 12.361 14.5328 12.3959 14.5291C13.0196 15.4564 12.3727 16.4233 11.5998 16.4523H11.599L11.5982 16.4526C11.134 16.3766 10.6477 16.0262 10.0986 15.6666C10.2872 15.4693 10.4537 15.1227 10.4537 15.1227C11.0051 14.1802 10.2895 13.3467 9.55072 13.4182C10.1501 13.5728 10.5994 14.2951 10.1316 15.0971L9.9262 15.4234C9.70311 15.8071 9.35473 16.0389 9.09865 16.0103C8.70431 15.9651 8.14855 15.4215 8.38224 14.6548C8.47258 14.5769 9.34373 13.3189 9.34373 13.3189C9.9427 12.4083 9.27028 11.5366 8.52953 11.5662C9.11946 11.7542 9.53304 12.5009 9.02441 13.2759L8.31626 14.3181C8.07471 14.6866 7.76207 14.8954 7.46396 14.8568C7.00128 14.7975 6.67686 14.2647 6.75109 13.7149C6.74716 13.7182 7.2609 13.1758 7.2609 13.1758C7.94353 12.3337 7.35909 11.3935 6.61952 11.3441C7.18785 11.594 7.52641 12.3816 6.9463 13.0983L6.69571 13.3882C6.42078 13.7286 6.08968 13.9017 5.79982 13.8335C5.29393 13.7137 5.03078 12.8202 5.26998 12.5766C5.45811 12.3849 5.98638 11.7779 5.98638 11.7779C6.66861 10.9355 6.08496 9.99564 5.3446 9.94559C5.91332 10.1962 6.25189 10.9837 5.67177 11.7008L5.42119 11.99C5.14468 12.3334 4.8124 12.5058 4.52058 12.4357C3.91258 12.2903 3.60897 11.4042 4.19066 10.6849C4.19066 10.6849 3.9931 10.0924 3.90394 9.83917L3.61094 9.71089C4.29788 8.19999 5.33557 4.86527 5.38348 3.7574C5.88937 3.92759 7.22477 4.2902 7.36655 4.29094L7.36577 4.29169C8.80329 3.8653 10.3099 3.91239 10.9973 3.66174C11.22 3.58166 11.663 3.57647 12.1328 3.83007C11.8394 4.07293 11.5621 4.36213 11.2742 4.63168C10.586 5.27646 8.02758 6.28199 8.52089 7.33943C8.94665 8.2519 10.1458 9.1855 12.1571 7.71984L13.2883 7.57302L15.0475 8.39242L17.3019 10.5781C18.1059 11.356 17.6507 12.412 16.908 12.6381ZM17.4736 10.23C17.2151 9.77392 16.4096 9.02607 15.6492 8.41467L15.6445 8.41022C15.9952 8.42357 16.3632 7.8904 16.8389 7.84924C16.5066 7.60972 15.9559 7.88632 15.7843 7.93007C14.8381 8.17033 13.3676 7.04652 13.3676 7.04652L11.9607 7.23784C11.9607 7.23784 10.2875 9.16548 8.87791 7.57747C8.11241 6.71505 10.8865 5.58865 11.5699 4.94758C12.4454 4.12632 13.2254 3.12153 14.6657 3.80597C15.8621 4.37548 16.3334 4.34026 17.9382 4.60387C18.4166 4.68285 18.7481 4.88974 19.1035 5.29351C19.2709 6.62236 19.5415 8.09618 19.8011 9.12173C19.6672 9.22814 18.5191 9.95708 17.4736 10.23Z" fill="#10BAB2"/>
</svg>
