<svg width="41" height="38" viewBox="0 0 41 38" fill="none" xmlns="http://www.w3.org/2000/svg">
<path d="M7.86946 1.375C8.10417 1.10059 8.39555 0.880277 8.72354 0.729228C9.05153 0.578179 9.40836 0.499976 9.76946 0.5H31.1195C31.4806 0.499976 31.8374 0.578179 32.1654 0.729228C32.4934 0.880277 32.7847 1.10059 33.0195 1.375L39.542 8.985C40.1243 9.66458 40.4444 10.53 40.4445 11.425V12.0625C40.4446 13.2999 40.0581 14.5065 39.339 15.5136C38.6199 16.5206 37.6041 17.2778 36.4336 17.6794C35.2632 18.0809 33.9965 18.1067 32.8106 17.7532C31.6248 17.3996 30.579 16.6844 29.8195 15.7075C29.2648 16.4219 28.554 16.9999 27.7415 17.3973C26.9291 17.7947 26.0364 18.0008 25.132 18C24.2275 18.001 23.3348 17.7949 22.5222 17.3976C21.7097 17.0002 20.999 16.4221 20.4445 15.7075C19.8899 16.4221 19.1792 17.0002 18.3667 17.3976C17.5541 17.7949 16.6614 18.001 15.757 18C14.8525 18.001 13.9598 17.7949 13.1472 17.3976C12.3347 17.0002 11.624 16.4221 11.0695 15.7075C10.3099 16.6844 9.26416 17.3996 8.0783 17.7532C6.89244 18.1067 5.62575 18.0809 4.45527 17.6794C3.28479 17.2778 2.26901 16.5206 1.54991 15.5136C0.830813 14.5065 0.444322 13.2999 0.444458 12.0625V11.425C0.44449 10.53 0.7646 9.66458 1.34696 8.985L7.87196 1.3725L7.86946 1.375ZM12.3195 12.0625C12.3195 12.9742 12.6816 13.8485 13.3263 14.4932C13.9709 15.1378 14.8453 15.5 15.757 15.5C16.6686 15.5 17.543 15.1378 18.1876 14.4932C18.8323 13.8485 19.1945 12.9742 19.1945 12.0625C19.1945 11.731 19.3262 11.413 19.5606 11.1786C19.795 10.9442 20.1129 10.8125 20.4445 10.8125C20.776 10.8125 21.0939 10.9442 21.3283 11.1786C21.5628 11.413 21.6945 11.731 21.6945 12.0625C21.6945 12.9742 22.0566 13.8485 22.7013 14.4932C23.3459 15.1378 24.2203 15.5 25.132 15.5C26.0436 15.5 26.918 15.1378 27.5626 14.4932C28.2073 13.8485 28.5695 12.9742 28.5695 12.0625C28.5695 11.731 28.7012 11.413 28.9356 11.1786C29.17 10.9442 29.4879 10.8125 29.8195 10.8125C30.151 10.8125 30.4689 10.9442 30.7033 11.1786C30.9378 11.413 31.0695 11.731 31.0695 12.0625C31.0695 12.9742 31.4316 13.8485 32.0763 14.4932C32.7209 15.1378 33.5953 15.5 34.507 15.5C35.4186 15.5 36.293 15.1378 36.9376 14.4932C37.5823 13.8485 37.9445 12.9742 37.9445 12.0625V11.425C37.9445 11.1271 37.8381 10.8389 37.6445 10.6125L31.1195 3H9.76946L3.24446 10.6125C3.05083 10.8389 2.94444 11.1271 2.94446 11.425V12.0625C2.94446 12.9742 3.30662 13.8485 3.95128 14.4932C4.59593 15.1378 5.47028 15.5 6.38196 15.5C7.29364 15.5 8.16798 15.1378 8.81264 14.4932C9.45729 13.8485 9.81946 12.9742 9.81946 12.0625C9.81946 11.731 9.95115 11.413 10.1856 11.1786C10.42 10.9442 10.7379 10.8125 11.0695 10.8125C11.401 10.8125 11.7189 10.9442 11.9533 11.1786C12.1878 11.413 12.3195 11.731 12.3195 12.0625ZM4.19446 19.25C4.52598 19.25 4.84392 19.3817 5.07834 19.6161C5.31276 19.8505 5.44446 20.1685 5.44446 20.5V35.5H7.94446V23C7.94446 22.337 8.20785 21.7011 8.67669 21.2322C9.14553 20.7634 9.78142 20.5 10.4445 20.5H17.9445C18.6075 20.5 19.2434 20.7634 19.7122 21.2322C20.1811 21.7011 20.4445 22.337 20.4445 23V35.5H35.4445V20.5C35.4445 20.1685 35.5762 19.8505 35.8106 19.6161C36.045 19.3817 36.3629 19.25 36.6945 19.25C37.026 19.25 37.3439 19.3817 37.5783 19.6161C37.8128 19.8505 37.9445 20.1685 37.9445 20.5V35.5H39.1945C39.526 35.5 39.8439 35.6317 40.0783 35.8661C40.3128 36.1005 40.4445 36.4185 40.4445 36.75C40.4445 37.0815 40.3128 37.3995 40.0783 37.6339C39.8439 37.8683 39.526 38 39.1945 38H1.69446C1.36294 38 1.045 37.8683 0.810575 37.6339C0.576154 37.3995 0.444458 37.0815 0.444458 36.75C0.444458 36.4185 0.576154 36.1005 0.810575 35.8661C1.045 35.6317 1.36294 35.5 1.69446 35.5H2.94446V20.5C2.94446 20.1685 3.07615 19.8505 3.31057 19.6161C3.54499 19.3817 3.86294 19.25 4.19446 19.25ZM10.4445 35.5H17.9445V23H10.4445V35.5ZM22.9445 23C22.9445 22.337 23.2079 21.7011 23.6767 21.2322C24.1455 20.7634 24.7814 20.5 25.4445 20.5H30.4445C31.1075 20.5 31.7434 20.7634 32.2122 21.2322C32.6811 21.7011 32.9445 22.337 32.9445 23V30.5C32.9445 31.163 32.6811 31.7989 32.2122 32.2678C31.7434 32.7366 31.1075 33 30.4445 33H25.4445C24.7814 33 24.1455 32.7366 23.6767 32.2678C23.2079 31.7989 22.9445 31.163 22.9445 30.5V23ZM30.4445 23H25.4445V30.5H30.4445V23Z" fill="#10BAB2"/>
</svg>
