<svg width="70" height="70" viewBox="0 0 70 70" fill="none" xmlns="http://www.w3.org/2000/svg">
<path d="M35.0005 14.9639C23.9245 14.9639 14.9645 23.9241 14.9645 34.9999C14.9645 46.0757 23.9868 55.0359 35.0005 55.0359C46.0755 55.0359 55.0365 46.0757 55.0365 34.9999C55.0365 23.9241 46.0763 14.9639 35.0005 14.9639Z" fill="#08908C"/>
<path d="M33.9878 40.024H40.0118V43H29.2598L29.2118 40.864L34.3478 35.44C35.0998 34.624 35.6518 33.928 36.0038 33.352C36.3718 32.776 36.5558 32.184 36.5558 31.576C36.5558 30.936 36.3478 30.408 35.9318 29.992C35.5158 29.56 34.9878 29.344 34.3478 29.344C33.1478 29.344 32.1958 29.936 31.4918 31.12L29.1398 29.44C30.2758 27.36 32.0998 26.32 34.6118 26.32C36.0518 26.32 37.2838 26.768 38.3078 27.664C39.3318 28.56 39.8438 29.744 39.8438 31.216C39.8438 32.192 39.6438 33.096 39.2438 33.928C38.8598 34.744 38.1478 35.688 37.1078 36.76L33.9878 39.976V40.024Z" fill="white"/>
</svg>
