<svg width="70" height="70" viewBox="0 0 70 70" fill="none" xmlns="http://www.w3.org/2000/svg">
<path d="M35.0005 14.9639C23.9245 14.9639 14.9645 23.9241 14.9645 34.9999C14.9645 46.0757 23.9868 55.0359 35.0005 55.0359C46.0755 55.0359 55.0365 46.0757 55.0365 34.9999C55.0365 23.9241 46.0763 14.9639 35.0005 14.9639Z" fill="#08908C"/>
<path d="M35.6116 32.44C37.0516 32.44 38.2516 32.912 39.2116 33.856C40.1876 34.8 40.6756 36.096 40.6756 37.744C40.6756 39.344 40.1076 40.656 38.9716 41.68C37.8516 42.688 36.4356 43.192 34.7236 43.192C33.0116 43.192 31.5956 42.584 30.4756 41.368C29.3556 40.136 28.7956 38.544 28.7956 36.592C28.7956 33.92 29.5956 31.6 31.1956 29.632C32.8116 27.664 34.9156 26.44 37.5076 25.96L38.4436 28.576C35.3876 29.44 33.4196 30.976 32.5396 33.184L32.5636 33.208C33.4596 32.696 34.4756 32.44 35.6116 32.44ZM34.8196 40.264C35.5876 40.264 36.2196 40.016 36.7156 39.52C37.2276 39.008 37.4836 38.392 37.4836 37.672C37.4836 36.936 37.2356 36.336 36.7396 35.872C36.2436 35.408 35.5876 35.176 34.7716 35.176C33.6676 35.176 32.7156 35.664 31.9156 36.64V36.88C31.9156 37.888 32.1956 38.704 32.7556 39.328C33.3156 39.952 34.0036 40.264 34.8196 40.264Z" fill="white"/>
</svg>
