<svg width="70" height="70" viewBox="0 0 70 70" fill="none" xmlns="http://www.w3.org/2000/svg">
<path d="M35.0005 14.9639C23.9245 14.9639 14.9645 23.9241 14.9645 34.9999C14.9645 46.0757 23.9868 55.0359 35.0005 55.0359C46.0755 55.0359 55.0365 46.0757 55.0365 34.9999C55.0365 23.9241 46.0763 14.9639 35.0005 14.9639Z" fill="#08908C"/>
<path d="M37.7559 34.096C38.6199 34.416 39.3239 34.952 39.8679 35.704C40.4119 36.456 40.6839 37.368 40.6839 38.44C40.6839 39.88 40.1159 41.032 38.9799 41.896C37.8439 42.76 36.4119 43.192 34.6839 43.192C32.9559 43.192 31.5319 42.752 30.4119 41.872C29.2919 40.992 28.7319 39.848 28.7319 38.44C28.7319 37.368 28.9959 36.456 29.5239 35.704C30.0679 34.952 30.7719 34.416 31.6359 34.096V34.048C31.0919 33.824 30.6119 33.4 30.1959 32.776C29.7799 32.136 29.5719 31.416 29.5719 30.616C29.5719 29.272 30.0519 28.224 31.0119 27.472C31.9719 26.704 33.1959 26.32 34.6839 26.32C36.2039 26.32 37.4359 26.704 38.3799 27.472C39.3399 28.24 39.8199 29.288 39.8199 30.616C39.8199 31.416 39.6119 32.136 39.1959 32.776C38.7959 33.4 38.3159 33.824 37.7559 34.048V34.096ZM36.1959 29.56C35.7959 29.192 35.2919 29.008 34.6839 29.008C34.0759 29.008 33.5719 29.2 33.1719 29.584C32.7879 29.952 32.5959 30.4 32.5959 30.928C32.5959 31.472 32.7879 31.92 33.1719 32.272C33.5719 32.608 34.0759 32.776 34.6839 32.776C35.3079 32.776 35.8119 32.608 36.1959 32.272C36.5959 31.92 36.7959 31.472 36.7959 30.928C36.7959 30.384 36.5959 29.928 36.1959 29.56ZM34.6839 40.408C35.4679 40.408 36.1079 40.176 36.6039 39.712C37.0999 39.248 37.3479 38.68 37.3479 38.008C37.3479 37.304 37.0999 36.728 36.6039 36.28C36.1079 35.832 35.4679 35.608 34.6839 35.608C33.8999 35.608 33.2599 35.832 32.7639 36.28C32.2679 36.728 32.0199 37.304 32.0199 38.008C32.0199 38.696 32.2759 39.272 32.7879 39.736C33.2999 40.184 33.9319 40.408 34.6839 40.408Z" fill="white"/>
</svg>
