<svg width="24" height="24" viewBox="0 0 24 24" fill="none" xmlns="http://www.w3.org/2000/svg">
<g clip-path="url(#clip0_31_37)">
<path d="M7.07812 7.03125V14.0625H14.8125H22.5469V7.03125V-9.53674e-07H14.8125H7.07812V7.03125ZM12.7031 3.51562V5.625H14.8125H16.9219V3.51562V1.40625H19.0312H21.1406V7.03125V12.6562H14.8125H8.48438V7.03125V1.40625H10.5938H12.7031V3.51562ZM15.5156 2.8125V4.21875H14.8125H14.1094V2.8125V1.40625H14.8125H15.5156V2.8125Z" fill="#08908C"/>
<path d="M8.66719 15.6328C8.10469 15.7875 7.52344 16.2516 7.30781 16.7203L7.19531 16.9687H3.6H0V20.4844V24H2.83594H5.67188V23.2969V22.5938H14.8359H24V21.4453C24 20.7703 23.9766 20.1984 23.9484 20.0531C23.775 19.2469 23.1234 18.5953 22.3219 18.4266C22.1625 18.3937 21.3984 18.375 20.2031 18.375H18.3281V16.9687V15.5625L13.6078 15.5672C9.9375 15.5719 8.83594 15.5859 8.66719 15.6328ZM16.9219 17.6719V18.375H14.8125H12.7031V19.0781V19.7812H17.3672C21.9516 19.7812 22.0359 19.7812 22.2188 19.875C22.5 20.0203 22.5938 20.2406 22.5938 20.7656V21.1875H14.1328H5.67188V19.7812V18.375H7.07813H8.48438V17.9391C8.48906 17.4281 8.56406 17.25 8.84063 17.0812L9.02344 16.9687H12.975H16.9219V17.6719ZM4.26562 20.4844V22.5938H2.83594H1.40625V20.4844V18.375H2.83594H4.26562V20.4844Z" fill="#08908C"/>
</g>
<defs>
<clipPath id="clip0_31_37">
<rect width="24" height="24" fill="white"/>
</clipPath>
</defs>
</svg>
