<svg width="32" height="32" viewBox="0 0 32 32" fill="none" xmlns="http://www.w3.org/2000/svg">
<rect width="32" height="32" rx="4" fill="#10BAB2"/>
<rect width="32" height="32" rx="4" fill="white" fill-opacity="0.8"/>
<g clip-path="url(#clip0_27_481)">
<path d="M7.47919 6.72502C7.12919 6.83336 6.84169 7.07502 6.68336 7.37919C6.62919 7.49586 6.32086 8.62919 5.95419 10.0917C5.34586 12.525 5.32502 12.6125 5.35002 12.925C5.46669 14.5542 6.73336 15.875 8.27919 15.9834C9.18752 16.05 10.0584 15.7084 10.7209 15.0292L11 14.7375L11.2834 15.025C12.5375 16.3167 14.4625 16.3167 15.7209 15.025L16 14.7375L16.2834 15.025C17.5375 16.3167 19.4625 16.3167 20.7209 15.025L21 14.7375L21.2834 15.0292C21.9417 15.7084 22.8125 16.05 23.7209 15.9834C25.2667 15.875 26.5334 14.5542 26.65 12.925C26.675 12.6125 26.6542 12.525 26.0459 10.0917C25.6792 8.62919 25.3709 7.49586 25.3167 7.37919C25.1959 7.14169 24.9334 6.89586 24.6709 6.77502L24.4792 6.68752L16.0625 6.67919C9.37919 6.67502 7.61252 6.68336 7.47919 6.72502Z" fill="#10BAB2"/>
<path d="M10.7292 16.7167C10.4584 16.8875 9.92085 17.1042 9.52085 17.2084C8.69585 17.4209 7.61252 17.3292 6.82085 16.9834L6.66669 16.9167L6.67502 20.6125L6.68752 24.3125L6.79585 24.5459C6.93335 24.8417 7.15835 25.0667 7.45419 25.2042L7.68752 25.3125L10.5125 25.325L13.3334 25.3375L16.2834 25.3125H17.1302L18.224 25.3375H18.6667L21.4917 25.325L24.3125 25.3125L24.5459 25.2042C24.8417 25.0667 25.0667 24.8417 25.2042 24.5459L25.3125 24.3125L25.325 20.6125L25.3334 16.9167L25.1792 16.9834C24.6292 17.225 23.8084 17.3625 23.1875 17.3167C22.55 17.275 21.8042 17.0417 21.2875 16.725C21.1584 16.65 21.0292 16.5834 21 16.5834C20.975 16.5834 20.8459 16.6459 20.7167 16.7209C19.4125 17.4834 17.5875 17.4834 16.2834 16.7209C16.1542 16.6459 16.025 16.5834 16 16.5834C15.975 16.5834 15.8459 16.6459 15.7167 16.7209C14.4125 17.4834 12.5875 17.4834 11.2834 16.7209C11.1542 16.6459 11.025 16.5834 10.9917 16.5834C10.9625 16.5834 10.8459 16.6459 10.7292 16.7167Z" fill="#10BAB2"/>
</g>
<defs>
<clipPath id="clip0_27_481">
<rect width="21.3333" height="21.3333" fill="white" transform="translate(5.33337 5.33334)"/>
</clipPath>
</defs>
</svg>
