<svg width="42" height="42" viewBox="0 0 42 42" fill="none" xmlns="http://www.w3.org/2000/svg">
<rect width="42" height="42" rx="4" fill="#10BAB2"/>
<rect width="42" height="42" rx="4" fill="white" fill-opacity="0.9"/>
<path d="M25 12H10V25H25V12Z" stroke="#10BAB2" stroke-width="1.8" stroke-linecap="round" stroke-linejoin="round"/>
<path d="M25 17H29L32 20V25H25V17Z" stroke="#10BAB2" stroke-width="1.8" stroke-linecap="round" stroke-linejoin="round"/>
<path d="M14.5 30C15.8807 30 17 28.8807 17 27.5C17 26.1193 15.8807 25 14.5 25C13.1193 25 12 26.1193 12 27.5C12 28.8807 13.1193 30 14.5 30Z" stroke="#10BAB2" stroke-width="1.8" stroke-linecap="round" stroke-linejoin="round"/>
<path d="M27.5 30C28.8807 30 30 28.8807 30 27.5C30 26.1193 28.8807 25 27.5 25C26.1193 25 25 26.1193 25 27.5C25 28.8807 26.1193 30 27.5 30Z" stroke="#10BAB2" stroke-width="1.8" stroke-linecap="round" stroke-linejoin="round"/>
</svg>
