<svg width="24" height="24" viewBox="0 0 24 24" fill="none" xmlns="http://www.w3.org/2000/svg">
<g clip-path="url(#clip0_218_12831)">
<path d="M8.39043 0.0703144C6.25293 0.445314 4.63574 2.10469 4.31699 4.25156C4.28887 4.43438 4.26543 4.91719 4.26543 5.31563V6.04219L4.06387 6.18281C3.76387 6.38438 3.3748 6.82969 3.19668 7.15781C3.00449 7.51875 2.85918 8.08125 2.85918 8.45625C2.86387 9.78281 3.81074 10.9594 5.08574 11.2266C5.26855 11.2641 5.47949 11.2969 5.56387 11.2969C5.72324 11.2969 5.7373 11.3156 5.79355 11.6484C5.84512 11.9625 6.09355 12.6094 6.29043 12.9609C6.54355 13.4109 6.95137 13.9359 7.24668 14.1891L7.48574 14.4L7.35918 14.9156C7.28418 15.1969 7.21855 15.4359 7.20918 15.4453C7.20449 15.4547 6.52012 15.5484 5.69512 15.6563C4.0123 15.8719 3.63262 15.9422 3.19199 16.1063C1.67324 16.6781 0.548242 17.9344 0.131055 19.5234C0.0373047 19.8703 0.0279297 20.0531 0.0138672 21.9516L-0.00488281 24H11.9951H23.9998V18.3516V12.7031H19.5186C15.267 12.7031 15.0373 12.6984 15.0748 12.6188C15.1732 12.3938 15.4217 11.6344 15.4217 11.5453C15.4217 11.3578 15.4732 11.2969 15.6279 11.2969C15.9139 11.2922 16.4342 11.1563 16.7811 10.9875C17.2639 10.7484 17.7795 10.2328 18.0186 9.75C18.4311 8.90625 18.417 7.96406 17.9904 7.15781C17.8123 6.82969 17.4232 6.38438 17.1232 6.18281L16.9217 6.04219V5.31563C16.9217 4.52344 16.8748 4.09219 16.7248 3.58594C16.1857 1.71094 14.6154 0.34219 12.6701 0.0515633C12.1732 -0.0234356 8.84043 -0.00937271 8.39043 0.0703144ZM12.867 1.50938C14.1467 1.89844 15.0514 2.80781 15.4076 4.05469C15.4451 4.18125 15.4873 4.59844 15.5014 4.97813L15.5295 5.67188H10.5936H5.65762L5.68574 4.97813C5.71387 4.275 5.76074 4.02188 5.95293 3.5625C6.37949 2.55938 7.38262 1.71094 8.39043 1.50469C8.53105 1.47656 8.69043 1.44375 8.74199 1.43438C8.79355 1.425 9.68887 1.42031 10.7342 1.425C12.2764 1.43438 12.6748 1.44844 12.867 1.50938ZM13.8045 7.78125L13.1014 8.48438H10.5936H8.08574L7.38262 7.78125L6.67949 7.07813H10.5936H14.5076L13.8045 7.78125ZM5.67168 8.99531V9.90469L5.4748 9.87188C5.17012 9.825 4.90293 9.68438 4.6873 9.46875C4.39668 9.17813 4.28887 8.91094 4.29355 8.48438C4.29824 8.0625 4.42012 7.76719 4.70605 7.48594L4.89355 7.30781L5.28262 7.69688L5.67168 8.08594V8.99531ZM16.6545 7.68281C16.842 7.96875 16.8982 8.16563 16.8982 8.50781C16.8936 9.20156 16.4107 9.75938 15.7123 9.87188L15.5154 9.90469V8.99531V8.08594L15.8951 7.70625L16.2795 7.32188L16.4107 7.42031C16.4857 7.47188 16.5936 7.59375 16.6545 7.68281ZM10.5936 9.89063H13.7061L13.9123 9.68906L14.1186 9.49219L14.0951 10.3359C14.0623 11.4047 13.9498 11.8453 13.5326 12.5016L13.4061 12.7031H12.3514H11.2967V13.3781V14.0531L10.9404 14.0859C9.2248 14.25 7.67793 13.1672 7.18574 11.4609C7.13887 11.3109 7.10605 10.9125 7.09199 10.3594L7.06855 9.49219L7.2748 9.68906L7.48105 9.89063H10.5936ZM15.5154 16.2188V18.3281H17.6248H19.7342V16.2188V14.1094H21.1639H22.5936V18.3516V22.5938H17.6482H12.7029V18.3516V14.1094H14.1092H15.5154V16.2188ZM18.3279 15.5156V16.9219H17.6248H16.9217V15.5156V14.1094H17.6248H18.3279V15.5156ZM9.39824 15.3563C9.81074 15.4688 9.95605 15.4828 10.5795 15.4875L11.2967 15.4922V16.8797V18.2672L11.0529 18.3C10.2186 18.3984 9.36543 18.1969 8.66699 17.7375C8.34355 17.5219 7.71543 16.8984 7.75293 16.8328C7.76699 16.8094 7.90762 16.7813 8.0623 16.7625C8.33418 16.7297 8.34355 16.725 8.38574 16.5563C8.40918 16.4625 8.49824 16.1109 8.58262 15.7828C8.72324 15.2344 8.74668 15.1828 8.83574 15.2016C8.8873 15.2156 9.14043 15.2813 9.39824 15.3563ZM6.3748 17.3391C7.2748 18.8578 9.02793 19.8 10.7951 19.7203L11.2967 19.6969V21.1453V22.5938H6.34668H1.39668L1.42012 21.3188C1.43887 19.9031 1.46699 19.7484 1.7623 19.1531C2.21699 18.2531 3.07949 17.5547 4.03105 17.3203C4.29824 17.2547 5.80762 17.0344 6.07949 17.0203C6.15918 17.0156 6.2248 17.0859 6.3748 17.3391Z" fill="#08908C"/>
<path d="M8.48438 3.51562V4.21875H10.5938H12.7031V3.51562V2.8125H10.5938H8.48438V3.51562Z" fill="#08908C"/>
<path d="M4.26562 20.4375V21.1406H5.67188H7.07812V20.4375V19.7344H5.67188H4.26562V20.4375Z" fill="#08908C"/>
</g>
<defs>
<clipPath id="clip0_218_12831">
<rect width="24" height="24" fill="white"/>
</clipPath>
</defs>
</svg>
