<svg width="18" height="19" viewBox="0 0 18 19" fill="none" xmlns="http://www.w3.org/2000/svg">
<path d="M13.1951 0.0658154C12.7545 0.258003 12.6138 0.853316 12.9232 1.22363C13.1248 1.46269 13.2795 1.50019 14.0248 1.50019H14.6951L13.3732 2.82207C11.9482 4.25175 11.9435 4.26113 12.0232 4.67363C12.0654 4.90332 12.3467 5.18457 12.5763 5.22675C12.9888 5.30644 12.9982 5.30175 14.4232 3.88144L15.7451 2.56425L15.7592 3.2955C15.7732 3.94707 15.7826 4.04082 15.8717 4.15332C16.0545 4.40175 16.2045 4.47675 16.4998 4.47675C16.7951 4.47675 16.9451 4.40175 17.1279 4.15332C17.2217 4.02675 17.2263 3.9705 17.2263 2.25488V0.483003L17.0998 0.318941C16.856 0.00487804 16.842 0.000190735 14.9904 0.000190735C13.7201 0.00487804 13.3029 0.0189404 13.1951 0.0658154Z" fill="#08908C"/>
<path d="M7.78584 0.121952C5.56866 0.421953 3.52959 1.55633 2.08584 3.28602C0.337406 5.38133 -0.370407 8.22664 0.196781 10.8751C0.693656 13.2001 2.03428 15.1829 4.00303 16.5048C7.55147 18.8907 12.3046 18.436 15.3327 15.422C16.8327 13.9266 17.7515 11.986 17.9577 9.86726C18.0562 8.8782 17.9296 7.35008 17.728 7.0782C17.6812 7.01258 17.5687 6.90945 17.4796 6.8532C17.3483 6.75945 17.2733 6.74539 17.0577 6.75945C16.5608 6.79695 16.3265 7.09227 16.378 7.63601C16.4483 8.37664 16.4624 9.55789 16.4108 9.96101C15.9187 13.6876 12.7218 16.5001 8.97647 16.5001C5.34366 16.5001 2.20772 13.8563 1.58897 10.2657C1.46241 9.52977 1.46241 8.47039 1.58897 7.73445C2.13272 4.57977 4.63116 2.11414 7.80459 1.58914C7.98741 1.56102 8.55928 1.52352 9.07959 1.50476C9.93272 1.48133 10.0358 1.46727 10.153 1.3782C10.3921 1.20008 10.4765 1.04539 10.4765 0.773516C10.4765 0.492266 10.3827 0.328203 10.1249 0.150078C9.97959 0.0516396 9.92803 0.0469532 9.12178 0.0516396C8.65303 0.0563278 8.05303 0.0844536 7.78584 0.121952Z" fill="#08908C"/>
<path d="M8.69511 3.81602C8.34824 3.97539 8.2498 4.20508 8.2498 4.84727V5.32539L7.9123 5.40508C7.11074 5.59727 6.50136 6.05195 6.21074 6.66602C5.83574 7.45352 5.98105 8.21758 6.64199 8.91602C7.13417 9.43164 7.80449 9.67539 8.91074 9.7457C9.8248 9.80664 10.1764 9.94258 10.4342 10.3363C10.6029 10.5895 10.317 10.9738 9.83886 11.1379C9.47792 11.2645 8.52167 11.2645 8.16074 11.1379C7.82324 11.0207 7.55605 10.777 7.51855 10.5566C7.46699 10.2285 7.40136 10.0832 7.24199 9.94258C6.83886 9.59102 6.19199 9.76914 6.0373 10.2754C5.9623 10.5332 6.04667 10.9926 6.23886 11.3816C6.52949 11.9535 7.26542 12.4926 7.94042 12.6285L8.22636 12.6895L8.2498 13.2332C8.27324 13.8191 8.31542 13.9223 8.59667 14.1285C8.77949 14.2645 9.22011 14.2645 9.40292 14.1285C9.68417 13.9223 9.72636 13.8191 9.7498 13.2332L9.77324 12.6941L10.1154 12.6051C11.1326 12.3473 11.817 11.6816 11.967 10.8004C12.0654 10.2191 11.8639 9.62852 11.3857 9.11758C10.8701 8.56445 10.2185 8.32539 9.06542 8.25039C8.68105 8.22695 8.29667 8.18945 8.21699 8.16133C7.81386 8.03945 7.4998 7.75352 7.4998 7.50039C7.4998 7.31289 7.67792 7.08789 7.93574 6.96602C8.27792 6.79727 8.66699 6.73633 9.1873 6.76445C9.9373 6.80664 10.4154 7.05508 10.4764 7.44414C10.5326 7.77227 10.5982 7.91758 10.7576 8.0582C11.2545 8.49414 11.9998 8.1332 11.9998 7.4582C11.9998 7.20039 11.8498 6.7457 11.6717 6.46914C11.3529 5.97227 10.6779 5.52695 10.0404 5.39102L9.75917 5.33477L9.74042 4.77695C9.72636 4.18164 9.68886 4.0832 9.4123 3.87695C9.25292 3.75977 8.88261 3.72695 8.69511 3.81602Z" fill="#08908C"/>
</svg>
