<svg width="24" height="24" viewBox="0 0 24 24" fill="none" xmlns="http://www.w3.org/2000/svg">
<path d="M7.69238 1.57469C6.9002 1.78562 6.28145 2.41844 6.07051 3.22C5.97207 3.59969 5.96738 10.5606 6.06582 10.9778L6.12676 11.2497H4.80957C3.77363 11.2497 3.42676 11.2638 3.21113 11.32C2.40488 11.5309 1.78145 12.1591 1.57051 12.97C1.46738 13.3684 1.46738 20.3809 1.57051 20.7794C1.78613 21.6138 2.4752 22.2794 3.29551 22.4528C3.46895 22.4856 4.67832 22.4997 7.24238 22.4903C11.3908 22.4716 11.1424 22.495 11.7096 22.1247L12.0002 21.9372L12.2908 22.1247C12.858 22.495 12.6096 22.4716 16.758 22.4903C19.3221 22.4997 20.5314 22.4856 20.7049 22.4528C21.5252 22.2794 22.2143 21.6138 22.4299 20.7794C22.5377 20.3716 22.533 13.3684 22.4299 12.9606C22.2189 12.1544 21.5908 11.5309 20.7799 11.32C20.5736 11.2638 20.2127 11.2497 19.1908 11.2497H17.8736L17.9346 10.9778C17.9861 10.7669 18.0002 9.97 18.0002 7.10125C18.0002 4.0075 17.9908 3.44969 17.9299 3.21062C17.7189 2.40437 17.0908 1.78094 16.2799 1.57C15.8861 1.46687 8.07676 1.47156 7.69238 1.57469ZM9.75957 4.32156C9.77363 5.58719 9.77832 5.6575 9.88145 5.85906C10.0455 6.19656 10.233 6.39344 10.5564 6.56688L10.8518 6.72625H12.0002H13.1486L13.3877 6.59969C13.7439 6.41219 13.8893 6.27156 14.0674 5.94344L14.2268 5.64812L14.2408 4.32156L14.2549 2.995L15.1408 3.00906C16.1064 3.02312 16.1486 3.03719 16.3783 3.34656C16.4768 3.47313 16.4768 3.51063 16.4768 7.12469C16.4768 10.7388 16.4768 10.7763 16.3783 10.9028C16.3268 10.9731 16.2236 11.0763 16.1533 11.1278C16.0268 11.2263 15.9939 11.2263 12.0002 11.2263C8.00645 11.2263 7.97363 11.2263 7.84707 11.1278C7.77676 11.0763 7.67363 10.9731 7.62207 10.9028C7.52363 10.7763 7.52363 10.7247 7.50957 7.25125C7.5002 5.31063 7.50957 3.66063 7.52363 3.57625C7.55645 3.38875 7.75332 3.14969 7.94551 3.06531C8.04395 3.02312 8.33457 3.00437 8.91582 2.99969H9.74551L9.75957 4.32156ZM12.7502 4.12469V5.24969H12.0002H11.2502V4.12469V2.99969H12.0002H12.7502V4.12469ZM4.50957 13.6966C4.52363 14.5684 4.53301 14.6669 4.63145 14.8591C4.79551 15.1919 4.98301 15.3934 5.30645 15.5669L5.60176 15.7263H7.1252H8.64863L8.94395 15.5669C9.27207 15.3888 9.4127 15.2434 9.6002 14.8872C9.72207 14.6528 9.72676 14.62 9.74082 13.6966L9.75957 12.7403L10.2658 12.7591C10.8143 12.7731 10.9221 12.8153 11.1283 13.0966C11.2268 13.2231 11.2268 13.2606 11.2268 16.8747C11.2268 20.4888 11.2268 20.5263 11.1283 20.6528C11.0768 20.7231 10.9736 20.8263 10.9033 20.8778C10.7768 20.9763 10.7393 20.9763 7.1252 20.9763C3.51113 20.9763 3.47363 20.9763 3.34707 20.8778C3.27676 20.8263 3.17363 20.7231 3.12207 20.6528C3.02363 20.5263 3.02363 20.4747 3.00957 17.0013C3.0002 15.0606 3.00957 13.4106 3.02363 13.3263C3.05645 13.1388 3.25332 12.8997 3.44551 12.8153C3.52988 12.7778 3.76895 12.7544 4.04082 12.7497H4.49082L4.50957 13.6966ZM8.2502 13.4997V14.2497H7.1252H6.0002V13.4997V12.7497H7.1252H8.2502V13.4997ZM14.2596 13.6966C14.2736 14.5684 14.283 14.6669 14.3814 14.8591C14.5455 15.1919 14.733 15.3934 15.0564 15.5669L15.3518 15.7263H16.8752H18.3986L18.6939 15.5669C19.0221 15.3888 19.1627 15.2434 19.3502 14.8872C19.4721 14.6528 19.4768 14.62 19.4908 13.6966L19.5096 12.7403L20.0158 12.7591C20.5643 12.7731 20.6721 12.8153 20.8783 13.0966C20.9768 13.2231 20.9768 13.2606 20.9768 16.8747C20.9768 20.4888 20.9768 20.5263 20.8783 20.6528C20.8268 20.7231 20.7236 20.8263 20.6533 20.8778C20.5268 20.9763 20.4893 20.9763 16.8752 20.9763C13.2611 20.9763 13.2236 20.9763 13.0971 20.8778C13.0268 20.8263 12.9236 20.7231 12.8721 20.6528C12.7736 20.5263 12.7736 20.4747 12.7596 17.0013C12.7502 15.0606 12.7596 13.4106 12.7736 13.3263C12.8064 13.1388 13.0033 12.8997 13.1955 12.8153C13.2799 12.7778 13.5189 12.7544 13.7908 12.7497H14.2408L14.2596 13.6966ZM18.0002 13.4997V14.2497H16.8752H15.7502V13.4997V12.7497H16.8752H18.0002V13.4997Z" fill="#08908C"/>
</svg>
