<svg width="24" height="24" viewBox="0 0 24 24" fill="none" xmlns="http://www.w3.org/2000/svg">
<g clip-path="url(#clip0_218_11025)">
<path d="M20 3H19V1H17V3H7V1H5V3H4C2.9 3 2 3.9 2 5V21C2 22.1 2.9 23 4 23H20C21.1 23 22 22.1 22 21V5C22 3.9 21.1 3 20 3ZM20 21H4V8H20V21Z" fill="#08908C"/>
<path d="M6.72086 12.7603C6.74753 12.0469 6.98086 11.4969 7.42086 11.1103C7.86086 10.7236 8.45753 10.5303 9.21086 10.5303C9.71086 10.5303 10.1375 10.6169 10.4909 10.7903C10.8509 10.9636 11.1209 11.2003 11.3009 11.5003C11.4875 11.8003 11.5809 12.1369 11.5809 12.5103C11.5809 12.9503 11.4709 13.3103 11.2509 13.5903C11.0309 13.8636 10.7742 14.0503 10.4809 14.1503V14.1903C10.8609 14.3169 11.1609 14.5269 11.3809 14.8203C11.6009 15.1136 11.7109 15.4903 11.7109 15.9503C11.7109 16.3636 11.6142 16.7303 11.4209 17.0503C11.2342 17.3636 10.9575 17.6103 10.5909 17.7903C10.2309 17.9703 9.80086 18.0603 9.30086 18.0603C8.50086 18.0603 7.86086 17.8636 7.38086 17.4703C6.90753 17.0769 6.65753 16.4836 6.63086 15.6903H8.29086C8.29753 15.9836 8.38086 16.2169 8.54086 16.3903C8.70086 16.5569 8.93419 16.6403 9.24086 16.6403C9.50086 16.6403 9.70086 16.5669 9.84086 16.4203C9.98753 16.2669 10.0609 16.0669 10.0609 15.8203C10.0609 15.5003 9.95753 15.2703 9.75086 15.1303C9.55086 14.9836 9.22753 14.9103 8.78086 14.9103H8.46086V13.5203H8.78086C9.12086 13.5203 9.39419 13.4636 9.60086 13.3503C9.81419 13.2303 9.92086 13.0203 9.92086 12.7203C9.92086 12.4803 9.85419 12.2936 9.72086 12.1603C9.58753 12.0269 9.40419 11.9603 9.17086 11.9603C8.91753 11.9603 8.72753 12.0369 8.60086 12.1903C8.48086 12.3436 8.41086 12.5336 8.39086 12.7603H6.72086Z" fill="#08908C"/>
<path d="M12.7155 14.2503C12.7155 13.1036 12.9355 12.2003 13.3755 11.5403C13.8222 10.8803 14.5389 10.5503 15.5255 10.5503C16.5122 10.5503 17.2255 10.8803 17.6655 11.5403C18.1122 12.2003 18.3355 13.1036 18.3355 14.2503C18.3355 15.4103 18.1122 16.3203 17.6655 16.9803C17.2255 17.6403 16.5122 17.9703 15.5255 17.9703C14.5389 17.9703 13.8222 17.6403 13.3755 16.9803C12.9355 16.3203 12.7155 15.4103 12.7155 14.2503ZM16.6555 14.2503C16.6555 13.5769 16.5822 13.0603 16.4355 12.7003C16.2889 12.3336 15.9855 12.1503 15.5255 12.1503C15.0655 12.1503 14.7622 12.3336 14.6155 12.7003C14.4689 13.0603 14.3955 13.5769 14.3955 14.2503C14.3955 14.7036 14.4222 15.0803 14.4755 15.3803C14.5289 15.6736 14.6355 15.9136 14.7955 16.1003C14.9622 16.2803 15.2055 16.3703 15.5255 16.3703C15.8455 16.3703 16.0855 16.2803 16.2455 16.1003C16.4122 15.9136 16.5222 15.6736 16.5755 15.3803C16.6289 15.0803 16.6555 14.7036 16.6555 14.2503Z" fill="#08908C"/>
</g>
<defs>
<clipPath id="clip0_218_11025">
<rect width="24" height="24" fill="white"/>
</clipPath>
</defs>
</svg>
