<svg width="24" height="24" viewBox="0 0 24 24" fill="none" xmlns="http://www.w3.org/2000/svg">
<path d="M6.30679 1.08585C5.86851 1.25772 5.84702 1.2921 4.13259 4.2655C3.25174 5.79088 2.50839 7.1229 2.47831 7.22602C2.42675 7.385 2.41815 8.64827 2.41815 14.5091C2.41815 22.3723 2.40097 21.8825 2.69745 22.3337C2.78338 22.4626 2.94666 22.6259 3.07557 22.7118C3.53103 23.0212 2.86073 22.9997 12.0001 22.9997C21.1394 22.9997 20.4691 23.0212 20.9246 22.7118C21.0535 22.6259 21.2168 22.4626 21.3027 22.3337C21.5992 21.8825 21.582 22.3766 21.582 14.4404V7.26899L21.4918 7.08852C21.4402 6.98969 20.6926 5.68776 19.8332 4.20105C18.1488 1.28351 18.1317 1.25343 17.6805 1.08585C17.4571 0.999914 17.341 0.999915 11.9872 1.00421C6.68491 1.00421 6.51303 1.00851 6.30679 1.08585ZM11.3556 4.37293V6.45689H7.87083C4.75993 6.45689 4.3861 6.44829 4.41188 6.39244C4.43337 6.33658 5.72671 4.07644 6.50874 2.72724L6.76655 2.28896H9.06105H11.3556V4.37293ZM18.4195 4.32996C19.0598 5.43854 19.6012 6.37525 19.6184 6.40103C19.6484 6.444 18.9481 6.45689 16.1723 6.45689H12.6876V4.37293V2.28896L14.9692 2.29756L17.2508 2.31045L18.4195 4.32996ZM20.293 14.6509C20.293 21.0145 20.2887 21.5602 20.2199 21.6333C20.1555 21.7063 19.8418 21.7106 12.0087 21.7106C4.48923 21.7106 3.85759 21.7063 3.78455 21.6376C3.7115 21.5731 3.7072 21.2981 3.7072 14.6552V7.74594H12.0001H20.293V14.6509Z" fill="#08908C"/>
<path fill-rule="evenodd" clip-rule="evenodd" d="M16.2071 12.5429C16.5976 12.9334 16.5976 13.5666 16.2071 13.9571L12.0821 18.0821C11.6916 18.4726 11.0584 18.4726 10.6679 18.0821L8.79289 16.2071C8.40237 15.8166 8.40237 15.1834 8.79289 14.7929C9.18342 14.4024 9.81658 14.4024 10.2071 14.7929L11.375 15.9608L14.7929 12.5429C15.1834 12.1524 15.8166 12.1524 16.2071 12.5429Z" fill="#08908C"/>
</svg>
