<svg width="24" height="24" viewBox="0 0 24 24" fill="none" xmlns="http://www.w3.org/2000/svg">
<path d="M1.61699 0.112698C1.22324 0.211134 0.92793 0.379885 0.62793 0.679884C0.323242 0.984571 0.135742 1.31738 0.0513672 1.7252C-0.0236328 2.08145 -0.0236328 21.9236 0.0513672 22.2752C0.224805 23.0814 0.87168 23.7283 1.67793 23.9018C2.0248 23.9768 12.9232 23.9768 13.2748 23.9018C13.8748 23.7752 14.4045 23.3721 14.6857 22.8424C14.8967 22.4299 14.9529 22.1486 14.9529 21.4924V20.9533H18.5154C20.9529 20.9533 22.1529 20.9346 22.3217 20.9018C23.1186 20.733 23.7795 20.0674 23.9482 19.2752C24.0232 18.9236 24.0186 12.5674 23.9482 12.2252C23.7748 11.4189 23.1232 10.7674 22.3217 10.5986C22.1529 10.5658 20.9529 10.5471 18.5154 10.5471H14.9529V6.25801C14.9529 3.24395 14.9389 1.89863 14.9014 1.7252C14.7279 0.918947 14.0764 0.267384 13.2748 0.0986347C12.8998 0.0189476 1.93574 0.0330086 1.61699 0.112698ZM13.1717 1.54707C13.2936 1.60801 13.392 1.70645 13.4529 1.82832C13.5467 2.01113 13.5467 2.08145 13.5467 12.0002C13.5467 21.9189 13.5467 21.9893 13.4529 22.1721C13.392 22.2939 13.2936 22.3924 13.1717 22.4533C12.9889 22.5471 12.9092 22.5471 7.47168 22.5471H1.95918L1.77168 22.4439C1.65918 22.3783 1.54668 22.2658 1.49512 22.1627C1.41074 21.9939 1.40605 21.7174 1.40605 11.9908C1.41074 2.45176 1.41543 1.98301 1.49512 1.83301C1.54199 1.74863 1.65918 1.62676 1.7623 1.56582L1.94512 1.45332H7.46699C12.9092 1.45332 12.9889 1.45332 13.1717 1.54707ZM22.2186 12.0471C22.5139 12.1971 22.5936 12.408 22.5936 13.0314V13.5471H18.7732H14.9529V12.7502V11.9533H18.492C21.9514 11.9533 22.0404 11.9533 22.2186 12.0471ZM22.5936 16.9689C22.5936 18.9002 22.5889 18.9986 22.4998 19.1721C22.4389 19.2939 22.3404 19.3924 22.2186 19.4533C22.0404 19.5471 21.9514 19.5471 18.492 19.5471H14.9529V17.2502V14.9533H18.7732H22.5936V16.9689Z" fill="#08908C"/>
<path d="M3.4125 3.14531C3.30469 3.20156 3.19688 3.30937 3.14062 3.42187C3.05156 3.6 3.04688 3.69375 3.04688 6.75C3.04688 9.81094 3.05156 9.9 3.14062 10.0781C3.20156 10.2 3.3 10.2984 3.42188 10.3594C3.6 10.4531 3.68906 10.4531 7.5 10.4531C11.3109 10.4531 11.4 10.4531 11.5781 10.3594C11.7 10.2984 11.7984 10.2 11.8594 10.0781C11.9484 9.9 11.9531 9.81094 11.9531 6.75C11.9531 3.68906 11.9484 3.6 11.8594 3.42187C11.7984 3.3 11.7 3.20156 11.5781 3.14062C11.4 3.04687 11.3109 3.04687 7.49063 3.04687C3.69375 3.05156 3.58125 3.05156 3.4125 3.14531ZM10.5469 6.75V9.04688H7.5H4.45312V6.75V4.45312H7.5H10.5469V6.75Z" fill="#08908C"/>
<path d="M4.1625 12.8953C3.96094 12.9984 3.79688 13.275 3.79688 13.5C3.79688 13.8562 4.14375 14.2031 4.5 14.2031C4.73438 14.2031 5.00156 14.0391 5.10938 13.8281C5.23125 13.5891 5.22656 13.3828 5.09531 13.1531C4.90313 12.8156 4.50938 12.7078 4.1625 12.8953Z" fill="#08908C"/>
<path d="M7.15299 12.9047C6.81549 13.0969 6.70768 13.4719 6.89049 13.8281C6.9983 14.0391 7.26549 14.2031 7.49986 14.2031C7.85611 14.2031 8.20299 13.8562 8.20299 13.5C8.20299 13.2656 8.03893 12.9984 7.82799 12.8906C7.58893 12.7687 7.38268 12.7734 7.15299 12.9047Z" fill="#08908C"/>
<path d="M10.1625 12.8953C9.96094 12.9984 9.79688 13.275 9.79688 13.5C9.79688 13.7344 9.96094 14.0016 10.1719 14.1094C10.2703 14.1609 10.4203 14.2031 10.5 14.2031C10.7344 14.2031 11.0016 14.0391 11.1094 13.8281C11.2313 13.5891 11.2266 13.3828 11.0953 13.1531C10.9031 12.8156 10.5094 12.7078 10.1625 12.8953Z" fill="#08908C"/>
<path d="M4.1625 15.8953C3.96094 15.9984 3.79688 16.275 3.79688 16.5C3.79688 16.8562 4.14375 17.2031 4.5 17.2031C4.73438 17.2031 5.00156 17.0391 5.10938 16.8281C5.23125 16.5891 5.22656 16.3828 5.09531 16.1531C4.90313 15.8156 4.50938 15.7078 4.1625 15.8953Z" fill="#08908C"/>
<path d="M7.15299 15.9047C6.81549 16.0969 6.70768 16.4719 6.89049 16.8281C6.9983 17.0391 7.26549 17.2031 7.49986 17.2031C7.85611 17.2031 8.20299 16.8562 8.20299 16.5C8.20299 16.2656 8.03893 15.9984 7.82799 15.8906C7.58893 15.7687 7.38268 15.7734 7.15299 15.9047Z" fill="#08908C"/>
<path d="M10.1625 15.8953C9.96094 15.9984 9.79688 16.275 9.79688 16.5C9.79688 16.7344 9.96094 17.0016 10.1719 17.1094C10.2703 17.1609 10.4203 17.2031 10.5 17.2031C10.8563 17.2031 11.2031 16.8563 11.2031 16.5C11.2031 16.2656 11.0391 15.9984 10.8281 15.8906C10.5984 15.7734 10.3875 15.7734 10.1625 15.8953Z" fill="#08908C"/>
<path d="M4.1625 18.8953C3.96094 18.9984 3.79688 19.275 3.79688 19.5C3.79688 19.8562 4.14375 20.2031 4.5 20.2031C4.73438 20.2031 5.00156 20.0391 5.10938 19.8281C5.23125 19.5891 5.22656 19.3828 5.09531 19.1531C4.90313 18.8156 4.50938 18.7078 4.1625 18.8953Z" fill="#08908C"/>
<path d="M7.17188 18.8859C6.975 18.9891 6.79688 19.275 6.79688 19.4906C6.79688 19.8562 7.13906 20.2031 7.5 20.2031C7.73438 20.2031 8.00156 20.0391 8.10938 19.8281C8.16094 19.7297 8.20312 19.5797 8.20312 19.5C8.20312 18.9891 7.62188 18.6422 7.17188 18.8859Z" fill="#08908C"/>
<path d="M10.1625 18.8953C9.96094 18.9984 9.79688 19.275 9.79688 19.5C9.79688 19.7344 9.96094 20.0016 10.1719 20.1094C10.2703 20.1609 10.4203 20.2031 10.5 20.2031C10.8563 20.2031 11.2031 19.8563 11.2031 19.5C11.2031 19.2656 11.0391 18.9984 10.8281 18.8906C10.5984 18.7734 10.3875 18.7734 10.1625 18.8953Z" fill="#08908C"/>
</svg>
