<svg width="83" height="76" viewBox="0 0 83 76" fill="none" xmlns="http://www.w3.org/2000/svg">
<path d="M54.8321 36.3887L61.4682 56.9001C62.725 55.6936 66.2682 53.3408 69.5259 53.5821C73.598 53.8837 73.8997 53.1296 79.0275 58.5591C82.6837 62.4304 81.9616 57.6737 80.6545 55.8638C79.6993 53.1491 73.653 49.3045 67.3789 49.5458C66.6248 46.077 65.48 40.4005 59.2059 40.7624L58.4518 38.9526H61.4682C61.5687 40.3603 63.2766 41.7277 67.3789 40.7624C68.1833 39.0532 68.8282 36.0569 66.8977 32.9198C66.096 31.6171 59.0551 35.4838 61.4682 36.3887C63.3987 37.1126 60.2616 36.6903 58.4518 36.3887L56.4911 32.9198" stroke="#10BAB2" stroke-width="2"/>
<mask id="path-2-outside-1_132_6514" maskUnits="userSpaceOnUse" x="12.6012" y="52.7151" width="23" height="23" fill="black">
<rect fill="white" x="12.6012" y="52.7151" width="23" height="23"/>
<path d="M33.5962 64.2126C33.5962 69.4579 29.344 73.71 24.0987 73.71C18.8534 73.71 14.6012 69.4579 14.6012 64.2126C14.6012 58.9673 18.8534 54.7151 24.0987 54.7151C29.344 54.7151 33.5962 58.9673 33.5962 64.2126ZM20.3315 64.2126C20.3315 66.2931 22.0181 67.9797 24.0987 67.9797C26.1792 67.9797 27.8658 66.2931 27.8658 64.2126C27.8658 62.132 26.1792 60.4454 24.0987 60.4454C22.0181 60.4454 20.3315 62.132 20.3315 64.2126Z"/>
</mask>
<path d="M33.5962 64.2126C33.5962 69.4579 29.344 73.71 24.0987 73.71C18.8534 73.71 14.6012 69.4579 14.6012 64.2126C14.6012 58.9673 18.8534 54.7151 24.0987 54.7151C29.344 54.7151 33.5962 58.9673 33.5962 64.2126ZM20.3315 64.2126C20.3315 66.2931 22.0181 67.9797 24.0987 67.9797C26.1792 67.9797 27.8658 66.2931 27.8658 64.2126C27.8658 62.132 26.1792 60.4454 24.0987 60.4454C22.0181 60.4454 20.3315 62.132 20.3315 64.2126Z" fill="white"/>
<path d="M33.5962 64.2126C33.5962 69.4579 29.344 73.71 24.0987 73.71C18.8534 73.71 14.6012 69.4579 14.6012 64.2126C14.6012 58.9673 18.8534 54.7151 24.0987 54.7151C29.344 54.7151 33.5962 58.9673 33.5962 64.2126ZM20.3315 64.2126C20.3315 66.2931 22.0181 67.9797 24.0987 67.9797C26.1792 67.9797 27.8658 66.2931 27.8658 64.2126C27.8658 62.132 26.1792 60.4454 24.0987 60.4454C22.0181 60.4454 20.3315 62.132 20.3315 64.2126Z" stroke="#10BAB2" stroke-width="4" mask="url(#path-2-outside-1_132_6514)"/>
<mask id="path-3-outside-2_132_6514" maskUnits="userSpaceOnUse" x="59.1112" y="52.7151" width="23" height="23" fill="black">
<rect fill="white" x="59.1112" y="52.7151" width="23" height="23"/>
<path d="M80.1062 64.2126C80.1062 69.4579 75.854 73.71 70.6087 73.71C65.3634 73.71 61.1112 69.4579 61.1112 64.2126C61.1112 58.9673 65.3634 54.7151 70.6087 54.7151C75.854 54.7151 80.1062 58.9673 80.1062 64.2126ZM66.8415 64.2126C66.8415 66.2931 68.5282 67.9797 70.6087 67.9797C72.6893 67.9797 74.3759 66.2931 74.3759 64.2126C74.3759 62.132 72.6893 60.4454 70.6087 60.4454C68.5282 60.4454 66.8415 62.132 66.8415 64.2126Z"/>
</mask>
<path d="M80.1062 64.2126C80.1062 69.4579 75.854 73.71 70.6087 73.71C65.3634 73.71 61.1112 69.4579 61.1112 64.2126C61.1112 58.9673 65.3634 54.7151 70.6087 54.7151C75.854 54.7151 80.1062 58.9673 80.1062 64.2126ZM66.8415 64.2126C66.8415 66.2931 68.5282 67.9797 70.6087 67.9797C72.6893 67.9797 74.3759 66.2931 74.3759 64.2126C74.3759 62.132 72.6893 60.4454 70.6087 60.4454C68.5282 60.4454 66.8415 62.132 66.8415 64.2126Z" fill="white"/>
<path d="M80.1062 64.2126C80.1062 69.4579 75.854 73.71 70.6087 73.71C65.3634 73.71 61.1112 69.4579 61.1112 64.2126C61.1112 58.9673 65.3634 54.7151 70.6087 54.7151C75.854 54.7151 80.1062 58.9673 80.1062 64.2126ZM66.8415 64.2126C66.8415 66.2931 68.5282 67.9797 70.6087 67.9797C72.6893 67.9797 74.3759 66.2931 74.3759 64.2126C74.3759 62.132 72.6893 60.4454 70.6087 60.4454C68.5282 60.4454 66.8415 62.132 66.8415 64.2126Z" stroke="#10BAB2" stroke-width="4" mask="url(#path-3-outside-2_132_6514)"/>
<circle cx="24.0987" cy="64.2125" r="10.6094" stroke="#10BAB2"/>
<circle cx="70.6087" cy="64.2125" r="10.6094" stroke="#10BAB2"/>
<circle cx="24.0986" cy="64.2125" r="5.48427" stroke="#10BAB2" stroke-width="2"/>
<circle cx="70.6087" cy="64.2125" r="5.48427" stroke="#10BAB2" stroke-width="2"/>
<path d="M12.6231 66.1757H10.0317C8.85568 66.1757 7.93258 65.167 8.08717 64.0012C8.61038 60.0551 9.73043 54.6304 11.4639 53.8599C11.982 53.6297 12.2607 53.4483 12.3691 53.3064C13.0597 52.4029 10.5946 51.8979 10.5946 50.7606V50.0643C10.5946 48.9597 11.49 48.0643 12.5946 48.0643H37.411C38.5156 48.0643 39.411 48.9597 39.411 50.0643V52.3631C39.411 52.6803 39.3326 52.9906 39.1674 53.2615C38.5067 54.3451 37.3242 56.4291 39.4838 61.4214C39.7866 62.1214 40.4907 62.5534 41.2533 62.5534H59.4229M40.8768 32.4161L40.2256 37.5177C40.1002 38.4996 39.2753 39.242 38.2857 39.2643C35.191 39.3338 32.9076 39.3889 40.8768 39.2259C50.3037 39.0332 53.2084 40.9809 53.4824 41.9789L59.1877 56.451C59.3407 56.839 59.3731 57.2689 59.2514 57.6678C57.7536 62.5803 54.4364 61.7076 52.5873 60.4044C52.3104 60.2093 52.1152 59.9263 51.9931 59.6102C50.3971 55.4763 47.5084 48.0643 47.3969 48.0643C47.283 48.0643 38.1053 46.0107 33.2977 44.9317C33.1328 44.8947 32.9683 44.8838 32.8001 44.8675C31.1475 44.7075 27.5267 42.5937 27.8564 35.8898C28.2911 27.0514 30.4447 23.8675 33.0527 19.8105C34.9256 16.8971 37.4835 16.8792 38.8607 17.3252C39.1458 17.4175 39.4416 17.4785 39.7329 17.5486C40.9985 17.8529 42.8632 19.4708 42.7604 24.3022" stroke="#10BAB2" stroke-width="2"/>
<rect x="1.76404" y="21.4449" width="25.6743" height="25.6743" rx="4" stroke="#10BAB2" stroke-width="2"/>
<circle cx="44.1173" cy="10.0875" r="8.40929" stroke="#10BAB2" stroke-width="2"/>
<mask id="path-11-outside-3_132_6514" maskUnits="userSpaceOnUse" x="33.0444" y="17.6782" width="26" height="20" fill="black">
<rect fill="white" x="33.0444" y="17.6782" width="26" height="20"/>
<path d="M56.0467 32.3514C56.5011 33.6776 55.7946 35.1422 54.4144 35.3878C52.7878 35.6773 51.1221 35.7214 49.4732 35.5143C46.982 35.2015 44.5951 34.3237 42.4949 32.9478C40.3946 31.572 38.6364 29.7345 37.3545 27.5756C36.5061 26.1467 35.8811 24.6021 35.4967 22.9953C35.1705 21.6318 36.231 20.3991 37.6283 20.2859C39.0257 20.1728 40.2233 21.2298 40.6421 22.5677C40.9056 23.4093 41.2666 24.2203 41.7198 24.9836C42.6069 26.4775 43.8235 27.749 45.2768 28.701C46.7302 29.6531 48.3818 30.2605 50.1057 30.477C50.9865 30.5876 51.8742 30.5946 52.751 30.5C54.1448 30.3495 55.5922 31.0251 56.0467 32.3514Z"/>
</mask>
<path d="M56.0467 32.3514C56.5011 33.6776 55.7946 35.1422 54.4144 35.3878C52.7878 35.6773 51.1221 35.7214 49.4732 35.5143C46.982 35.2015 44.5951 34.3237 42.4949 32.9478C40.3946 31.572 38.6364 29.7345 37.3545 27.5756C36.5061 26.1467 35.8811 24.6021 35.4967 22.9953C35.1705 21.6318 36.231 20.3991 37.6283 20.2859C39.0257 20.1728 40.2233 21.2298 40.6421 22.5677C40.9056 23.4093 41.2666 24.2203 41.7198 24.9836C42.6069 26.4775 43.8235 27.749 45.2768 28.701C46.7302 29.6531 48.3818 30.2605 50.1057 30.477C50.9865 30.5876 51.8742 30.5946 52.751 30.5C54.1448 30.3495 55.5922 31.0251 56.0467 32.3514Z" stroke="#10BAB2" stroke-width="4" mask="url(#path-11-outside-3_132_6514)"/>
<path d="M50.1265 35.5662L50.9221 36.6542C51.3737 37.2717 52.1387 37.5787 52.8765 37.3765C54.1221 37.0353 55.574 36.5251 55.8672 36.2473C56.5259 35.6233 56.7596 35.203 56.623 34.2013C56.5149 33.4087 57.0656 32.6543 57.8656 32.6543V32.6543" stroke="#10BAB2" stroke-width="2"/>
</svg>
