<svg width="54" height="54" viewBox="0 0 54 54" fill="none" xmlns="http://www.w3.org/2000/svg">
<path fill-rule="evenodd" clip-rule="evenodd" d="M27.0003 2.81543C22.6861 2.81543 18.7801 3.18206 15.887 3.77732C14.4405 4.07495 13.2517 4.42896 12.3315 4.87661C11.8714 5.10044 11.4659 5.34531 11.1291 5.68391C10.8633 5.95122 10.6517 6.30483 10.5623 6.73168C10.5599 6.743 10.5473 6.75466 10.5451 6.76603C10.5222 6.85583 10.5106 6.94817 10.5108 7.04086C10.5102 7.05784 10.5108 7.07526 10.5108 7.09235C10.5101 7.11525 10.5101 7.13816 10.5108 7.16106C10.5101 7.18396 10.5101 7.20687 10.5108 7.22977L15.8527 47.5947C15.8568 47.6293 15.8625 47.6637 15.8699 47.6977C15.9733 48.4907 16.5579 49.042 17.1581 49.4154C17.8193 49.8268 18.6386 50.1207 19.6144 50.3773C21.566 50.8905 24.1469 51.1846 27.0003 51.1846C29.8511 51.1846 32.4353 50.8905 34.3862 50.3773C35.3616 50.1207 36.1642 49.8268 36.8253 49.4154C37.4514 49.0257 38.0677 48.4445 38.1307 47.5947L38.1478 47.4916C38.1478 47.4795 38.1478 47.4696 38.1478 47.4575L43.4382 7.52207V7.50493C43.4601 7.41615 43.4647 7.32419 43.4726 7.2301C43.4812 7.1847 43.4869 7.13881 43.4898 7.09269C43.4895 7.02933 43.4838 6.96612 43.4726 6.90375C43.4685 6.86914 43.4628 6.83475 43.4554 6.80069C43.3781 6.34532 43.1337 5.96527 42.8543 5.68421C42.5175 5.34561 42.1119 5.10074 41.6518 4.87692C40.7318 4.42926 39.5426 4.07525 38.0963 3.77762C35.204 3.18236 31.3118 2.81543 27.0003 2.81543ZM27.0003 5.01403C31.1895 5.01403 34.9735 5.37362 37.6497 5.92438C38.9878 6.19976 40.0532 6.54209 40.69 6.85192C40.869 6.93901 41.015 7.02044 41.1194 7.09239C41.015 7.16461 40.8695 7.24535 40.69 7.33286C40.0534 7.6432 38.9877 7.98471 37.6497 8.26039C34.9738 8.81177 31.1895 9.15357 27.0003 9.15357C22.8083 9.15357 19.0102 8.81177 16.3337 8.26039C14.9953 7.98471 13.93 7.6432 13.2934 7.33286C13.1138 7.24535 12.9684 7.16461 12.8639 7.09239C12.9684 7.02043 13.1143 6.93903 13.2934 6.85192C13.9303 6.54208 14.9952 6.19976 16.3337 5.92438C19.0105 5.37362 22.8083 5.01403 27.0003 5.01403ZM13.0529 9.61734C13.8484 9.92274 14.792 10.1819 15.887 10.4075C18.7804 11.0035 22.6861 11.3522 27.0003 11.3522C31.3118 11.3522 35.2037 11.0035 38.0963 10.4075C39.1912 10.1819 40.135 9.92274 40.9305 9.61734L35.9664 47.2168C35.96 47.2395 35.9542 47.2624 35.9492 47.2855V47.3025C35.9491 47.3139 35.9491 47.3253 35.9492 47.3366C35.937 47.3421 35.8817 47.4138 35.6744 47.5427C35.3187 47.7641 34.6617 48.0425 33.8193 48.2642C32.1347 48.7073 29.6949 48.9856 27.0003 48.9856C24.3029 48.9856 21.8493 48.7073 20.164 48.2642C19.3213 48.0425 18.6648 47.7641 18.3089 47.5427C18.1088 47.4182 18.049 47.3455 18.0341 47.3366C18.0343 47.3253 18.0343 47.3139 18.0341 47.3025V47.2338C18.025 47.1931 18.0135 47.1529 17.9998 47.1135L13.0529 9.61734Z" fill="#08908C"/>
<path d="M33 27.998H28V32.998C28 33.2633 27.8946 33.5176 27.7071 33.7052C27.5196 33.8927 27.2652 33.998 27 33.998C26.7348 33.998 26.4804 33.8927 26.2929 33.7052C26.1054 33.5176 26 33.2633 26 32.998V27.998H21C20.7348 27.998 20.4804 27.8927 20.2929 27.7052C20.1054 27.5176 20 27.2633 20 26.998C20 26.7328 20.1054 26.4785 20.2929 26.2909C20.4804 26.1034 20.7348 25.998 21 25.998H26V20.998C26 20.7328 26.1054 20.4785 26.2929 20.2909C26.4804 20.1034 26.7348 19.998 27 19.998C27.2652 19.998 27.5196 20.1034 27.7071 20.2909C27.8946 20.4785 28 20.7328 28 20.998V25.998H33C33.2652 25.998 33.5196 26.1034 33.7071 26.2909C33.8946 26.4785 34 26.7328 34 26.998C34 27.2633 33.8946 27.5176 33.7071 27.7052C33.5196 27.8927 33.2652 27.998 33 27.998Z" fill="#08908C"/>
</svg>
