<svg width="54" height="54" viewBox="0 0 54 54" fill="none" xmlns="http://www.w3.org/2000/svg">
<path fill-rule="evenodd" clip-rule="evenodd" d="M27.0003 2.81543C22.6861 2.81543 18.7801 3.18206 15.887 3.77732C14.4405 4.07495 13.2517 4.42896 12.3315 4.87661C11.8714 5.10044 11.4659 5.34531 11.1291 5.68391C10.8633 5.95122 10.6517 6.30483 10.5623 6.73168C10.5599 6.743 10.5473 6.75466 10.5451 6.76603C10.5222 6.85583 10.5106 6.94817 10.5108 7.04086C10.5102 7.05784 10.5108 7.07526 10.5108 7.09235C10.5101 7.11525 10.5101 7.13816 10.5108 7.16106C10.5101 7.18396 10.5101 7.20687 10.5108 7.22977L15.8527 47.5947C15.8568 47.6293 15.8625 47.6637 15.8699 47.6977C15.9733 48.4907 16.5579 49.042 17.1581 49.4154C17.8193 49.8268 18.6386 50.1207 19.6144 50.3773C21.566 50.8905 24.1469 51.1846 27.0003 51.1846C29.8511 51.1846 32.4353 50.8905 34.3862 50.3773C35.3616 50.1207 36.1642 49.8268 36.8253 49.4154C37.4514 49.0257 38.0677 48.4445 38.1307 47.5947L38.1478 47.4916C38.1478 47.4795 38.1478 47.4696 38.1478 47.4575L43.4382 7.52207V7.50493C43.4601 7.41615 43.4647 7.32419 43.4726 7.2301C43.4812 7.1847 43.4869 7.13881 43.4898 7.09269C43.4895 7.02933 43.4838 6.96612 43.4726 6.90375C43.4685 6.86914 43.4628 6.83475 43.4554 6.80069C43.3781 6.34532 43.1337 5.96527 42.8543 5.68421C42.5175 5.34561 42.1119 5.10074 41.6518 4.87692C40.7318 4.42926 39.5426 4.07525 38.0963 3.77762C35.204 3.18236 31.3118 2.81543 27.0003 2.81543ZM27.0003 5.01403C31.1895 5.01403 34.9735 5.37362 37.6497 5.92438C38.9878 6.19976 40.0532 6.54209 40.69 6.85192C40.869 6.93901 41.015 7.02044 41.1194 7.09239C41.015 7.16461 40.8695 7.24535 40.69 7.33286C40.0534 7.6432 38.9877 7.98471 37.6497 8.26039C34.9738 8.81177 31.1895 9.15357 27.0003 9.15357C22.8083 9.15357 19.0102 8.81177 16.3337 8.26039C14.9953 7.98471 13.93 7.6432 13.2934 7.33286C13.1138 7.24535 12.9684 7.16461 12.8639 7.09239C12.9684 7.02043 13.1143 6.93903 13.2934 6.85192C13.9303 6.54208 14.9952 6.19976 16.3337 5.92438C19.0105 5.37362 22.8083 5.01403 27.0003 5.01403ZM13.0529 9.61734C13.8484 9.92274 14.792 10.1819 15.887 10.4075C18.7804 11.0035 22.6861 11.3522 27.0003 11.3522C31.3118 11.3522 35.2037 11.0035 38.0963 10.4075C39.1912 10.1819 40.135 9.92274 40.9305 9.61734L35.9664 47.2168C35.96 47.2395 35.9542 47.2624 35.9492 47.2855V47.3025C35.9491 47.3139 35.9491 47.3253 35.9492 47.3366C35.937 47.3421 35.8817 47.4138 35.6744 47.5427C35.3187 47.7641 34.6617 48.0425 33.8193 48.2642C32.1347 48.7073 29.6949 48.9856 27.0003 48.9856C24.3029 48.9856 21.8493 48.7073 20.164 48.2642C19.3213 48.0425 18.6648 47.7641 18.3089 47.5427C18.1088 47.4182 18.049 47.3455 18.0341 47.3366C18.0343 47.3253 18.0343 47.3139 18.0341 47.3025V47.2338C18.025 47.1931 18.0135 47.1529 17.9998 47.1135L13.0529 9.61734Z" fill="#08908C"/>
<path d="M26.4918 25.992C27.4838 25.992 28.2998 26.312 28.9398 26.952C29.5798 27.5813 29.8998 28.44 29.8998 29.528C29.8998 30.5733 29.5211 31.4373 28.7638 32.12C28.0171 32.792 27.0891 33.128 25.9798 33.128C24.8598 33.128 23.9264 32.7227 23.1798 31.912C22.4331 31.0907 22.0598 30.0187 22.0598 28.696C22.0598 26.8933 22.5984 25.3413 23.6758 24.04C24.7531 22.7387 26.1184 21.9387 27.7718 21.64L28.3638 23.192C26.2304 23.7787 24.8598 24.9093 24.2518 26.584H24.2678C24.9078 26.1893 25.6491 25.992 26.4918 25.992ZM26.1078 31.4C26.6731 31.4 27.1371 31.2133 27.4998 30.84C27.8624 30.4667 28.0438 30.0187 28.0438 29.496C28.0438 28.9627 27.8571 28.5253 27.4838 28.184C27.1104 27.8427 26.6251 27.672 26.0278 27.672C25.1638 27.672 24.4438 28.04 23.8678 28.776V28.92C23.8678 29.6453 24.0864 30.2427 24.5238 30.712C24.9611 31.1707 25.4891 31.4 26.1078 31.4Z" fill="#08908C"/>
</svg>
